<svg id="Layer_1" data-name="Layer 1" xmlns="http://www.w3.org/2000/svg" viewBox="0 0 66.92 19.31"><defs><style>.cls-1{fill:#020202;}.cls-2{fill:#bc352e;}.cls-3{fill:#fff;}.cls-4{fill:#f3f3f3;}.cls-5{fill:#f1f1f1;}.cls-6{fill:#221f1f;}</style></defs><title>accedent</title><rect class="cls-1" x="40.82" y="13.76" width="5.15" height="5.3" rx="1.15" ry="1.15" transform="translate(0.49 33.59) rotate(-43.99)"/><rect class="cls-1" x="61.62" y="14.16" width="5.3" height="5.15" rx="1.15" ry="1.15"/><path class="cls-2" d="M42.22,13.58c.11-2.65,2.14-1.14,1.6-2.69S41.89,7.47,42.89,7s1.88-1.07,2.4-.14c.38.68,0-2.58,3.22-4.22.58-.29,1.62.19,2.46,0a11,11,0,0,1,2.94-.69h6.35c2.72,2,3.58,6.36,3.58,6.36s3.36,1,3.36,5.47v4.58H46S42.11,16.23,42.22,13.58Z" transform="translate(-0.28 -1.16)"/><rect class="cls-2" x="62.58" y="5.16" width="4.17" height="2.67" rx="1.15" ry="1.15"/><path class="cls-3" d="M47.88,12.64C49.94,12.51,51.94,12,53,12h8.41a1.88,1.88,0,1,1,0,.74H53.05c-.79,0-3.18.9-5.17.69C47.36,13.11,47.84,12.77,47.88,12.64Z" transform="translate(-0.28 -1.16)"/><path class="cls-3" d="M44.29,12.69c-.13.54.88,1,2,1.31s2.18.07,2.31-.48-.32-1.3-1.47-1.58S44.43,12.15,44.29,12.69Z" transform="translate(-0.28 -1.16)"/><path class="cls-3" d="M46.61,6c.74-1.37,1.93-2.75,2.83-2.51,1.51.41,2.37-.12,4.23-.28s5.68,0,6.28,0a15.29,15.29,0,0,1,2.43,5,43.52,43.52,0,0,0-7.64,0c-2.3.45-3.27-2.52-8.46,0A3,3,0,0,1,46.61,6Z" transform="translate(-0.28 -1.16)"/><path class="cls-3" d="M58.88,16.74a.21.21,0,0,0,.21.21h0a.22.22,0,0,0,.21-.21V14.41a.21.21,0,0,0-.21-.21h0a.21.21,0,0,0-.21.21Z" transform="translate(-0.28 -1.16)"/><path class="cls-3" d="M58,16.74a.21.21,0,0,0,.21.21h0a.22.22,0,0,0,.21-.21V14.41a.21.21,0,0,0-.21-.21h0a.21.21,0,0,0-.21.21Z" transform="translate(-0.28 -1.16)"/><path class="cls-3" d="M57.12,16.74a.21.21,0,0,0,.21.21h0a.22.22,0,0,0,.21-.21V14.41a.21.21,0,0,0-.21-.21h0a.21.21,0,0,0-.21.21Z" transform="translate(-0.28 -1.16)"/><path class="cls-3" d="M56.24,16.74a.21.21,0,0,0,.21.21h0a.22.22,0,0,0,.21-.21V14.41a.21.21,0,0,0-.21-.21h0a.21.21,0,0,0-.21.21Z" transform="translate(-0.28 -1.16)"/><path class="cls-3" d="M55.36,16.74a.21.21,0,0,0,.21.21h0a.22.22,0,0,0,.21-.21V14.41a.21.21,0,0,0-.21-.21h0a.21.21,0,0,0-.21.21Z" transform="translate(-0.28 -1.16)"/><path class="cls-3" d="M54.33,16.5a.2.2,0,0,0,.23.18h0a.2.2,0,0,0,.18-.23l-.3-2.31a.2.2,0,0,0-.23-.18h0a.2.2,0,0,0-.18.23Z" transform="translate(-0.28 -1.16)"/><path class="cls-3" d="M53.4,16.5a.22.22,0,0,0,.24.18h0a.22.22,0,0,0,.18-.24l-.32-2.3a.21.21,0,0,0-.24-.18h0a.21.21,0,0,0-.18.23Z" transform="translate(-0.28 -1.16)"/><path class="cls-3" d="M52.52,16.93a.21.21,0,0,0,.26.15h0a.21.21,0,0,0,.15-.25l-.59-2.26a.2.2,0,0,0-.25-.15h0a.21.21,0,0,0-.15.26Z" transform="translate(-0.28 -1.16)"/><path class="cls-3" d="M51.56,16.69a.22.22,0,0,0,.26.15h0a.21.21,0,0,0,.15-.26l-.59-2.25a.21.21,0,0,0-.25-.15h0a.2.2,0,0,0-.15.26Z" transform="translate(-0.28 -1.16)"/><path class="cls-3" d="M50.85,17.21a.2.2,0,0,0,.27.12h0a.21.21,0,0,0,.12-.27l-.84-2.17a.21.21,0,0,0-.27-.12h0A.21.21,0,0,0,50,15Z" transform="translate(-0.28 -1.16)"/><path class="cls-2" d="M5.53,12.1A23.59,23.59,0,0,1,2,10.83C1.37,10.38,0,9.67.34,8.54S.73,6.18,2.16,6.28c-.56-.54-.05-4,1.61-3.9A14,14,0,0,0,9.53,2C13.3,1.17,25,1.39,27.79,3.46q3,2.24,3.92,2.86a11.85,11.85,0,0,0,2.45.93S36.56,3.06,37,3.18s2.74,1.36,2.79.83l.3-2.85.76.08a32.68,32.68,0,0,1-.46,3.93c-.2.34-2.91-1-3.24-1.11S35.22,7,35.06,7.35s.76,2.28.76,2.28,3.07.08,2.79.42.35,1.74.16,2.15.83,1,1.16,1.66-.23,4.86-.56,5.31-2-.22-2-.22.33-5-1.8-4.84-3.13,3.37-3.13,3.37l-1.75-.69L27.57,17,13.34,14Z" transform="translate(-0.28 -1.16)"/><path class="cls-4" d="M5.44,10.72A4,4,0,1,0,9.87,7.14,4,4,0,0,0,5.44,10.72Z" transform="translate(-0.28 -1.16)"/><path class="cls-5" d="M12.38,4.91l9.38,2A10.58,10.58,0,0,0,22.9,3C14.42,1.62,12.38,4.91,12.38,4.91Z" transform="translate(-0.28 -1.16)"/><path class="cls-4" d="M24.14,3.46c-.12,1.2-.86,4.08-.86,4.08a36.1,36.1,0,0,1,7.11,1.33c2.34.9,3.65,1.2,4,.05-.54-.79-.87-.64-2.55-1.63A39.25,39.25,0,0,0,24.14,3.46Z" transform="translate(-0.28 -1.16)"/><path class="cls-6" d="M9.08,14.63a3.5,3.5,0,0,1,.36-7l.37,0a3.5,3.5,0,0,1-.36,7ZM7.57,11A1.91,1.91,0,0,0,8,12.33,1.88,1.88,0,0,0,9.25,13h.2A1.88,1.88,0,0,0,10.91,10a1.92,1.92,0,0,0-1.27-.69h-.2A1.89,1.89,0,0,0,7.57,11Z" transform="translate(-0.28 -1.16)"/><path class="cls-6" d="M31.52,17.34c-.48-1.57.61-2.13,1.33-2.5a6.22,6.22,0,0,0,1.23-.78,2.77,2.77,0,0,1,1.79-.72,2.51,2.51,0,0,1,2.36,2,3.52,3.52,0,0,1-2.34,4.37,3.55,3.55,0,0,1-1,.15A3.48,3.48,0,0,1,31.52,17.34Zm3.62-2.05a7.11,7.11,0,0,1-1.55,1,3.53,3.53,0,0,0-.57.34.74.74,0,0,0,0,.25,1.9,1.9,0,0,0,1.8,1.34,2.09,2.09,0,0,0,.55-.08,1.88,1.88,0,0,0,1.11-.92,1.83,1.83,0,0,0,.14-1.43c-.07-.25-.3-.82-.8-.82A1.14,1.14,0,0,0,35.14,15.29Z" transform="translate(-0.28 -1.16)"/></svg>