<svg xmlns="http://www.w3.org/2000/svg" id="Layer_1" data-name="Layer 1" viewBox="0 0 58.21 58.21"><defs><style>.cls-1{fill:none;stroke:#fff;stroke-miterlimit:10;}.cls-2{fill:#fff;}</style></defs><title>activate</title><rect class="cls-1" x="0.5" y="0.5" width="57.21" height="57.21"></rect><path class="cls-2" d="M11.08,32.06A1.66,1.66,0,0,1,10.62,31a1.7,1.7,0,0,1,.46-1.07l2.14-2.14a1.48,1.48,0,0,1,2.14,0l.16.15,8.41,9A.75.75,0,0,0,25,37L45.49,15.7h.15a1.49,1.49,0,0,1,2.15,0l2.14,2.14a1.48,1.48,0,0,1,0,2.14h0L25.46,45.37a1.41,1.41,0,0,1-1.07.46,1.4,1.4,0,0,1-1.07-.46L11.39,32.52Z" transform="translate(-1.65 -2)"></path></svg>