<?xml version="1.0" encoding="UTF-8"?>
<svg enable-background="new 0 0 478.143 478.143" fill="#67686b" version="1.1" viewBox="0 0 478.143 478.143" xml:space="preserve" xmlns="http://www.w3.org/2000/svg">
		<path d="m155.48 26.708c-35.567-35.567-93.233-35.567-128.8 0s-35.567 93.233 0 128.8c3.122 3.126 8.188 3.129 11.314 6e-3l6e-3 -6e-3 0.024-0.032 117.46-117.46c3.123-3.124 3.123-8.188 0-11.312zm-122.82 111.5c-10.804-13.323-16.676-29.967-16.624-47.12 0.016-41.452 33.632-75.043 75.084-75.028 17.132 6e-3 33.747 5.874 47.084 16.628l-105.54 105.52z"/>
		<path d="m451.47 26.703c-17.075-17.074-40.233-26.666-64.38-26.667-24.165-0.066-47.351 9.539-64.392 26.672-3.123 3.124-3.123 8.188 0 11.312l117.46 117.46c3.124 3.123 8.188 3.123 11.312 0 35.559-35.561 35.557-93.215-4e-3 -128.77zm-5.948 111.51h-0.032l-105.52-105.55c32.272-26.024 79.529-20.959 105.55 11.313 22.176 27.499 22.176 66.739 0 94.239z"/>
		<path d="m240.04 94.148c-92.784 0-168 75.216-168 168s75.216 168 168 168 168-75.216 168-168c-0.105-92.74-75.26-167.9-168-168zm0 320c-83.947 0-152-68.053-152-152s68.053-152 152-152 152 68.053 152 152c-0.092 83.908-68.091 151.91-152 152z"/>
		<path d="m322.53 154.09l-9.696 12.704c17.711 13.534 31.317 31.718 39.304 52.528l14.936-5.728c-9.048-23.579-24.469-44.18-44.544-59.504z"/>
		<path d="m290.21 135.75l-5.912 14.864c5.052 2.02 9.965 4.375 14.704 7.048l7.872-13.912c-5.365-3.045-10.932-5.718-16.664-8z"/>
		<path d="m352.04 236.37h-54.064l8.392-8.392c9.371-9.376 9.368-24.573-8e-3 -33.944s-24.573-9.368-33.944 8e-3l-49.352 49.352c-5.7 5.699-8.158 13.879-6.544 21.776 0.064 0.304 0.192 0.592 0.272 0.896 0.275 1.237 0.652 2.449 1.128 3.624 0.056 0.136 0.144 0.248 0.2 0.384 1.183 2.705 2.856 5.168 4.936 7.264 1.091 1.087 2.283 2.068 3.56 2.928 1.132 0.749 2.325 1.399 3.568 1.944 0.184 0.08 0.344 0.2 0.528 0.28 1.16 0.467 2.356 0.839 3.576 1.112 0.32 0.08 0.616 0.216 0.944 0.288 1.58 0.318 3.188 0.479 4.8 0.48h112.01c13.255 0 24-10.745 24-24s-10.745-24-24-24zm-117.54 29.736c-0.179-0.212-0.348-0.434-0.504-0.664-0.54-0.587-0.988-1.254-1.328-1.976-1.257-2.996-0.577-6.455 1.72-8.752l49.352-49.36c3.124-3.126 8.19-3.128 11.316-4e-3s3.128 8.19 4e-3 11.316l-49.36 49.36c-3.124 2.985-8.033 3.02-11.2 0.08zm117.54 2.264h-86.064l16-16h70.064c4.418 0 8 3.582 8 8s-3.581 8-8 8z"/>
		<path d="m368.21 415.5c84.745-70.728 96.107-196.76 25.379-281.51-36.209-43.384-89.09-69.413-145.56-71.643v-40.2h40v-16h-96v16h40v40.2c-110.28 4.307-196.2 97.202-191.89 207.49 2.179 55.781 27.59 108.11 70.081 144.31l-20.592 28.8c-7.133 10.005-4.804 23.898 5.201 31.031 7.5 5.347 17.52 5.519 25.199 0.433l42.088-28.056c49.231 20.829 104.76 21.062 154.16 0.648l41.152 27.416c10.252 6.773 24.054 3.952 30.826-6.301 5.064-7.666 4.895-17.657-0.426-25.147l-19.624-27.472zm-256.98 45.592c-1.031 0.686-2.241 1.054-3.48 1.056-3.446 6e-3 -6.245-2.782-6.252-6.228-2e-3 -1.31 0.407-2.588 1.172-3.652l20.16-28.232c7.208 5.249 14.758 10.012 22.6 14.256l-34.2 22.8zm128.8-14.944c-101.57-0.115-183.88-82.427-184-184 0-101.62 82.38-184 184-184s184 82.38 184 184-82.379 184-184 184zm133.36 14.835c-1.061 0.758-2.332 1.165-3.636 1.164-1.233-1e-3 -2.437-0.366-3.464-1.048l-33.088-22.056c7.74-4.103 15.204-8.708 22.344-13.784l19.296 27.008c2.006 2.808 1.356 6.711-1.452 8.716z"/>
		<rect x="232.04" y="382.15" width="16" height="16.664"/>
		<rect x="104.04" y="254.15" width="16" height="16"/>
		<rect x="232.04" y="126.15" width="16" height="16"/>
		<rect transform="matrix(.7071 -.7071 .7071 .7071 -151.51 334.51)" x="320.03" y="338.84" width="16" height="22.624"/>
		<rect transform="matrix(.7071 -.7071 .7071 .7071 -78.613 158.51)" x="144.04" y="162.84" width="16" height="22.624"/>
		<rect transform="matrix(.7071 -.7071 .7071 .7071 -203.06 210.06)" x="140.73" y="342.15" width="22.624" height="16"/>
</svg>
