<?xml version="1.0" encoding="UTF-8"?>
<svg baseProfile="tiny" version="1.2" viewBox="0 0 108.6 40.9" xml:space="preserve" xmlns="http://www.w3.org/2000/svg">
<g display="none">
	<polygon points="103.9 36.7 103.9 36.7 4.7 36.7 4.7 4.2 103.9 4.2" display="inline" fill="#67686B"/>
	<g display="inline">
		<path d="m12.5 10.9h-0.1 0.1z" fill="#0D7EB0"/>
		<path d="m12.7 11.1l-0.1-0.1-0.1-0.1h-0.1c-0.1 0-0.2 0.1-0.2 0.2h0.5z" fill="#0F7FB0"/>
		<path d="m12.9 11.3l-0.1-0.1-0.1-0.1h-0.5v0.2h0.7z" fill="#107FB0"/>
		<path d="m13.1 11.5l-0.1-0.1-0.1-0.1h-0.8v0.1 0.1h1z" fill="#1280B0"/>
		<path d="m13.3 11.7l-0.1-0.1-0.1-0.1h-1v0.2h1.2z" fill="#1380B0"/>
		<path d="m13.5 11.9l-0.1-0.1-0.1-0.1h-1.2v0.2h1.4z" fill="#1481B0"/>
		<path d="m13.8 12.1l-0.2-0.1-0.1-0.1h-1.4v0.2h1.7z" fill="#1582B1"/>
		<path d="m14 12.3l-0.1-0.1-0.1-0.1h-1.6v0.2h1.8z" fill="#1682B1"/>
		<path d="m14.2 12.5l-0.2-0.1v-0.1h-1.8v0.2h2z" fill="#1883B1"/>
		<path d="m14.4 12.7l-0.1-0.1-0.1-0.1h-2v0.2h2.2z" fill="#1984B1"/>
		<path d="m14.6 12.9l-0.1-0.1-0.1-0.1h-2.2v0.2h2.4z" fill="#1A84B1"/>
		<path d="m14.8 13.1l-0.2-0.1-0.1-0.1h-2.4v0.2h2.7z" fill="#1A85B1"/>
		<path d="m15 13.3l-0.1-0.1-0.1-0.1h-2.6v0.2h2.8z" fill="#1B86B1"/>
		<path d="m15.2 13.5l-0.2-0.1v-0.1h-2.8v0.2h3z" fill="#1C86B1"/>
		<path d="m15.4 13.7l-0.1-0.1-0.1-0.1h-3v0.2h3.2z" fill="#1D87B1"/>
		<path d="m15.6 13.9l-0.1-0.1-0.1-0.1h-3.3v0.2h3.5z" fill="#1E88B1"/>
		<path d="m15.8 14.1l-0.2-0.1-0.1-0.1h-3.5v0.2h3.8z" fill="#1F88B2"/>
		<path d="m16 14.3l-0.1-0.1-0.1-0.1h-3.7v0.2h3.9z" fill="#2089B2"/>
		<path d="m16.2 14.5l-0.2-0.1v-0.1h-3.9v0.2h4.1z" fill="#218AB2"/>
		<path d="m16.4 14.7l-0.2-0.2h-4.1v0.2h4.3z" fill="#228AB2"/>
		<path d="m16.6 14.9l-0.2-0.2h-4.3v0.2h4.5z" fill="#238BB2"/>
		<path d="m16.8 15.1l-0.2-0.1h-4.5v0.2h4.7z" fill="#248CB2"/>
		<path d="m17 15.3l-0.2-0.2h-4.7v0.2h4.9z" fill="#248CB2"/>
		<path d="m17.2 15.5l-0.2-0.1h-4.9v0.2h5.1z" fill="#258DB2"/>
		<path d="m17.4 15.7l-0.2-0.2h-5.1v0.2h5.3z" fill="#268EB2"/>
		<path d="m17.6 15.9l-0.2-0.2h-5.3v0.2h5.5z" fill="#278EB2"/>
		<path d="m17.8 16.1l-0.2-0.2h-5.5v0.2h5.7z" fill="#288FB2"/>
		<path d="m18 16.3l-0.2-0.2h-5.7v0.2h5.9z" fill="#2890B3"/>
		<path d="m18.2 16.5l-0.2-0.2h-5.9v0.2h6.1z" fill="#2990B3"/>
		<path d="m18.4 16.7l-0.2-0.2h-6.1v0.2h6.3z" fill="#2A91B3"/>
		<path d="m18.6 16.9l-0.2-0.2h-6.3v0.2h6.5z" fill="#2B92B3"/>
		<path d="m18.8 17.1l-0.2-0.2h-6.5v0.2h6.7z" fill="#2B92B3"/>
		<path d="m19 17.3l-0.2-0.2h-6.7v0.2h6.9z" fill="#2C93B3"/>
		<path d="m19.2 17.5l-0.2-0.2h-6.9v0.2h7.1z" fill="#2D94B3"/>
		<path d="m19.4 17.7l-0.2-0.2h-7.1v0.2h7.3z" fill="#2E94B3"/>
		<path d="m19.6 17.9l-0.2-0.2h-7.3v0.2h7.5z" fill="#2E95B3"/>
		<path d="m19.9 18.1l-0.2-0.2h-7.5v0.2h7.7z" fill="#2F96B3"/>
		<path d="m20.1 18.3l-0.2-0.2h-7.7v0.2h7.9z" fill="#3096B3"/>
		<path d="m20.3 18.5l-0.1-0.1-0.1-0.1h-7.9v0.2h8.1z" fill="#3097B3"/>
		<path d="m20.5 18.7l-0.1-0.1-0.1-0.1h-8.1v0.2h8.3z" fill="#3198B3"/>
		<path d="m20.7 18.9l-0.1-0.1-0.1-0.1h-8.3v0.2h8.5z" fill="#3298B3"/>
		<path d="m20.9 19.1l-0.1-0.1-0.1-0.1h-8.5v0.2h8.7z" fill="#3399B3"/>
		<path d="m21.1 19.3l-0.1-0.1-0.1-0.1h-8.7v0.2h8.9z" fill="#339AB3"/>
		<path d="m21.3 19.5l-0.1-0.1-0.1-0.1h-8.9v0.2h9.1z" fill="#349AB4"/>
		<path d="m21.5 19.7l-0.1-0.1-0.1-0.1h-9.1v0.2h9.3z" fill="#359BB4"/>
		<path d="m21.7 19.9l-0.1-0.1-0.1-0.1h-9.4v0.2h9.6z" fill="#359CB4"/>
		<path d="m21.9 20.1l-0.1-0.1-0.1-0.1h-9.6v0.2h9.8z" fill="#369CB4"/>
		<path d="m22.1 20.4l-0.1-0.2-0.1-0.1h-9.8v0.2h10z" fill="#379DB4"/>
		<path d="m22.3 20.6l-0.1-0.1-0.1-0.1h-10v0.2h10.2z" fill="#389DB4"/>
		<path d="m22.5 20.8l-0.1-0.1-0.1-0.1h-10.2v0.2h10.4z" fill="#389EB4"/>
		<path d="m22.7 21l-0.1-0.1-0.1-0.1h-10.4v0.2h10.6z" fill="#399FB4"/>
		<path d="m22.9 21.2l-0.1-0.2h-0.1-10.6v0.2h10.8z" fill="#3A9FB4"/>
		<path d="m23.1 21.4l-0.1-0.2-0.1-0.1h-10.8v0.2h11z" fill="#3AA0B4"/>
		<path d="m23.1 21.5v-0.2h-11v0.1s0 0 0 0.1h11z" fill="#3BA1B4"/>
		<path d="m22.9 21.7l0.1-0.1 0.1-0.1h-11v0.1 0.1 0.1l10.8-0.1z" fill="#3CA1B4"/>
		<path d="m22.7 22l0.1-0.1 0.1-0.1h-10.8v0.1 0.1 0.1l10.6-0.1z" fill="#3DA2B4"/>
		<path d="m22.5 22.1l0.1-0.1h-10.5v0.1 0.1l10.4-0.1z" fill="#3DA3B4"/>
		<path d="m22.3 22.3l0.1-0.1 0.1-0.1h-10.4v0.1s0 0 0 0.1 0 0 0 0.1l10.2-0.1z" fill="#3EA3B4"/>
		<path d="m22.1 22.6l0.1-0.1 0.1-0.1h-10.2v0.1s0 0 0 0.1v0.1l10-0.1z" fill="#3FA4B4"/>
		<path d="m21.9 22.7l0.1-0.1h-10v0.1 0.1 0.1l9.9-0.2z" fill="#3FA4B4"/>
		<path d="m21.7 22.9l0.1-0.1 0.1-0.1h-9.8v0.1s0 0 0 0.1v0.1l9.6-0.1z" fill="#40A5B4"/>
		<path d="m21.5 23.2l0.1-0.1 0.1-0.1h-9.6v0.1 0.1 0.1l9.4-0.1z" fill="#41A6B4"/>
		<path d="m21.3 23.3l0.1-0.1h-9.3v0.1s0 0 0 0.1v0.1l9.2-0.2z" fill="#41A6B4"/>
		<path d="m21.1 23.5l0.1-0.1 0.1-0.1h-9.1v0.1s0 0 0 0.1 0 0 0 0.1l8.9-0.1z" fill="#42A7B4"/>
		<path d="m20.9 23.8l0.1-0.1 0.1-0.1h-8.9v0.1s0 0 0 0.1v0.1l8.7-0.1z" fill="#42A8B4"/>
		<path d="m20.7 24l0.1-0.1 0.1-0.1h-8.7v0.1 0.1s0 0 0 0.1l8.5-0.1z" fill="#43A8B4"/>
		<path d="m20.5 24.1l0.1-0.1 0.1-0.1h-8.5v0.1 0.1s0 0 0 0.1l8.3-0.1z" fill="#44A9B4"/>
		<path d="m20.3 24.4l0.1-0.1 0.1-0.1h-8.3v0.1 0.1 0.1l8.1-0.1z" fill="#44AAB4"/>
		<path d="m20.1 24.6l0.1-0.1 0.1-0.1h-8.1v0.1 0.1 0.1l7.9-0.1z" fill="#45AAB4"/>
		<path d="m19.9 24.7l0.1-0.1 0.1-0.1h-7.9v0.1 0.1s0 0 0 0.1l7.7-0.1z" fill="#45ABB4"/>
		<path d="m19.7 25l0.1-0.1 0.1-0.1h-7.7v0.1 0.1 0.1l7.5-0.1z" fill="#46ABB4"/>
		<path d="m19.4 25.2l0.1-0.1 0.1-0.1h-7.5v0.1 0.1s0 0 0 0.1l7.3-0.1z" fill="#47ACB4"/>
		<path d="m19.3 25.3l0.1-0.1h-7.3v0.1 0.1l7.2-0.1z" fill="#47ADB4"/>
		<path d="m19.1 25.6l0.1-0.1 0.1-0.1h-7.1v0.1 0.1 0.1l6.9-0.1z" fill="#48ADB4"/>
		<path d="m18.8 25.8l0.1-0.1 0.1-0.1h-6.9v0.1s0 0 0 0.1v0.1l6.7-0.1z" fill="#48AEB4"/>
		<path d="m18.7 25.9l0.1-0.1h-6.7v0.1 0.1l6.6-0.1z" fill="#49AFB4"/>
		<path d="m18.5 26.2l0.1-0.1 0.1-0.1h-6.5v0.1 0.1 0.1l6.3-0.1z" fill="#49AFB4"/>
		<path d="m18.2 26.4l0.1-0.1 0.1-0.1h-6.3v0.1 0.1s0 0 0 0.1l6.1-0.1z" fill="#4AB0B4"/>
		<path d="m18.1 26.6l0.1-0.1h-6.1v0.1 0.1l6-0.1z" fill="#4BB0B4"/>
		<path d="m17.8 26.8l0.1-0.1 0.1-0.1h-5.9v0.1 0.1s0 0 0 0.1l5.7-0.1z" fill="#4BB1B4"/>
		<path d="m17.6 27l0.1-0.1 0.1-0.1h-5.7v0.1 0.1s0 0 0 0.1l5.5-0.1z" fill="#4CB2B4"/>
		<path d="m17.5 27.2l0.1-0.1h-5.5v0.1 0.1l5.4-0.1z" fill="#4CB2B4"/>
		<path d="m17.2 27.4l0.1-0.1 0.1-0.1h-5.3v0.1s0 0 0 0.1v0.1l5.1-0.1z" fill="#4DB3B4"/>
		<path d="m17 27.6l0.1-0.1 0.1-0.1h-5.1v0.1 0.1 0.1l4.9-0.1z" fill="#4DB4B4"/>
		<path d="m16.9 27.8l0.1-0.1h-4.9v0.1s0 0 0 0.1v0.1l4.8-0.2z" fill="#4EB4B4"/>
		<path d="m16.6 28l0.1-0.1 0.1-0.1h-4.7v0.1 0.1 0.1l4.5-0.1z" fill="#4FB5B4"/>
		<path d="m16.4 28.2l0.1-0.1 0.1-0.1h-4.5v0.1 0.1 0.1l4.3-0.1z" fill="#4FB5B4"/>
		<path d="m16.2 28.4l0.1-0.1h-4.3v0.1 0.1 0.1l4.2-0.2z" fill="#50B6B4"/>
		<path d="m16 28.6l0.1-0.1 0.1-0.1h-4.1v0.1 0.1 0.1l3.9-0.1z" fill="#50B7B4"/>
		<path d="m15.8 28.8l0.1-0.1 0.1-0.1h-3.9v0.1 0.1 0.1l3.7-0.1z" fill="#51B7B3"/>
		<path d="m15.6 29l0.1-0.1 0.1-0.1h-3.7v0.1s0 0 0 0.1v0.1l3.5-0.1z" fill="#51B8B3"/>
		<path d="m15.4 29.2l0.1-0.1 0.1-0.1h-3.5v0.1 0.1 0.1l3.3-0.1z" fill="#52B8B3"/>
		<path d="m15.2 29.4l0.1-0.1 0.1-0.1h-3.3v0.1s0 0 0 0.1 0 0 0 0.1l3.1-0.1z" fill="#52B9B3"/>
		<path d="m15 29.6l0.1-0.1 0.1-0.1h-3v0.1 0.1 0.1l2.8-0.1z" fill="#53B9B3"/>
		<path d="m14.8 29.8l0.1-0.1 0.1-0.1h-2.8v0.1 0.1s0 0 0 0.1l2.6-0.1z" fill="#53BAB3"/>
		<path d="m14.6 30l0.1-0.1 0.1-0.1h-2.6v0.1 0.1 0.1l2.4-0.1z" fill="#54BBB3"/>
		<path d="m14.4 30.2l0.1-0.1 0.1-0.1h-2.4v0.1s0 0 0 0.1 0 0 0 0.1l2.2-0.1z" fill="#54BBB3"/>
		<path d="m14.2 30.4l0.1-0.1 0.1-0.1h-2.2v0.1 0.1s0 0 0 0.1l2-0.1z" fill="#55BCB3"/>
		<path d="m14 30.6l0.1-0.1 0.1-0.1h-2v0.1s0 0 0 0.1v0.1l1.8-0.1z" fill="#55BCB3"/>
		<path d="m13.8 30.8l0.1-0.1 0.1-0.1h-1.8v0.1s0 0 0 0.1 0 0 0 0.1l1.6-0.1z" fill="#56BDB3"/>
		<path d="m13.6 31l0.1-0.1h-1.6v0.1 0.1l1.5-0.1z" fill="#56BEB3"/>
		<path d="m13.4 31.2l0.1-0.1 0.1-0.1h-1.4v0.1 0.1 0.1l1.2-0.1z" fill="#56BEB3"/>
		<path d="m13.2 31.4l0.1-0.1 0.1-0.1h-1.2v0.1 0.1 0.1l1-0.1z" fill="#57BFB3"/>
		<path d="m13 31.6l0.1-0.1h-1v0.1 0.1l0.9-0.1z" fill="#57C0B3"/>
		<path d="m12.8 31.8l0.1-0.1 0.1-0.1h-0.8v0.1 0.1h0.6z" fill="#57C0B3"/>
		<path d="m12.5 32l0.1-0.1 0.1-0.1h-0.6c0 0.1 0 0.1 0.1 0.2h0.3z" fill="#57C1B3"/>
		<path d="m12.5 32.1h-0.2 0.2z" fill="#58C2B4"/>
		<path d="m12.5 10.8z" fill="#2BBBA7"/>
		<path d="m12.5 10.9c0.1-0.1 0.1-0.1 0 0z" fill="#2EBBA7"/>
		<path d="m12.6 11l0.1 0.1v-0.3h-0.1v0.2z" fill="#31BBA7"/>
		<path d="m12.7 11.1l0.1 0.1v-0.3h-0.1v0.2z" fill="#33BBA7"/>
		<path d="m12.8 11.2l0.1 0.1v-0.4h-0.1v0.3z" fill="#36BCA7"/>
		<path d="m12.9 11.3l0.1 0.1v-0.4h-0.1v0.3z" fill="#38BCA6"/>
		<path d="m13 11.4l0.1 0.1v-0.5h-0.1v0.4z" fill="#3BBCA6"/>
		<path d="m13.1 11.5l0.1 0.1v-0.6s-0.1 0-0.1-0.1v0.6z" fill="#3DBDA6"/>
		<path d="m13.2 11.6l0.1 0.1v-0.6s-0.1 0-0.1-0.1v0.6z" fill="#3FBDA6"/>
		<path d="m13.3 11.7l0.1 0.1v-0.6s-0.1 0-0.1-0.1v0.6z" fill="#41BDA6"/>
		<path d="m13.4 11.8l0.1 0.1v-0.7s-0.1 0-0.1-0.1v0.7z" fill="#43BDA6"/>
		<path d="m13.5 11.9l0.1 0.1v-0.7s-0.1 0-0.1-0.1v0.7z" fill="#45BEA6"/>
		<path d="m13.6 12l0.1 0.1v-0.7s-0.1 0-0.1-0.1v0.7z" fill="#47BEA6"/>
		<path d="m13.7 12.1l0.1 0.1v-0.8s-0.1 0-0.1-0.1v0.8z" fill="#49BEA5"/>
		<path d="m13.8 12.2l0.1 0.1v-0.8s-0.1 0-0.1-0.1v0.8z" fill="#4BBEA5"/>
		<path d="m13.9 12.3l0.1 0.1v-0.9s-0.1 0-0.1-0.1v0.9z" fill="#4CBFA5"/>
		<path d="m14 12.4l0.1 0.1v-0.9s-0.1 0-0.1-0.1v0.9z" fill="#4EBFA5"/>
		<path d="m14.1 12.5l0.1 0.1v-1s-0.1 0-0.1-0.1v1z" fill="#50BFA5"/>
		<path d="m14.2 12.6l0.1 0.1v-1s-0.1 0-0.1-0.1v1z" fill="#51C0A5"/>
		<path d="m14.3 12.7l0.1 0.1v-1s-0.1 0-0.1-0.1v1z" fill="#53C0A5"/>
		<path d="m14.4 12.8l0.1 0.1v-1.1s-0.1 0-0.1-0.1v1.1z" fill="#55C0A4"/>
		<path d="m14.5 12.9l0.1 0.1v-1.1s-0.1 0-0.1-0.1v1.1z" fill="#56C0A4"/>
		<path d="m14.6 13l0.1 0.1v-1.2s-0.1 0-0.1-0.1v1.2z" fill="#58C1A4"/>
		<path d="m14.7 13.1l0.1 0.1v-1.2s-0.1 0-0.1-0.1v1.2z" fill="#59C1A4"/>
		<path d="m14.8 13.2l0.1 0.1v-1.3s-0.1 0-0.1-0.1v1.3z" fill="#5BC1A4"/>
		<path d="m14.9 13.3l0.1 0.1v-1.3s-0.1 0-0.1-0.1v1.3z" fill="#5CC1A4"/>
		<path d="m15 13.4l0.1 0.1v-1.3s-0.1 0-0.1-0.1v1.3z" fill="#5EC2A4"/>
		<path d="m15.1 13.5l0.1 0.1v-1.4s-0.1 0-0.1-0.1v1.4z" fill="#5FC2A4"/>
		<path d="m15.2 13.6l0.1 0.1v-1.4s-0.1 0-0.1-0.1v1.4z" fill="#61C2A3"/>
		<path d="m15.3 13.7l0.1 0.1v-1.5s-0.1 0-0.1-0.1v1.5z" fill="#62C3A3"/>
		<path d="m15.4 13.8l0.1 0.1v-1.5s-0.1 0-0.1-0.1v1.5z" fill="#64C3A3"/>
		<path d="m15.5 13.9l0.1 0.1v-1.5s-0.1 0-0.1-0.1v1.5z" fill="#65C3A3"/>
		<path d="m15.6 14l0.1 0.1v-1.6s-0.1 0-0.1-0.1v1.6z" fill="#66C3A3"/>
		<path d="m15.7 14.1l0.1 0.1v-1.6s-0.1 0-0.1-0.1v1.6z" fill="#68C4A3"/>
		<path d="m15.8 14.2l0.1 0.1v-1.7s-0.1 0-0.1-0.1v1.7z" fill="#69C4A3"/>
		<path d="m15.9 14.3l0.1 0.1v-1.7s-0.1 0-0.1-0.1v1.7z" fill="#6AC4A2"/>
		<path d="m16 14.4l0.1 0.1v-1.7s-0.1 0-0.1-0.1v1.7z" fill="#6CC5A2"/>
		<path d="m16.1 14.5l0.1 0.1v-1.8s-0.1 0-0.1-0.1v1.8z" fill="#6DC5A2"/>
		<path d="m16.2 14.6l0.1 0.1v-1.8s-0.1 0-0.1-0.1v1.8z" fill="#6EC5A2"/>
		<path d="m16.3 14.7l0.1 0.1v-1.9s-0.1 0-0.1-0.1v1.9z" fill="#6FC5A2"/>
		<path d="m16.4 14.8l0.1 0.1v-1.9s-0.1 0-0.1-0.1v1.9z" fill="#71C6A2"/>
		<path d="m16.5 14.9l0.1 0.1v-2s-0.1 0-0.1-0.1v2z" fill="#72C6A2"/>
		<path d="m16.6 15l0.1 0.1v-2s-0.1 0-0.1-0.1v2z" fill="#73C6A1"/>
		<path d="m16.7 15.1l0.1 0.1v-2s-0.1 0-0.1-0.1v2z" fill="#74C7A1"/>
		<path d="m16.8 15.2l0.1 0.1v-2.1s-0.1 0-0.1-0.1v2.1z" fill="#76C7A1"/>
		<path d="m16.9 15.3l0.1 0.1v-2.1s-0.1 0-0.1-0.1v2.1z" fill="#77C7A1"/>
		<path d="m17 15.4l0.1 0.1v-2.2s-0.1 0-0.1-0.1v2.2z" fill="#78C7A1"/>
		<path d="m17.1 15.5l0.1 0.1v-2.2s-0.1 0-0.1-0.1v2.2z" fill="#79C8A1"/>
		<path d="m17.2 15.5l0.1 0.1v-2.2s-0.1 0-0.1-0.1v2.2z" fill="#7AC8A1"/>
		<path d="m17.3 15.6l0.1 0.1v-2.3s-0.1 0-0.1-0.1v2.3z" fill="#7BC8A0"/>
		<path d="m17.4 15.7l0.1 0.1v-2.3s-0.1 0-0.1-0.1v2.3z" fill="#7DC9A0"/>
		<path d="m17.5 15.8l0.1 0.1v-2.4s-0.1 0-0.1-0.1v2.4z" fill="#7EC9A0"/>
		<path d="m17.6 15.9l0.1 0.1v-2.4s-0.1 0-0.1-0.1v2.4z" fill="#7FC9A0"/>
		<path d="m17.7 16l0.1 0.1v-2.4s-0.1 0-0.1-0.1v2.4z" fill="#80CAA0"/>
		<path d="m17.8 16.1l0.1 0.1v-2.5s-0.1 0-0.1-0.1v2.5z" fill="#81CAA0"/>
		<path d="m17.9 16.2l0.1 0.1v-2.5s-0.1 0-0.1-0.1v2.5z" fill="#82CAA0"/>
		<path d="m18 16.3l0.1 0.1v-2.6s-0.1 0-0.1-0.1v2.6z" fill="#84CA9F"/>
		<path d="m18.1 16.4l0.1 0.1v-2.6s-0.1 0-0.1-0.1v2.6z" fill="#85CB9F"/>
		<path d="m18.2 16.5l0.1 0.1v-2.6s-0.1 0-0.1-0.1v2.6z" fill="#86CB9F"/>
		<path d="m18.4 16.6l0.1 0.1v-2.7s-0.1 0-0.1-0.1v2.7z" fill="#87CB9F"/>
		<path d="m18.5 16.7l0.1 0.1v-2.7s-0.1 0-0.1-0.1v2.7z" fill="#88CC9F"/>
		<path d="m18.6 16.8l0.1 0.1v-2.8s-0.1 0-0.1-0.1v2.8z" fill="#89CC9F"/>
		<path d="m18.7 16.9l0.1 0.1v-2.8s-0.1 0-0.1-0.1v2.8z" fill="#8ACC9E"/>
		<path d="m18.8 17l0.1 0.1v-2.9s-0.1 0-0.1-0.1v2.9z" fill="#8BCD9E"/>
		<path d="m18.9 17.1l0.1 0.1v-2.9s-0.1 0-0.1-0.1v2.9z" fill="#8DCD9E"/>
		<path d="m19 17.2l0.1 0.1v-2.9s-0.1 0-0.1-0.1v2.9z" fill="#8ECD9E"/>
		<path d="m19.1 17.3l0.1 0.1v-3s-0.1 0-0.1-0.1v3z" fill="#8FCD9E"/>
		<path d="m19.2 17.4l0.1 0.1v-3s-0.1 0-0.1-0.1v3z" fill="#90CE9E"/>
		<path d="m19.3 17.5l0.1 0.1v-3.1s-0.1 0-0.1-0.1v3.1z" fill="#91CE9E"/>
		<path d="m19.4 17.6l0.1 0.1v-3.1s-0.1 0-0.1-0.1v3.1z" fill="#92CE9D"/>
		<path d="m19.5 17.7l0.1 0.1v-3.2s-0.1 0-0.1-0.1v3.2z" fill="#93CF9D"/>
		<path d="m19.6 17.8l0.1 0.1v-3.2s-0.1 0-0.1-0.1v3.2z" fill="#94CF9D"/>
		<path d="m19.7 17.9l0.1 0.1v-3.2s-0.1 0-0.1-0.1v3.2z" fill="#95CF9D"/>
		<path d="m19.8 18l0.1 0.1v-3.3s-0.1 0-0.1-0.1v3.3z" fill="#96D09D"/>
		<path d="m19.9 18.1l0.1 0.1v-3.3s-0.1 0-0.1-0.1v3.3z" fill="#97D09D"/>
		<path d="m20 18.2l0.1 0.1v-3.3s-0.1 0-0.1-0.1v3.3z" fill="#99D09C"/>
		<path d="m20.1 18.3l0.1 0.1v-3.4s-0.1 0-0.1-0.1v3.4z" fill="#9AD19C"/>
		<path d="m20.2 18.4l0.1 0.1v-3.4s-0.1 0-0.1-0.1v3.4z" fill="#9BD19C"/>
		<path d="m20.3 18.5l0.1 0.1v-3.5s-0.1 0-0.1-0.1v3.5z" fill="#9CD19C"/>
		<path d="m20.4 18.6l0.1 0.1v-3.5s-0.1 0-0.1-0.1v3.5z" fill="#9DD29C"/>
		<path d="m20.5 18.7l0.1 0.1v-3.6s-0.1 0-0.1-0.1v3.6z" fill="#9ED29C"/>
		<path d="m20.6 18.8l0.1 0.1v-3.6s-0.1 0-0.1-0.1v3.6z" fill="#9FD29C"/>
		<path d="m20.7 18.9l0.1 0.1v-3.7s-0.1 0-0.1-0.1v3.7z" fill="#A0D39B"/>
		<path d="m20.8 19l0.1 0.1v-3.7s-0.1 0-0.1-0.1v3.7z" fill="#A1D39B"/>
		<path d="m20.9 19.1l0.1 0.1v-3.7s-0.1 0-0.1-0.1v3.7z" fill="#A2D39B"/>
		<path d="m21 19.2l0.1 0.1v-3.8s-0.1 0-0.1-0.1v3.8z" fill="#A3D49B"/>
		<path d="m21.1 19.3l0.1 0.1v-3.8s-0.1 0-0.1-0.1v3.8z" fill="#A4D49B"/>
		<path d="m21.2 19.4l0.1 0.1v-3.9s-0.1 0-0.1-0.1v3.9z" fill="#A5D49B"/>
		<path d="m21.3 19.5l0.1 0.1v-3.9s-0.1 0-0.1-0.1v3.9z" fill="#A6D59A"/>
		<path d="m21.4 19.6l0.1 0.1v-3.9s-0.1 0-0.1-0.1v3.9z" fill="#A7D59A"/>
		<path d="m21.5 19.7l0.1 0.1v-4s-0.1 0-0.1-0.1v4z" fill="#A8D59A"/>
		<path d="m21.6 19.8l0.1 0.1v-4h-0.1v3.9z" fill="#AAD69A"/>
		<polygon points="21.7 19.9 21.7 19.9 21.8 20 21.8 16 21.7 15.9 21.7 15.9" fill="#ABD69A"/>
		<polygon points="21.8 20 21.9 20.1 21.9 16 21.8 16" fill="#ACD69A"/>
		<polygon points="21.9 20.1 21.9 20.1 22 20.2 22 16.1 21.9 16" fill="#ADD799"/>
		<polygon points="22 20.2 22.1 20.3 22.1 16.1 22 16.1" fill="#AED799"/>
		<polygon points="22.1 20.3 22.1 20.4 22.2 20.4 22.2 16.2 22.1 16.1" fill="#AFD799"/>
		<polygon points="22.2 20.4 22.3 20.5 22.3 16.2 22.2 16.2" fill="#B0D899"/>
		<polygon points="22.3 20.5 22.3 20.6 22.4 20.6 22.4 16.3 22.3 16.2" fill="#B1D899"/>
		<polygon points="22.4 20.6 22.5 20.7 22.5 16.4 22.4 16.3" fill="#B2D899"/>
		<polygon points="22.5 20.7 22.5 20.8 22.6 20.8 22.6 16.4 22.5 16.4" fill="#B3D998"/>
		<polygon points="22.6 20.8 22.7 20.9 22.7 16.5 22.6 16.4" fill="#B4D998"/>
		<polygon points="22.7 20.9 22.7 21 22.8 21 22.8 16.5 22.7 16.5" fill="#B5D998"/>
		<polygon points="22.8 21 22.9 21.1 22.9 16.6 22.8 16.5" fill="#B6DA98"/>
		<polygon points="22.9 21.1 22.9 21.2 23 21.2 23 16.7 22.9 16.6" fill="#B7DA98"/>
		<polygon points="23 21.2 23.1 21.3 23.1 16.7 23 16.7" fill="#B8DA98"/>
		<polygon points="23.1 21.3 23.1 21.4 23.2 21.4 23.2 16.8 23.1 16.7" fill="#B9DB97"/>
		<polygon points="23.2 21.4 23.2 21.5 23.3 21.4 23.3 16.8 23.2 16.8" fill="#BADB97"/>
		<polygon points="23.3 21.4 23.3 21.4 23.3 21.3 23.4 21.3 23.4 16.9 23.3 16.8" fill="#BBDB97"/>
		<polygon points="23.4 21.3 23.4 21.3 23.5 21.2 23.5 16.9 23.4 16.9" fill="#BCDC97"/>
		<polygon points="23.5 21.2 23.5 21.2 23.6 21.1 23.6 21.1 23.6 17 23.5 16.9" fill="#BDDC97"/>
		<polygon points="23.6 21.1 23.6 21 23.7 21 23.7 17.1 23.6 17" fill="#BEDC96"/>
		<polygon points="23.7 21 23.7 21 23.8 20.9 23.8 20.9 23.8 17.1 23.7 17.1" fill="#BFDD96"/>
		<polygon points="23.8 20.9 23.8 20.8 23.9 20.8 23.9 17.2 23.8 17.1" fill="#C0DD96"/>
		<polygon points="23.9 20.8 23.9 20.8 24 20.7 24 20.7 24 17.2 23.9 17.2" fill="#C1DD96"/>
		<polygon points="24 20.7 24 20.6 24.1 20.6 24.1 17.3 24 17.2" fill="#C2DE96"/>
		<polygon points="24.1 20.6 24.1 20.6 24.2 20.5 24.2 17.3 24.1 17.3" fill="#C3DE96"/>
		<polygon points="24.2 20.5 24.2 20.5 24.2 20.4 24.3 20.4 24.3 17.4 24.2 17.3" fill="#C4DE95"/>
		<polygon points="24.3 20.4 24.3 20.4 24.4 20.3 24.4 17.5 24.3 17.4" fill="#C5DF95"/>
		<polygon points="24.4 20.3 24.4 20.3 24.4 20.2 24.5 20.2 24.5 17.5 24.4 17.5" fill="#C6DF95"/>
		<polygon points="24.5 20.2 24.5 20.2 24.6 20.1 24.6 17.6 24.5 17.5" fill="#C7E095"/>
		<polygon points="24.6 20.1 24.6 20.1 24.7 20 24.7 20 24.7 17.6 24.6 17.6" fill="#C8E095"/>
		<polygon points="24.7 20 24.7 19.9 24.8 19.9 24.8 17.7 24.7 17.6" fill="#C9E094"/>
		<polygon points="24.8 19.9 24.8 19.9 24.9 19.8 24.9 19.8 24.9 17.8 24.8 17.7" fill="#CAE194"/>
		<polygon points="24.9 19.8 24.9 19.7 25 19.7 25 17.8 24.9 17.8" fill="#CBE194"/>
		<polygon points="25 19.7 25 19.7 25.1 19.6 25.1 19.6 25.1 17.9 25 17.8" fill="#CCE194"/>
		<polygon points="25.1 19.6 25.1 19.5 25.2 19.5 25.2 17.9 25.1 17.9" fill="#CDE294"/>
		<polygon points="25.2 19.5 25.2 19.5 25.3 19.4 25.3 18 25.2 17.9" fill="#CEE293"/>
		<polygon points="25.3 19.4 25.3 19.4 25.3 19.3 25.4 19.3 25.4 18 25.3 18" fill="#CFE293"/>
		<polygon points="25.4 19.3 25.4 19.3 25.5 19.2 25.5 18.1 25.4 18" fill="#D0E393"/>
		<polygon points="25.5 19.2 25.5 19.2 25.6 19.1 25.6 19.1 25.6 18.2 25.5 18.1" fill="#D1E393"/>
		<polygon points="25.6 19.1 25.6 19.1 25.7 19 25.7 18.2 25.6 18.2" fill="#D2E393"/>
		<polygon points="25.7 19 25.7 19 25.8 18.9 25.8 18.9 25.8 18.3 25.7 18.2" fill="#D3E493"/>
		<polygon points="25.8 18.9 25.8 18.9 25.9 18.8 25.9 18.3 25.8 18.3" fill="#D4E492"/>
		<polygon points="25.9 18.8 25.9 18.8 26 18.7 26 18.7 26 18.4 25.9 18.3" fill="#D5E492"/>
		<polygon points="26 18.7 26 18.6 26.1 18.6 26.1 18.4 26 18.4" fill="#D6E592"/>
		<polygon points="26.1 18.6 26.1 18.6 26.2 18.5 26.1 18.4" fill="#D7E592"/>
		<polygon points="23.3 21.5 23.2 21.5 23.2 21.5 23.1 21.5" fill="#EF433E"/>
		<polygon points="23.3 21.6 23.3 21.5 23.3 21.5 23.1 21.5 23.1 21.6 23.1 21.6" fill="#EE433F"/>
		<polygon points="23.4 21.6 23.3 21.6 23.3 21.6 23.1 21.6 23 21.6" fill="#EE4340"/>
		<polygon points="23.4 21.7 23.4 21.7 23.4 21.6 23 21.6 23 21.7" fill="#ED4340"/>
		<polygon points="23.5 21.7 23.4 21.7 23 21.7 22.9 21.7" fill="#EC4341"/>
		<polygon points="23.5 21.8 23.5 21.7 23.5 21.7 22.9 21.7 22.9 21.8 22.9 21.8" fill="#EC4342"/>
		<polygon points="23.6 21.8 23.6 21.8 23.5 21.8 22.9 21.8 22.8 21.8" fill="#EB4442"/>
		<polygon points="23.6 21.9 23.6 21.9 23.6 21.8 22.8 21.8 22.8 21.9" fill="#EA4443"/>
		<polygon points="23.7 22 23.7 21.9 23.6 21.9 22.8 21.9 22.7 22" fill="#EA4444"/>
		<polygon points="23.8 22 23.7 22 22.7 22 22.7 22 22.7 22" fill="#E94444"/>
		<polygon points="23.8 22.1 23.8 22 23.8 22 22.7 22 22.6 22.1" fill="#E94445"/>
		<polygon points="23.9 22.1 23.8 22.1 23.8 22.1 22.6 22.1 22.5 22.1" fill="#E84446"/>
		<polygon points="23.9 22.2 23.9 22.1 23.9 22.1 22.5 22.1 22.5 22.2 22.5 22.2" fill="#E84446"/>
		<polygon points="24 22.2 24 22.2 23.9 22.2 22.5 22.2 22.4 22.2" fill="#E74447"/>
		<polygon points="24 22.3 24 22.2 22.4 22.2 22.4 22.3" fill="#E74448"/>
		<polygon points="24.1 22.3 24 22.3 24 22.3 22.4 22.3 22.3 22.3" fill="#E64448"/>
		<polygon points="24.1 22.4 24.1 22.4 24.1 22.3 22.3 22.3 22.3 22.4 22.3 22.4" fill="#E64449"/>
		<polygon points="24.2 22.4 24.2 22.4 24.1 22.4 22.3 22.4 22.2 22.4" fill="#E6444A"/>
		<polygon points="24.3 22.5 24.2 22.5 24.2 22.4 22.2 22.4 22.2 22.5" fill="#E5444A"/>
		<polygon points="24.3 22.6 24.3 22.5 22.2 22.5 22.1 22.6" fill="#E5444B"/>
		<polygon points="24.4 22.6 24.3 22.6 24.3 22.6 22.1 22.6 22.1 22.6 22 22.6" fill="#E4444B"/>
		<polygon points="24.4 22.7 24.4 22.6 24.4 22.6 22 22.6 22 22.7" fill="#E4444C"/>
		<polygon points="24.5 22.7 24.5 22.7 24.4 22.7 22 22.7 21.9 22.7" fill="#E3444D"/>
		<polygon points="24.5 22.8 24.5 22.8 24.5 22.7 21.9 22.7 21.9 22.8 21.9 22.8" fill="#E3444D"/>
		<polygon points="24.6 22.8 24.5 22.8 21.9 22.8 21.8 22.8" fill="#E2454E"/>
		<polygon points="24.6 22.9 24.6 22.8 24.6 22.8 21.8 22.8 21.8 22.9" fill="#E2454E"/>
		<polygon points="24.7 22.9 24.7 22.9 24.6 22.9 21.8 22.9 21.7 22.9" fill="#E2454F"/>
		<polygon points="24.8 23 24.7 23 24.7 22.9 21.7 22.9 21.7 23 21.7 23" fill="#E1454F"/>
		<polygon points="24.8 23 24.8 23 24.8 23 21.7 23 21.6 23" fill="#E14550"/>
		<polygon points="24.9 23.1 24.8 23 21.6 23 21.5 23.1" fill="#E04550"/>
		<polygon points="24.9 23.2 24.9 23.1 24.9 23.1 21.5 23.1 21.5 23.2" fill="#E04551"/>
		<polygon points="25 23.2 24.9 23.2 24.9 23.2 21.5 23.2 21.5 23.2 21.4 23.2" fill="#DF4552"/>
		<polygon points="25 23.3 25 23.2 25 23.2 21.4 23.2 21.4 23.3" fill="#DF4552"/>
		<polygon points="25.1 23.3 25.1 23.3 25 23.3 21.4 23.3 21.3 23.3" fill="#DE4553"/>
		<polygon points="25.1 23.4 25.1 23.3 21.3 23.3 21.3 23.4 21.3 23.4" fill="#DE4553"/>
		<polygon points="25.2 23.4 25.1 23.4 25.1 23.4 21.3 23.4 21.2 23.4" fill="#DE4554"/>
		<polygon points="25.2 23.5 25.2 23.4 25.2 23.4 21.2 23.4 21.2 23.5" fill="#DD4554"/>
		<polygon points="25.3 23.5 25.3 23.5 25.2 23.5 21.2 23.5 21.1 23.5" fill="#DD4555"/>
		<polygon points="25.4 23.6 25.3 23.6 25.3 23.5 21.1 23.5 21.1 23.6 21.1 23.6" fill="#DC4555"/>
		<polygon points="25.4 23.6 25.4 23.6 21.1 23.6 21 23.6" fill="#DC4556"/>
		<polygon points="25.5 23.7 25.4 23.7 25.4 23.6 21 23.6 20.9 23.7" fill="#DB4556"/>
		<polygon points="25.5 23.8 25.5 23.7 25.5 23.7 20.9 23.7 20.9 23.8" fill="#DB4557"/>
		<polygon points="25.6 23.8 25.6 23.8 25.5 23.8 20.9 23.8 20.9 23.8 20.8 23.8" fill="#DA4557"/>
		<polygon points="25.6 23.9 25.6 23.9 25.6 23.8 20.8 23.8 20.8 23.9" fill="#DA4558"/>
		<polygon points="25.7 23.9 25.6 23.9 20.8 23.9 20.7 23.9" fill="#DA4658"/>
		<polygon points="25.7 24 25.7 23.9 25.7 23.9 20.7 23.9 20.7 24" fill="#D94659"/>
		<polygon points="25.8 24 25.8 24 25.7 24 20.7 24 20.7 24 20.6 24" fill="#D94659"/>
		<polygon points="25.9 24.1 25.8 24.1 25.8 24 20.6 24 20.6 24.1" fill="#D8465A"/>
		<polygon points="25.9 24.1 25.9 24.1 25.9 24.1 20.6 24.1 20.5 24.1" fill="#D8465A"/>
		<polygon points="26 24.2 25.9 24.1 20.5 24.1 20.5 24.2 20.4 24.2" fill="#D7465B"/>
		<polygon points="26 24.3 26 24.2 26 24.2 20.4 24.2 20.4 24.3" fill="#D7465B"/>
		<polygon points="26.1 24.3 26 24.3 26 24.3 20.4 24.3 20.3 24.3" fill="#D6465C"/>
		<polygon points="20.3 24.3 20.3 24.4 26.1 24.4 26.1 24.3 26.1 24.3" fill="#D6465C"/>
		<polygon points="20.3 24.4 20.3 24.4 20.2 24.4 26.2 24.4 26.2 24.4 26.1 24.4" fill="#D6465D"/>
		<polygon points="20.2 24.4 20.2 24.5 26.1 24.5 26.2 24.4" fill="#D5465D"/>
		<polygon points="20.2 24.5 20.1 24.5 26 24.5 26.1 24.5" fill="#D5465E"/>
		<polygon points="20.1 24.5 20.1 24.6 25.9 24.6 26 24.5" fill="#D4465E"/>
		<polygon points="20.1 24.6 20.1 24.6 20 24.6 25.8 24.6 25.9 24.6" fill="#D4465F"/>
		<polygon points="20 24.6 19.9 24.7 25.7 24.7 25.8 24.6" fill="#D3465F"/>
		<polygon points="19.9 24.7 19.9 24.7 25.6 24.7 25.7 24.7" fill="#D34660"/>
		<polygon points="19.9 24.7 19.8 24.8 19.8 24.8 25.5 24.8 25.6 24.7" fill="#D24660"/>
		<polygon points="19.8 24.8 19.8 24.9 25.4 24.9 25.5 24.8" fill="#D24661"/>
		<polygon points="19.8 24.9 19.7 24.9 25.3 24.9 25.4 24.9" fill="#D24661"/>
		<polygon points="19.7 24.9 19.7 25 25.2 25 25.3 24.9" fill="#D14662"/>
		<polygon points="19.7 25 19.6 25 19.6 25 25.1 25 25.2 25" fill="#D14662"/>
		<polygon points="19.6 25 19.6 25.1 25 25.1 25.1 25" fill="#D04762"/>
		<polygon points="19.6 25.1 19.5 25.1 24.9 25.1 25 25.1" fill="#D04763"/>
		<polygon points="19.5 25.1 19.4 25.2 24.8 25.2 24.9 25.1" fill="#CF4763"/>
		<polygon points="19.4 25.2 19.4 25.2 19.4 25.2 24.7 25.2 24.8 25.2" fill="#CF4764"/>
		<polygon points="19.4 25.2 19.3 25.3 24.6 25.3 24.7 25.2" fill="#CF4764"/>
		<polygon points="19.3 25.3 19.3 25.3 24.6 25.3 24.6 25.3" fill="#CE4765"/>
		<polygon points="19.3 25.3 19.2 25.4 19.2 25.4 24.5 25.4 24.6 25.3" fill="#CE4765"/>
		<polygon points="19.2 25.4 19.2 25.5 24.4 25.5 24.5 25.4" fill="#CD4766"/>
		<polygon points="19.2 25.5 19.1 25.5 24.3 25.5 24.4 25.5" fill="#CD4766"/>
		<polygon points="19.1 25.5 19.1 25.6 24.2 25.6 24.3 25.5" fill="#CC4767"/>
		<polygon points="19.1 25.6 19 25.6 19 25.6 24.1 25.6 24.2 25.6" fill="#CC4767"/>
		<polygon points="19 25.6 19 25.7 24 25.7 24.1 25.6" fill="#CC4768"/>
		<polygon points="19 25.7 18.9 25.7 23.9 25.7 24 25.7" fill="#CB4768"/>
		<polygon points="18.9 25.7 18.8 25.8 23.8 25.8 23.9 25.7" fill="#CB4769"/>
		<polygon points="18.8 25.8 18.8 25.8 18.8 25.8 23.7 25.8 23.8 25.8" fill="#CA4769"/>
		<polygon points="18.8 25.8 18.7 25.9 23.6 25.9 23.7 25.8" fill="#CA476A"/>
		<polygon points="18.7 25.9 18.7 25.9 23.5 25.9 23.6 25.9" fill="#C9476A"/>
		<polygon points="18.7 25.9 18.6 26 18.6 26 23.4 26 23.5 25.9" fill="#C9476A"/>
		<polygon points="18.6 26 18.6 26.1 23.3 26.1 23.4 26" fill="#C9476B"/>
		<polygon points="18.6 26.1 18.5 26.1 23.2 26.1 23.3 26.1" fill="#C8476B"/>
		<polygon points="18.5 26.1 18.5 26.2 23.1 26.2 23.2 26.1" fill="#C8476C"/>
		<polygon points="18.4 26.2 18.4 26.2 23 26.2 23.1 26.2 18.5 26.2" fill="#C7476C"/>
		<polygon points="18.3 26.3 22.9 26.3 23 26.2 18.4 26.2" fill="#C7476D"/>
		<polygon points="18.3 26.3 22.8 26.3 22.9 26.3" fill="#C7476D"/>
		<polygon points="18.2 26.4 22.8 26.4 22.8 26.3 18.3 26.3" fill="#C6476E"/>
		<polygon points="18.2 26.4 18.2 26.4 22.7 26.4 22.8 26.4" fill="#C6476E"/>
		<polygon points="18.1 26.5 22.6 26.5 22.7 26.4 18.2 26.4" fill="#C5476F"/>
		<polygon points="18.1 26.6 22.5 26.6 22.6 26.5 18.1 26.5" fill="#C5476F"/>
		<polygon points="18 26.6 18 26.6 22.4 26.6 22.5 26.6 18.1 26.6" fill="#C44770"/>
		<polygon points="18 26.7 22.3 26.7 22.4 26.6 18 26.6" fill="#C44770"/>
		<polygon points="17.9 26.7 22.2 26.7 22.3 26.7 18 26.7" fill="#C44770"/>
		<polygon points="17.8 26.8 22.1 26.8 22.2 26.7 17.9 26.7" fill="#C34771"/>
		<polygon points="17.8 26.8 17.8 26.8 22 26.8 22.1 26.8" fill="#C34771"/>
		<polygon points="17.7 26.9 21.9 26.9 22 26.8 17.8 26.8" fill="#C24772"/>
		<polygon points="17.7 26.9 21.8 26.9 21.9 26.9" fill="#C24872"/>
		<polygon points="17.6 27 21.7 27 21.7 27 21.8 26.9 17.7 26.9" fill="#C14873"/>
		<path d="m17.6 27h4c0.1 0 0.1-0.1 0.1-0.1l-4.1 0.1z" fill="#C14873"/>
		<path d="m17.5 27.1h4s0.1 0 0.1-0.1l-4.1 0.1z" fill="#C14874"/>
		<path d="m17.5 27.2h4s0.1 0 0.1-0.1l-4.1 0.1z" fill="#C04874"/>
		<path d="m17.4 27.2h3.9s0.1 0 0.1-0.1l-4 0.1z" fill="#C04875"/>
		<path d="m17.3 27.3h3.9s0.1 0 0.1-0.1l-4 0.1z" fill="#BF4875"/>
		<path d="m17.3 27.3h3.8s0.1 0 0.1-0.1l-3.9 0.1z" fill="#BF4875"/>
		<path d="m17.2 27.4h3.8s0.1 0 0.1-0.1l-3.9 0.1z" fill="#BE4876"/>
		<path d="m17.2 27.4h3.7s0.1 0 0.1-0.1l-3.8 0.1z" fill="#BE4876"/>
		<path d="m17.1 27.5h3.7s0.1 0 0.1-0.1l-3.8 0.1z" fill="#BE4877"/>
		<path d="m17.1 27.5h3.7s0.1 0 0.1-0.1l-3.8 0.1z" fill="#BD4877"/>
		<path d="m17 27.6h3.6s0.1 0 0.1-0.1l-3.7 0.1z" fill="#BD4878"/>
		<path d="m17 27.6h3.6s0.1 0 0.1-0.1l-3.7 0.1z" fill="#BC4878"/>
		<path d="m16.9 27.7h3.6s0.1 0 0.1-0.1l-3.7 0.1z" fill="#BC4879"/>
		<path d="m16.9 27.8h3.5s0.1 0 0.1-0.1l-3.6 0.1z" fill="#BC4879"/>
		<path d="m16.8 27.8h3.5s0.1 0 0.1-0.1l-3.6 0.1z" fill="#BB4879"/>
		<path d="m16.7 27.9h3.4s0.1 0 0.1-0.1l-3.5 0.1z" fill="#BB487A"/>
		<path d="m16.7 27.9h3.4s0.1 0 0.1-0.1l-3.5 0.1z" fill="#BA487A"/>
		<path d="m16.6 28h3.4s0.1 0 0.1-0.1l-3.5 0.1z" fill="#BA487B"/>
		<path d="m16.6 28h3.3s0.1 0 0.1-0.1l-3.4 0.1z" fill="#B9487B"/>
		<path d="m16.5 28.1h3.3s0.1 0 0.1-0.1l-3.4 0.1z" fill="#B9487C"/>
		<path d="m16.5 28.1h3.2s0.1 0 0.1-0.1l-3.3 0.1z" fill="#B9487C"/>
		<path d="m16.4 28.2h3.2s0.1 0 0.1-0.1l-3.3 0.1z" fill="#B8487C"/>
		<path d="m16.4 28.2h3.1s0.1 0 0.1-0.1l-3.2 0.1z" fill="#B8487D"/>
		<path d="m16.3 28.3h3.1s0.1 0 0.1-0.1l-3.2 0.1z" fill="#B7487D"/>
		<path d="m16.2 28.4h3.1s0.1 0 0.1-0.1l-3.2 0.1z" fill="#B7487E"/>
		<path d="m16.2 28.4h3s0.1 0 0.1-0.1l-3.1 0.1z" fill="#B7487E"/>
		<path d="m16.1 28.5h3s0.1 0 0.1-0.1l-3.1 0.1z" fill="#B6487F"/>
		<path d="m16.1 28.5h3s0.1 0 0.1-0.1l-3.1 0.1z" fill="#B6487F"/>
		<path d="m16 28.6h3s0.1 0 0.1-0.1l-3.1 0.1z" fill="#B5487F"/>
		<path d="m16 28.6h2.9s0.1 0 0.1-0.1l-3 0.1z" fill="#B54880"/>
		<path d="m15.9 28.7h2.9s0.1 0 0.1-0.1l-3 0.1z" fill="#B44880"/>
		<path d="m15.9 28.7h2.8s0.1 0 0.1-0.1l-2.9 0.1z" fill="#B44881"/>
		<path d="m15.8 28.8h2.8s0.1 0 0.1-0.1l-2.9 0.1z" fill="#B44881"/>
		<path d="m15.8 28.8h2.7s0.1 0 0.1-0.1l-2.8 0.1z" fill="#B34881"/>
		<path d="m15.7 28.9h2.7s0.1 0 0.1-0.1l-2.8 0.1z" fill="#B34882"/>
		<path d="m15.6 29h2.7s0.1 0 0.1-0.1l-2.8 0.1z" fill="#B24882"/>
		<path d="m15.6 29h2.6s0.1 0 0.1-0.1l-2.7 0.1z" fill="#B24883"/>
		<path d="m15.6 29l2.5 0.1s0.1 0 0.1-0.1h-2.6z" fill="#B24883"/>
		<path d="m15.5 29.1h2.5s0.1 0 0.1-0.1l-2.6 0.1z" fill="#B14884"/>
		<path d="m15.4 29.2h2.5s0.1 0 0.1-0.1l-2.6 0.1z" fill="#B14884"/>
		<path d="m15.4 29.2h2.4s0.1 0 0.1-0.1l-2.5 0.1z" fill="#B04884"/>
		<path d="m15.3 29.3h2.4s0.1 0 0.1-0.1l-2.5 0.1z" fill="#B04885"/>
		<path d="m15.3 29.3h2.4s0.1 0 0.1-0.1l-2.5 0.1z" fill="#B04885"/>
		<path d="m15.2 29.4h2.3s0.1 0 0.1-0.1l-2.4 0.1z" fill="#AF4886"/>
		<path d="m15.2 29.4h2.3s0.1 0 0.1-0.1l-2.4 0.1z" fill="#AF4886"/>
		<path d="m15.1 29.5h2.3s0.1 0 0.1-0.1l-2.4 0.1z" fill="#AE4886"/>
		<path d="m15 29.6h2.2s0.1 0 0.1-0.1l-2.3 0.1z" fill="#AE4887"/>
		<path d="m15 29.6h2.2s0.1 0 0.1-0.1l-2.3 0.1z" fill="#AD4887"/>
		<path d="m15 29.6l2.1 0.1s0.1 0 0.1-0.1h-2.2z" fill="#AD4888"/>
		<path d="m14.9 29.7h2.1s0.1 0 0.1-0.1l-2.2 0.1z" fill="#AD4888"/>
		<path d="m14.8 29.8h2.1s0.1 0 0.1-0.1l-2.2 0.1z" fill="#AC4888"/>
		<path d="m14.8 29.8h2s0.1 0 0.1-0.1l-2.1 0.1z" fill="#AC4889"/>
		<path d="m14.7 29.9h2s0.1 0 0.1-0.1l-2.1 0.1z" fill="#AB4889"/>
		<path d="m14.6 29.9h1.9s0.1 0 0.1-0.1l-2 0.1z" fill="#AB488A"/>
		<path d="m14.6 30h1.9s0.1 0 0.1-0.1l-2 0.1z" fill="#AB488A"/>
		<path d="m14.6 30h1.8s0.1 0 0.1-0.1l-1.9 0.1z" fill="#AA488A"/>
		<path d="m14.5 30.1h1.8s0.1 0 0.1-0.1l-1.9 0.1z" fill="#AA488B"/>
		<path d="m14.4 30.2h1.8s0.1 0 0.1-0.1l-1.9 0.1z" fill="#A9488B"/>
		<path d="m14.4 30.2h1.7s0.1 0 0.1-0.1l-1.8 0.1z" fill="#A9488B"/>
		<path d="m14.4 30.2l1.7 0.1s0.1 0 0.1-0.1h-1.8z" fill="#A9488C"/>
		<path d="m14.3 30.3h1.7s0.1 0 0.1-0.1l-1.8 0.1z" fill="#A8488C"/>
		<path d="m14.2 30.4h1.6s0.1 0 0.1-0.1l-1.7 0.1z" fill="#A8488D"/>
		<path d="m14.2 30.4h1.6s0.1 0 0.1-0.1l-1.7 0.1z" fill="#A7488D"/>
		<path d="m14.1 30.5h1.5s0.1 0 0.1-0.1l-1.6 0.1z" fill="#A7488D"/>
		<path d="m14 30.6h1.5s0.1 0 0.1-0.1l-1.6 0.1z" fill="#A7498E"/>
		<path d="m14 30.6h1.5s0.1 0 0.1-0.1l-1.6 0.1z" fill="#A6498E"/>
		<path d="m14 30.6h1.4s0.1 0 0.1-0.1l-1.5 0.1z" fill="#A6498F"/>
		<path d="m13.9 30.7h1.4s0.1 0 0.1-0.1l-1.5 0.1z" fill="#A5498F"/>
		<path d="m13.8 30.8h1.3s0.1 0 0.1-0.1l-1.4 0.1z" fill="#A5498F"/>
		<path d="m13.8 30.8h1.3s0.1 0 0.1-0.1l-1.4 0.1z" fill="#A54990"/>
		<path d="m13.8 30.8h1.2s0.1 0 0.1-0.1l-1.3 0.1z" fill="#A44990"/>
		<path d="m13.6 30.9h1.2s0.1 0 0.1-0.1l-1.3 0.1z" fill="#A44991"/>
		<path d="m13.6 31h1.2s0.1 0 0.1-0.1l-1.3 0.1z" fill="#A34991"/>
		<path d="m13.5 31h1.1s0.1 0 0.1-0.1l-1.2 0.1z" fill="#A34991"/>
		<path d="m13.5 31.1h1.1s0.1 0 0.1-0.1l-1.2 0.1z" fill="#A34992"/>
		<path d="m13.4 31.2h1.1s0.1 0 0.1-0.1l-1.2 0.1z" fill="#A24992"/>
		<path d="m13.4 31.2h1s0.1 0 0.1-0.1l-1.1 0.1z" fill="#A24992"/>
		<path d="m13.3 31.2h1s0.1 0 0.1-0.1l-1.1 0.1z" fill="#A14993"/>
		<path d="m13.3 31.3h0.9s0.1 0 0.1-0.1l-1 0.1z" fill="#A14993"/>
		<path d="m13.2 31.4h0.9s0.1 0 0.1-0.1l-1 0.1z" fill="#A14994"/>
		<path d="m13.2 31.4h0.8s0.1 0 0.1-0.1l-0.9 0.1z" fill="#A04994"/>
		<path d="m13.1 31.4h0.8s0.1 0 0.1-0.1l-0.9 0.1z" fill="#A04994"/>
		<path d="m13 31.5h0.8s0.1 0 0.1-0.1l-0.9 0.1z" fill="#A04995"/>
		<path d="m13 31.6h0.8s0.1 0 0.1-0.1l-0.9 0.1z" fill="#9F4995"/>
		<path d="m12.9 31.6h0.7s0.1 0 0.1-0.1l-0.8 0.1z" fill="#9F4995"/>
		<path d="m12.9 31.7h0.7s0.1 0 0.1-0.1l-0.8 0.1z" fill="#9E4996"/>
		<path d="m12.8 31.8h0.6s0.1 0 0.1-0.1l-0.7 0.1z" fill="#9E4996"/>
		<path d="m12.8 31.8h0.6s0.1 0 0.1-0.1l-0.7 0.1z" fill="#9E4996"/>
		<path d="m12.7 31.8h0.5s0.1 0 0.1-0.1l-0.6 0.1z" fill="#9D4997"/>
		<path d="m12.7 31.9h0.5s0.1 0 0.1-0.1l-0.6 0.1z" fill="#9D4997"/>
		<path d="m12.6 32h0.5s0.1 0 0.1-0.1l-0.6 0.1z" fill="#9D4998"/>
		<path d="m12.5 32h0.5s0.1 0 0.1-0.1l-0.6 0.1z" fill="#9C4998"/>
		<path d="m12.5 32h0.3s0.1 0 0.1-0.1l-0.4 0.1z" fill="#9C4998"/>
		<path d="m12.4 32.1h0.3c0.1 0 0.1 0 0.2-0.1l-0.5 0.1z" fill="#9C4999"/>
		<path d="m12.4 32.2h0.3-0.3z" fill="#9B4999"/>
		<path d="m26.3 18.6c-0.1 0-0.1-0.1-0.1-0.1l-0.1 0.1h0.2z" fill="#F5877B"/>
		<path d="m26.1 18.6l0.3 0.1s-0.1 0-0.1-0.1h-0.2z" fill="#F5887B"/>
		<path d="m26 18.6l0.5 0.1s-0.1 0-0.1-0.1h-0.4z" fill="#F5897B"/>
		<path d="m26 18.7l0.7 0.1s-0.1 0-0.1-0.1h-0.6z" fill="#F5897B"/>
		<path d="m25.9 18.8l0.9 0.1s-0.1 0-0.1-0.1h-0.8z" fill="#F58A7A"/>
		<path d="m25.8 18.9l1.1 0.1s-0.1 0-0.1-0.1h-1z" fill="#F58B7A"/>
		<path d="m25.8 18.9l1.2 0.1s-0.1 0-0.1-0.1h-1.1z" fill="#F58C7A"/>
		<path d="m25.7 19l1.4 0.1s-0.1 0-0.1-0.1h-1.3z" fill="#F58D7A"/>
		<path d="m25.6 19.1l1.6 0.1s-0.1 0-0.1-0.1h-1.5z" fill="#F58D7A"/>
		<path d="m25.6 19.1l1.8 0.1s-0.1 0-0.1-0.1h-1.7z" fill="#F68E7A"/>
		<path d="m25.5 19.2l2 0.1s-0.1 0-0.1-0.1h-1.9z" fill="#F68F7A"/>
		<path d="m25.4 19.3l2.2 0.1s-0.1 0-0.1-0.1h-2.1z" fill="#F6907A"/>
		<path d="m25.3 19.3l2.4 0.1s-0.1 0-0.1-0.1h-2.3z" fill="#F6917A"/>
		<path d="m25.3 19.4l2.6 0.1s-0.1 0-0.1-0.1h-2.5z" fill="#F6917A"/>
		<path d="m25.2 19.5l2.7 0.1s-0.1 0-0.1-0.1h-2.6z" fill="#F6927A"/>
		<path d="m25.1 19.5l2.9 0.1s-0.1 0-0.1-0.1h-2.8z" fill="#F69379"/>
		<path d="m25.1 19.6l3.1 0.1s-0.1 0-0.1-0.1h-3z" fill="#F69479"/>
		<path d="m25 19.7l3.3 0.1s-0.1 0-0.1-0.1h-3.2z" fill="#F69579"/>
		<path d="m24.9 19.7l3.5 0.1s-0.1 0-0.1-0.1h-3.4z" fill="#F69579"/>
		<path d="m24.9 19.8l3.7 0.1s-0.1 0-0.1-0.1h-3.6z" fill="#F69679"/>
		<path d="m24.8 19.9l3.9 0.1s-0.1 0-0.1-0.1h-3.8z" fill="#F79779"/>
		<path d="m24.7 19.9l4.1 0.1s-0.1 0-0.1-0.1h-4z" fill="#F79879"/>
		<path d="m24.7 20l4.2 0.1s-0.1 0-0.1-0.1h-4.1z" fill="#F79879"/>
		<path d="m24.6 20.1l4.4 0.1s-0.1 0-0.1-0.1h-4.3z" fill="#F79979"/>
		<path d="m24.5 20.2l4.6 0.1s-0.1 0-0.1-0.1h-4.5z" fill="#F79A79"/>
		<path d="m24.4 20.2l4.8 0.1s-0.1 0-0.1-0.1h-4.7z" fill="#F79B78"/>
		<path d="m24.4 20.3l5 0.1s-0.1 0-0.1-0.1h-4.9z" fill="#F79C78"/>
		<path d="m24.3 20.4l5.2 0.1s-0.1 0-0.1-0.1h-5.1z" fill="#F79C78"/>
		<path d="m24.2 20.4l5.4 0.1s-0.1 0-0.1-0.1h-5.3z" fill="#F89D78"/>
		<path d="m24.2 20.5l5.6 0.1s-0.1 0-0.1-0.1h-5.5z" fill="#F89E78"/>
		<path d="m24.1 20.6l5.8 0.1s-0.1 0-0.1-0.1h-5.7z" fill="#F89F78"/>
		<path d="m24 20.6l5.9 0.1s-0.1 0-0.1-0.1h-5.8z" fill="#F89F78"/>
		<path d="m24 20.7l6.1 0.1s-0.1 0-0.1-0.1h-6z" fill="#F8A078"/>
		<path d="m23.9 20.8l6.3 0.1s-0.1 0-0.1-0.1h-6.2z" fill="#F8A178"/>
		<path d="m23.8 20.8l6.5 0.1s-0.1 0-0.1-0.1h-6.4z" fill="#F8A277"/>
		<path d="m23.8 20.9l6.7 0.1s-0.1 0-0.1-0.1h-6.6z" fill="#F8A277"/>
		<path d="m23.7 21l6.9 0.1h-6.9z" fill="#F8A377"/>
		<path d="m23.6 21l7 0.1s-0.1 0-0.1-0.1h-6.9z" fill="#F9A477"/>
		<path d="m23.6 21.1l7.2 0.1s-0.1 0-0.1-0.1h-7.1z" fill="#F9A577"/>
		<path d="m23.5 21.2l7.3 0.1v-0.1h-7.3z" fill="#F9A577"/>
		<path d="m23.4 21.3l7.4 0.1v-0.1h-7.4z" fill="#F9A677"/>
		<path d="m23.3 21.3l7.5 0.1v-0.1h-7.5z" fill="#F9A776"/>
		<path d="m23.3 21.4l7.6 0.1v-0.1h-7.6z" fill="#F9A876"/>
		<path d="m23.2 21.5l7.6 0.1v-0.1h-7.6z" fill="#F9A876"/>
		<path d="m23.3 21.5l7.5 0.1v-0.1h-7.5z" fill="#F9A976"/>
		<path d="m23.3 21.6l7.4 0.1v-0.1h-7.4z" fill="#F9AA76"/>
		<path d="m23.4 21.7l7.3 0.1 0.1-0.1h-7.4z" fill="#FAAB76"/>
		<path d="m23.5 21.7l7.1 0.1s0.1 0 0.1-0.1h-7.2z" fill="#FAAB76"/>
		<path d="m23.6 21.8l7 0.1s0.1 0 0.1-0.1h-7.1z" fill="#FAAC75"/>
		<path d="m23.6 21.9l6.8 0.1 0.1-0.1h-6.9z" fill="#FAAD75"/>
		<polygon points="23.7 21.9 23.7 22 23.8 22 23.8 22 30.3 22 30.5 21.9" fill="#FAAE75"/>
		<polygon points="23.8 22 23.8 22.1 23.8 22.1 30.2 22.1 30.3 22" fill="#FAAE75"/>
		<polygon points="23.8 22.1 23.9 22.1 23.9 22.1 30.1 22.1 30.2 22.1" fill="#FAAF75"/>
		<polygon points="23.9 22.1 23.9 22.2 24 22.2 30 22.2 30.1 22.1" fill="#FAB075"/>
		<polygon points="24 22.2 24 22.2 24 22.3 24 22.3 29.9 22.3 30 22.2" fill="#FAB175"/>
		<polygon points="24 22.3 24.1 22.3 24.1 22.4 29.7 22.4 29.9 22.3" fill="#FBB174"/>
		<polygon points="24.1 22.4 24.1 22.4 24.2 22.4 29.6 22.4 29.7 22.4" fill="#FBB274"/>
		<polygon points="24.2 22.4 24.2 22.4 24.2 22.5 29.5 22.5 29.6 22.4" fill="#FBB374"/>
		<polygon points="24.2 22.5 24.3 22.5 24.3 22.6 24.3 22.6 29.4 22.6 29.5 22.5" fill="#FBB374"/>
		<polygon points="24.3 22.6 24.4 22.6 24.4 22.6 29.3 22.6 29.4 22.6" fill="#FBB474"/>
		<polygon points="24.4 22.6 24.4 22.7 24.5 22.7 29.2 22.7 29.3 22.6" fill="#FBB573"/>
		<polygon points="24.5 22.7 24.5 22.7 24.5 22.8 29 22.8 29.2 22.7" fill="#FBB673"/>
		<polygon points="24.5 22.8 24.5 22.8 24.6 22.8 24.6 22.8 28.9 22.8 29 22.8" fill="#FBB673"/>
		<polygon points="24.6 22.8 24.6 22.9 24.7 22.9 28.8 22.9 28.9 22.8" fill="#FBB773"/>
		<polygon points="24.7 22.9 24.7 22.9 24.7 23 28.7 23 28.8 22.9" fill="#FCB873"/>
		<polygon points="24.7 23 24.8 23 24.8 23 28.6 23 28.7 23" fill="#FCB873"/>
		<polygon points="24.8 23 24.8 23 24.9 23.1 24.9 23.1 28.4 23.1 28.6 23" fill="#FCB972"/>
		<polygon points="24.9 23.1 24.9 23.2 24.9 23.2 28.3 23.2 28.4 23.1" fill="#FCBA72"/>
		<polygon points="24.9 23.2 25 23.2 25 23.2 28.2 23.2 28.3 23.2" fill="#FCBA72"/>
		<polygon points="25 23.2 25 23.3 25.1 23.3 28.1 23.3 28.2 23.2" fill="#FCBB72"/>
		<polygon points="25.1 23.3 25.1 23.3 25.1 23.4 25.1 23.4 28 23.4 28.1 23.3" fill="#FCBC72"/>
		<polygon points="25.1 23.4 25.2 23.4 25.2 23.4 27.8 23.4 28 23.4" fill="#FCBC71"/>
		<polygon points="25.2 23.4 25.2 23.5 25.3 23.5 27.7 23.5 27.8 23.4" fill="#FCBD71"/>
		<polygon points="25.3 23.5 25.3 23.5 25.3 23.6 27.6 23.6 27.7 23.5" fill="#FDBE71"/>
		<polygon points="25.3 23.6 25.4 23.6 25.4 23.6 25.4 23.7 27.5 23.7 27.6 23.6" fill="#FDBE71"/>
		<polygon points="25.4 23.7 25.5 23.7 25.5 23.7 27.4 23.7 27.5 23.7" fill="#FDBF71"/>
		<polygon points="25.5 23.7 25.5 23.8 25.6 23.8 27.2 23.8 27.4 23.7" fill="#FDC070"/>
		<polygon points="25.6 23.8 25.6 23.8 25.6 23.9 27.1 23.9 27.2 23.8" fill="#FDC070"/>
		<polygon points="25.6 23.9 25.6 23.9 25.7 23.9 25.7 23.9 27 23.9 27.1 23.9" fill="#FDC170"/>
		<polygon points="25.7 23.9 25.7 24 25.8 24 26.9 24 27 23.9" fill="#FDC170"/>
		<polygon points="25.8 24 25.8 24 25.8 24.1 26.8 24.1 26.9 24" fill="#FDC26F"/>
		<polygon points="25.8 24.1 25.9 24.1 25.9 24.1 26.7 24.1 26.8 24.1" fill="#FDC26F"/>
		<polygon points="25.9 24.1 25.9 24.1 26 24.2 26 24.2 26.5 24.2 26.7 24.1" fill="#FDC36F"/>
		<polygon points="26 24.2 26 24.3 26 24.3 26.4 24.3 26.5 24.2" fill="#FEC36F"/>
		<polygon points="26 24.3 26.1 24.3 26.1 24.3 26.3 24.3 26.4 24.3" fill="#FEC46F"/>
		<polygon points="26.1 24.3 26.1 24.4 26.2 24.4 26.3 24.3" fill="#FEC46F"/>
	</g>
	<g display="inline" fill="#F9F9F9">
		<path d="m81.9 25.8c-0.4 0-0.8-0.1-1.1-0.2-0.3-0.2-0.6-0.4-0.9-0.7h-0.1c0 0.4 0.1 0.7 0.1 1.1v2.6h-1v-9.3h0.8l0.1 0.9c0.3-0.3 0.5-0.6 0.9-0.8 0.3-0.2 0.7-0.2 1.1-0.2 0.8 0 1.5 0.3 2 0.9s0.7 1.4 0.7 2.4-0.2 1.9-0.7 2.4c-0.4 0.6-1.1 0.9-1.9 0.9zm-0.2-5.8c-0.7 0-1.1 0.2-1.4 0.5-0.3 0.4-0.4 0.9-0.4 1.7v0.2c0 0.9 0.2 1.5 0.4 1.9 0.3 0.4 0.8 0.6 1.4 0.6s1-0.2 1.3-0.7c0.3-0.4 0.5-1.1 0.5-1.8 0-0.8-0.2-1.4-0.5-1.8s-0.7-0.6-1.3-0.6z"/>
		<path d="m86.8 25.6h-1v-9.1h1v9.1z"/>
		<path d="m92.3 25.6l-0.2-0.9c-0.3 0.4-0.6 0.7-1 0.8-0.3 0.1-0.7 0.2-1.2 0.2-0.6 0-1.1-0.2-1.5-0.5s-0.5-0.8-0.5-1.4c0-1.3 1-2 3.1-2h1.1v-0.4c0-0.5-0.1-0.9-0.3-1.1s-0.6-0.4-1-0.4c-0.5 0-1.1 0.2-1.8 0.5l-0.3-0.7c0.3-0.2 0.7-0.3 1-0.4 0.4-0.1 0.7-0.1 1.1-0.1 0.8 0 1.3 0.2 1.7 0.5s0.5 0.9 0.5 1.6v4.4h-0.7zm-2.2-0.6c0.6 0 1.1-0.2 1.4-0.5s0.5-0.8 0.5-1.4v-0.6h-1c-0.8 0-1.3 0.1-1.7 0.4-0.3 0.2-0.5 0.5-0.5 1 0 0.3 0.1 0.6 0.3 0.8 0.4 0.2 0.7 0.3 1 0.3z"/>
		<path d="m93.6 19.2h1l1.4 3.6c0.3 0.8 0.5 1.4 0.6 1.8 0-0.2 0.2-0.5 0.3-1 0.2-0.5 0.7-2 1.6-4.4h1l-2.7 7.3c-0.3 0.7-0.6 1.2-1 1.5s-0.8 0.5-1.3 0.5c-0.3 0-0.6 0-0.9-0.1v-0.8c0.2 0 0.5 0.1 0.7 0.1 0.7 0 1.1-0.4 1.4-1.1l0.4-0.9-2.5-6.5z"/>
	</g>
	<g display="inline" fill="#F9F9F9">
		<path d="m63.9 19.8c0.3 0.3 1 0.8 1 1.8s-0.6 1.5-1.1 1.9c-0.2 0.2-0.4 0.4-0.4 0.7s0.2 0.5 0.3 0.6l0.5 0.4c0.6 0.5 1.1 1 1.1 1.9 0 1.3-1.2 2.5-3.5 2.5-1.9 0-2.9-0.9-2.9-1.9 0-0.5 0.2-1.2 1-1.6 0.8-0.5 2-0.6 2.6-0.6-0.2-0.2-0.4-0.5-0.4-0.9 0-0.2 0.1-0.4 0.1-0.5h-0.4c-1.4 0-2.2-1.1-2.2-2.1 0-0.6 0.3-1.3 0.9-1.8 0.8-0.6 1.7-0.7 2.4-0.7h2.8l-0.9 0.5h-0.9zm-0.9 6h-0.3c-0.1 0-0.8 0-1.4 0.2-0.3 0.1-1.2 0.4-1.2 1.4 0 0.9 0.9 1.6 2.4 1.6 1.3 0 2-0.6 2-1.4 0-0.7-0.5-1.1-1.5-1.8zm0.4-2.6c0.3-0.3 0.3-0.7 0.3-1 0-1-0.6-2.5-1.7-2.5-0.3 0-0.7 0.2-0.9 0.4-0.2 0.3-0.3 0.6-0.3 1 0 0.9 0.5 2.4 1.7 2.4 0.3 0.1 0.7-0.1 0.9-0.3z"/>
		<path d="m55.5 25.6c-2.1 0-3.3-1.7-3.3-3.1 0-1.7 1.4-3.2 3.5-3.2 2 0 3.2 1.5 3.2 3.1 0 1.5-1.2 3.2-3.4 3.2zm1.7-1.1c0.3-0.4 0.4-1 0.4-1.5 0-1.2-0.6-3.4-2.2-3.4-0.4 0-0.9 0.2-1.2 0.5-0.5 0.5-0.6 1.1-0.6 1.6 0 1.3 0.7 3.5 2.3 3.5 0.5 0 1-0.3 1.3-0.7z"/>
		<path d="m48.3 25.6c-2.1 0-3.3-1.7-3.3-3.1 0-1.7 1.4-3.2 3.5-3.2 2 0 3.2 1.5 3.2 3.1 0 1.5-1.2 3.2-3.4 3.2zm1.7-1.1c0.3-0.4 0.4-1 0.4-1.5 0-1.2-0.6-3.4-2.2-3.4-0.4 0-0.9 0.2-1.2 0.5-0.5 0.5-0.6 1.1-0.6 1.6 0 1.3 0.7 3.5 2.3 3.5 0.4 0 1-0.3 1.3-0.7z"/>
		<path d="m44 25.4l-1.9 0.4c-0.8 0.1-1.5 0.2-2.2 0.2-3.7 0-5.1-2.7-5.1-4.9 0-2.6 2-5 5.4-5 0.7 0 1.4 0.1 2.1 0.3 1 0.3 1.5 0.6 1.8 0.8l-1.1 1.1-0.5 0.1 0.3-0.5c-0.5-0.4-1.3-1.3-2.9-1.3-2.1 0-3.7 1.6-3.7 4 0 2.5 1.8 4.9 4.7 4.9 0.9 0 1.3-0.2 1.7-0.3v-2.2l-2 0.1 1.1-0.6h2.8l-0.4 0.3c-0.1 0.1-0.1 0.1-0.1 0.2v0.6 1.8z"/>
		<path d="m68.2 25c-0.4 0-0.5-0.1-0.5-0.6v-7.5-0.1c0.1-0.5 0.2-0.5 0.6-0.8h-1.9l-1 0.5h1v8.2c0 0.3-0.1 0.3-0.4 0.7h2.4l0.5-0.3c-0.3-0.1-0.5-0.1-0.7-0.1z"/>
		<path d="m73.6 25.1c-0.1 0.1-0.3 0.2-0.4 0.2-0.4 0.2-0.9 0.3-1.3 0.3s-1.1 0-1.8-0.5c-0.9-0.7-1.4-1.8-1.4-2.8 0-2.1 1.7-3.1 3.1-3.1 0.5 0 1 0.1 1.4 0.4 0.7 0.4 0.8 1 0.9 1.3l-3.1 1.2-1 0.1c0.3 1.7 1.5 2.7 2.7 2.7 0.7 0 1.2-0.2 1.6-0.5l-0.7 0.7zm-1.2-4c0.3-0.1 0.4-0.2 0.4-0.4 0-0.5-0.6-1.1-1.3-1.1-0.5 0-1.5 0.4-1.5 1.9v0.7l2.4-1.1z"/>
			<path d="m74.9 19.3v0.9h-0.1v-0.9h-0.3v-0.1h0.7v0.1h-0.3z"/>
			<path d="m76.1 20.1v-0.9l-0.3 0.9h-0.1l-0.3-0.9v0.9h-0.1v-1h0.2l0.2 0.8 0.2-0.8h0.2v1z"/>
	</g>
	<g display="inline" fill="#F6F6F6">
		<path d="m37.5 13.5h-0.7c0-0.1-0.1-0.4-0.2-0.8h-1c-0.1 0.4-0.2 0.7-0.2 0.8h-0.6c0-0.1 0.2-0.5 0.5-1.3s0.5-1.3 0.5-1.4h0.8c0 0.1 0.1 0.5 0.4 1.4 0.3 0.8 0.5 1.3 0.5 1.3zm-1-1.1c-0.2-0.7-0.4-1.1-0.4-1.2 0 0.1-0.1 0.4-0.4 1.2h0.8z"/>
		<path d="m40.1 13.5h-0.5c0-0.1-0.2-0.4-0.6-0.9-0.4-0.6-0.6-1-0.7-1.2 0 0.3 0.1 0.6 0.1 0.8v1.3h-0.5v-1.4-1.3h0.6c0 0.1 0.2 0.4 0.5 0.9 0.4 0.5 0.6 0.9 0.6 1.1v-0.8-1.2h0.5v1.3 1.4z"/>
		<path d="m43.2 12.1c0 0.4-0.1 0.7-0.4 1s-0.6 0.4-1.1 0.4h-0.9v-1.4-1.3h0.4 0.3 0.2c0.5 0 0.9 0.1 1.1 0.4 0.2 0.2 0.4 0.5 0.4 0.9zm-0.6 0.1c0-0.3-0.1-0.5-0.2-0.7-0.2-0.2-0.4-0.3-0.7-0.3h-0.2v0.9 1h0.3c0.3 0 0.5-0.1 0.7-0.3 0-0.1 0.1-0.4 0.1-0.6z"/>
		<path d="m45.9 13.5h-0.6c-0.2-0.5-0.3-0.8-0.4-0.9s-0.2-0.2-0.4-0.2h-0.2v1.1h-0.6v-1.4-1.3h0.4 0.3 0.4c0.6 0 1 0.2 1 0.7 0 0.3-0.2 0.6-0.5 0.7 0.1 0 0.3 0.1 0.4 0.3-0.1 0.2 0.1 0.6 0.2 1zm-0.7-1.9c0-0.3-0.2-0.4-0.5-0.4h-0.3v0.8h0.2c0.3 0.1 0.6-0.1 0.6-0.4z"/>
		<path d="m48.9 12.1c0 0.4-0.1 0.8-0.4 1.1s-0.6 0.4-1 0.4-0.7-0.1-0.9-0.4-0.4-0.6-0.4-1 0.1-0.8 0.4-1.1 0.6-0.4 1-0.4 0.7 0.1 0.9 0.4c0.3 0.3 0.4 0.6 0.4 1zm-0.6 0.1c0-0.3-0.1-0.5-0.2-0.7-0.2-0.2-0.3-0.3-0.5-0.3s-0.4 0.1-0.5 0.3-0.2 0.4-0.2 0.7 0.1 0.5 0.2 0.7 0.3 0.3 0.5 0.3 0.4-0.1 0.5-0.3c0.2-0.2 0.2-0.4 0.2-0.7z"/>
		<path d="m50.1 13.5h-0.6v-1.4-1.3h0.6v1.3 1.4z"/>
		<path d="m53.1 12.1c0 0.4-0.1 0.7-0.4 1s-0.6 0.4-1.1 0.4h-0.8v-1.4-1.3h0.4 0.3 0.2c0.5 0 0.9 0.1 1.1 0.4 0.2 0.2 0.3 0.5 0.3 0.9zm-0.5 0.1c0-0.3-0.1-0.5-0.2-0.7-0.2-0.2-0.4-0.3-0.7-0.3h-0.2v0.9 1h0.3c0.3 0 0.5-0.1 0.7-0.3 0-0.1 0.1-0.4 0.1-0.6z"/>
		<path d="m57.1 13.5h-0.7c0-0.1-0.1-0.4-0.2-0.8h-1c-0.1 0.4-0.2 0.7-0.2 0.8h-0.6c0-0.1 0.2-0.5 0.5-1.3s0.5-1.3 0.5-1.4h0.8c0 0.1 0.1 0.5 0.4 1.4 0.4 0.8 0.5 1.3 0.5 1.3zm-0.9-1.1c-0.2-0.7-0.4-1.1-0.4-1.2 0 0.1-0.1 0.4-0.4 1.2h0.8z"/>
		<path d="m59.6 11.5c0 0.3-0.1 0.6-0.4 0.7-0.2 0.2-0.5 0.2-0.9 0.2h-0.1v1h-0.6v-1.4-1.3h0.4 0.3 0.4c0.3 0 0.5 0.1 0.7 0.2 0.1 0.2 0.2 0.4 0.2 0.6zm-0.6 0.2c0-0.3-0.2-0.4-0.6-0.4h-0.3v0.9h0.1c0.6-0.1 0.8-0.2 0.8-0.5z"/>
		<path d="m62.1 11.5c0 0.3-0.1 0.6-0.4 0.7-0.2 0.2-0.5 0.2-0.9 0.2h-0.1v1h-0.6v-1.4-1.3h0.4 0.3 0.4c0.3 0 0.5 0.1 0.7 0.2 0.1 0.2 0.2 0.4 0.2 0.6zm-0.6 0.2c0-0.3-0.2-0.4-0.6-0.4h-0.3v0.9h0.1c0.6-0.1 0.8-0.2 0.8-0.5z"/>
		<path d="m66.1 12.1c0 0.4-0.1 0.8-0.4 1.1s-0.6 0.4-1 0.4-0.7-0.1-0.9-0.4-0.4-0.6-0.4-1 0.1-0.8 0.4-1.1 0.6-0.4 1-0.4 0.7 0.1 0.9 0.4c0.3 0.3 0.4 0.6 0.4 1zm-0.5 0.1c0-0.3-0.1-0.5-0.2-0.7s-0.3-0.3-0.5-0.3-0.4 0.1-0.5 0.3-0.2 0.4-0.2 0.7 0.1 0.5 0.2 0.7 0.3 0.3 0.5 0.3 0.4-0.1 0.5-0.3 0.2-0.4 0.2-0.7z"/>
		<path d="m69 13.5h-0.5c0-0.1-0.2-0.4-0.6-0.9-0.4-0.6-0.6-1-0.7-1.2 0 0.3 0.1 0.6 0.1 0.8v1.3h-0.5v-1.4-1.3h0.6c0 0.1 0.2 0.4 0.5 0.9 0.4 0.5 0.6 0.9 0.6 1.1 0-0.3-0.1-0.6-0.1-0.8v-1.2h0.6v1.3c-0.1 0.5-0.1 1 0 1.4z"/>
	</g>
</g>
	<rect x="4.8" y="4.3" width="98.9" height="32.4" fill="#67686B"/>
	<path d="m21.9 9.8h-8.1c-1 0-1.7 0.8-1.7 1.7v17.9c0 1 0.8 1.7 1.7 1.7h8.1c1 0 1.7-0.8 1.7-1.7v-17.9c0-0.9-0.7-1.7-1.7-1.7zm-4 20.1c-0.6 0-1.2-0.5-1.2-1.2 0-0.6 0.5-1.2 1.2-1.2 0.6 0 1.2 0.5 1.2 1.2-0.1 0.6-0.6 1.2-1.2 1.2zm4.4-2.9h-8.8v-13.2h8.8v13.2z" display="none" fill="#fff"/>
		<path d="m25.9 25.1c-0.5 1-0.7 1.5-1.3 2.4-0.9 1.3-2.1 2.9-3.5 2.9-1.3 0-1.7-0.9-3.5-0.8-1.8 0-2.2 0.9-3.5 0.9-1.5 0-2.6-1.5-3.5-2.8-2.4-3.6-2.6-7.8-1.1-10.1 1-1.6 2.7-2.5 4.2-2.5 1.6 0 2.6 0.9 3.9 0.9s2-0.9 3.9-0.9c1.4 0 2.8 0.7 3.9 2-3.5 1.9-3 6.7 0.5 8z" fill="#fff"/>
			<path d="m20 13.6c0.7-0.8 1.2-2 1-3.3-1.1 0.1-2.3 0.8-3.1 1.7-0.7 0.8-1.2 2-1 3.2 1.2 0 2.4-0.7 3.1-1.6z" fill="#fff"/>
	<g fill="#fff">
		<path d="m30.2 13l-0.5 1.5h-0.6l1.6-4.7h0.7l1.6 4.7h-0.7l-0.4-1.5h-1.7zm1.6-0.5l-0.5-1.4c-0.1-0.3-0.2-0.6-0.2-0.9-0.1 0.3-0.1 0.6-0.2 0.9l-0.5 1.4h1.4z"/>
		<path d="m33.7 11.1l0.7 1.9 0.3 0.9 0.3-0.9 0.7-1.9h0.6l-1.3 3.4h-0.6l-1.4-3.4h0.7z"/>
		<path d="m39.1 13.7c0 0.3 0 0.6 0.1 0.8h-0.6l-0.1-0.5c-0.2 0.3-0.6 0.5-1 0.5-0.7 0-1-0.5-1-1 0-0.8 0.7-1.3 2-1.3v-0.1c0-0.3-0.1-0.8-0.8-0.8-0.3 0-0.6 0.1-0.9 0.3l-0.1-0.4c0.3-0.2 0.7-0.3 1.1-0.3 1 0 1.3 0.7 1.3 1.4v1.4zm-0.6-1c-0.7 0-1.4 0.1-1.4 0.8 0 0.4 0.3 0.6 0.6 0.6 0.4 0 0.7-0.3 0.8-0.6v-0.2-0.6z"/>
		<path d="m40.3 10.5c-0.2 0-0.4-0.2-0.4-0.4s0.2-0.4 0.4-0.4 0.4 0.2 0.4 0.4-0.1 0.4-0.4 0.4zm-0.3 4v-3.4h0.6v3.4h-0.6z"/>
		<path d="m41.6 9.5h0.6v5h-0.6v-5z"/>
		<path d="m45.6 13.7v0.8h-0.5v-0.5c-0.2 0.3-0.5 0.5-1 0.5-0.7 0-1-0.5-1-1 0-0.8 0.7-1.3 2-1.3v-0.1c0-0.3-0.1-0.8-0.8-0.8-0.3 0-0.6 0.1-0.9 0.3l-0.1-0.4c0.3-0.2 0.7-0.3 1.1-0.3 1 0 1.3 0.7 1.3 1.4v1.4zm-0.6-1c-0.7 0-1.4 0.1-1.4 0.8 0 0.4 0.3 0.6 0.6 0.6 0.4 0 0.7-0.3 0.8-0.6v-0.2-0.6z"/>
		<path d="m46.6 9.5h0.6v2.1c0.2-0.4 0.6-0.6 1.2-0.6 0.8 0 1.4 0.7 1.4 1.7 0 1.2-0.8 1.8-1.5 1.8-0.5 0-0.9-0.2-1.1-0.6v0.6h-0.5v-0.9-4.1zm0.6 3.6v0.2c0.1 0.4 0.5 0.7 0.9 0.7 0.7 0 1-0.5 1-1.3 0-0.7-0.4-1.3-1-1.3-0.4 0-0.8 0.3-0.9 0.8v0.3 0.6z"/>
		<path d="m50.5 9.5h0.6v5h-0.6v-5z"/>
		<path d="m52.5 12.9c0 0.8 0.5 1.2 1.2 1.2 0.4 0 0.7-0.1 0.9-0.2l0.1 0.4c-0.2 0.1-0.6 0.2-1.1 0.2-1 0-1.7-0.7-1.7-1.7s0.6-1.8 1.6-1.8c1.1 0 1.4 1 1.4 1.6v0.3h-2.4zm1.8-0.5c0-0.4-0.2-1-0.8-1s-0.9 0.6-0.9 1h1.7z"/>
		<path d="m58.4 14.5c-0.9 0-1.6-0.7-1.6-1.7 0-1.1 0.7-1.8 1.7-1.8s1.6 0.7 1.6 1.7c0 1.3-0.9 1.8-1.7 1.8zm0-0.4c0.6 0 1-0.6 1-1.3 0-0.6-0.3-1.3-1-1.3s-1 0.7-1 1.3c0 0.7 0.4 1.3 1 1.3z"/>
		<path d="m60.9 12v-0.9h0.5v0.6c0.2-0.3 0.6-0.6 1.1-0.6s1.2 0.3 1.2 1.4v2h-0.6v-2c0-0.5-0.2-1-0.8-1-0.4 0-0.7 0.3-0.8 0.6v0.3 2h-0.6v-2.4z"/>
		<path d="m66.9 10.3v0.8h0.9v0.5h-0.9v1.8c0 0.4 0.1 0.7 0.5 0.7h0.4v0.5c-0.1 0-0.3 0.1-0.5 0.1-0.3 0-0.5-0.1-0.7-0.3s-0.2-0.5-0.2-0.9v-1.8h-0.5v-0.5h0.5v-0.6l0.5-0.3z"/>
		<path d="m68.4 9.5h0.6v2.1c0.1-0.2 0.3-0.3 0.4-0.4 0.2-0.1 0.4-0.2 0.6-0.2 0.5 0 1.2 0.3 1.2 1.4v2h-0.6v-1.9c0-0.6-0.2-1-0.8-1-0.4 0-0.7 0.3-0.8 0.6v0.3 2h-0.6v-4.9z"/>
		<path d="m72.6 12.9c0 0.8 0.5 1.2 1.2 1.2 0.4 0 0.7-0.1 0.9-0.2l0.1 0.4c-0.2 0.1-0.6 0.2-1.1 0.2-1 0-1.7-0.7-1.7-1.7s0.6-1.8 1.6-1.8c1.1 0 1.4 1 1.4 1.6v0.3h-2.4zm1.8-0.5c0-0.4-0.2-1-0.8-1s-0.9 0.6-0.9 1h1.7z"/>
		<path d="m77.5 10.5c-0.2 0-0.4-0.2-0.4-0.4s0.2-0.4 0.4-0.4 0.4 0.2 0.4 0.4-0.2 0.4-0.4 0.4zm-0.3 4v-3.4h0.6v3.4h-0.6z"/>
		<path d="m78.8 9.8c0.3-0.1 0.7-0.1 1.2-0.1 0.6 0 1 0.1 1.3 0.4 0.3 0.2 0.4 0.6 0.4 1s-0.1 0.8-0.4 1c-0.3 0.3-0.8 0.5-1.4 0.5h-0.5v1.9h-0.6v-4.7zm0.6 2.3h0.5c0.7 0 1.2-0.4 1.2-1s-0.4-0.9-1.1-0.9h-0.6v1.9z"/>
		<path d="m82.5 9.5h0.6v2.1c0.1-0.2 0.3-0.3 0.4-0.4 0.2-0.1 0.4-0.2 0.6-0.2 0.5 0 1.2 0.3 1.2 1.4v2h-0.6v-1.9c0-0.6-0.2-1-0.8-1-0.4 0-0.7 0.3-0.8 0.6v0.3 2h-0.6v-4.9z"/>
		<path d="m87.7 14.5c-0.9 0-1.6-0.7-1.6-1.7 0-1.1 0.7-1.8 1.7-1.8s1.6 0.7 1.6 1.7c0 1.3-0.9 1.8-1.7 1.8zm0-0.4c0.6 0 1-0.6 1-1.3 0-0.6-0.3-1.3-1-1.3s-1 0.7-1 1.3c0 0.7 0.4 1.3 1 1.3z"/>
		<path d="m90.1 12v-0.9h0.5v0.6c0.2-0.3 0.6-0.6 1.1-0.6s1.2 0.3 1.2 1.4v2h-0.6v-2c0-0.5-0.2-1-0.8-1-0.4 0-0.7 0.3-0.8 0.6v0.3 2h-0.6v-2.4z"/>
		<path d="m94.3 12.9c0 0.8 0.5 1.2 1.2 1.2 0.4 0 0.7-0.1 0.9-0.2l0.1 0.4c-0.2 0.1-0.6 0.2-1.1 0.2-1 0-1.7-0.7-1.7-1.7s0.6-1.8 1.6-1.8c1.1 0 1.4 1 1.4 1.6v0.3h-2.4zm1.8-0.5c0-0.4-0.2-1-0.8-1s-0.9 0.6-0.9 1h1.7z"/>
	</g>
	<g fill="#fff">
		<path d="m33.1 17.7l-4.1 12.2h1.9l1.2-3.8h4l1.3 3.8h2l-4.2-12.2h-2.1zm1 2c0.1 0.5 0.3 1.1 0.5 1.7l1.1 3.2h-3.2l1.1-3.3c0.2-0.5 0.4-1 0.5-1.6z"/>
		<path d="m44.8 20.8c-1.3 0-2.3 0.5-2.9 1.4l-0.2-1.2h-1.7v0.2c0 0.8 0.1 1.6 0.1 2.8v9.4h1.9v-4.4c0.6 0.7 1.5 1.1 2.5 1.1 1.1 0 2.1-0.4 2.8-1.2 0.8-0.9 1.2-2.1 1.2-3.6 0-1.3-0.4-2.4-1.1-3.2-0.6-0.8-1.6-1.3-2.6-1.3zm-0.5 1.6c1.6 0 2.4 1.5 2.4 3 0 1.9-0.9 3.2-2.5 3.2-1 0-1.9-0.7-2.2-1.7 0-0.2-0.1-0.4-0.1-0.6v-1.5c0-0.1 0-0.3 0.1-0.5v-0.2c0.3-1 1.3-1.7 2.3-1.7z"/>
		<path d="m54.3 20.8c-1.3 0-2.3 0.5-2.9 1.4l-0.1-1.2h-1.7v0.2c0.1 0.8 0.1 1.6 0.1 2.8v9.4h1.8v-4.4c0.6 0.7 1.5 1.1 2.5 1.1 1.1 0 2.1-0.4 2.8-1.2 0.8-0.9 1.2-2.1 1.2-3.6 0-1.3-0.4-2.4-1.1-3.2-0.6-0.8-1.6-1.3-2.6-1.3zm-0.5 1.6c1.6 0 2.4 1.5 2.4 3 0 1.9-0.9 3.2-2.5 3.2-1 0-1.9-0.7-2.2-1.7 0-0.2-0.1-0.4-0.1-0.6v-1.5c0-0.1 0-0.3 0.1-0.5v-0.1c0.4-1.1 1.3-1.8 2.3-1.8z"/>
		<path d="m66.2 22.8c-1.7-0.7-2.3-1.2-2.3-2.2 0-0.8 0.7-1.6 2.1-1.6 1.2 0 2 0.4 2.2 0.5l0.2 0.1 0.5-1.5-0.1-0.1c-0.3-0.2-1.2-0.6-2.7-0.6-2.4 0-4 1.4-4 3.4 0 1.6 1 2.7 3.2 3.5 1.6 0.6 2.2 1.2 2.2 2.2 0 1.2-0.9 1.9-2.4 1.9-0.9 0-1.9-0.3-2.7-0.8l-0.2-0.1-0.5 1.6 0.1 0.1c0.7 0.5 2 0.8 3.1 0.8 3.2 0 4.3-1.9 4.3-3.6 0.1-1.6-0.8-2.7-3-3.6z"/>
		<path d="m72.6 18.9l-1.8 0.6v1.5h-1.3v1.5h1.3v4.5c0 1.1 0.2 1.9 0.6 2.3 0.4 0.5 1 0.7 1.8 0.7 0.7 0 1.2-0.1 1.4-0.2h0.1l-0.1-1.5-0.2 0.1c-0.2 0.1-0.5 0.1-0.9 0.1-0.7 0-1-0.5-1-1.5v-4.5h2.2v-1.5h-2.2v-2.1z"/>
		<path d="m79.4 20.8c-2.6 0-4.4 1.9-4.4 4.7 0 2.7 1.7 4.5 4.2 4.5 2.1 0 4.4-1.5 4.4-4.7 0-1.3-0.4-2.4-1.2-3.3-0.6-0.7-1.7-1.2-3-1.2zm0 1.5c1.7 0 2.4 1.6 2.4 3.1 0 1.9-1 3.2-2.5 3.2-1.4 0-2.4-1.3-2.4-3.1 0-1.6 0.8-3.2 2.5-3.2z"/>
		<path d="m89.4 20.9h-0.1c-0.2 0-0.3-0.1-0.5-0.1-1 0-1.8 0.6-2.3 1.5l-0.1-1.3h-1.7v0.2c0 0.7 0.1 1.6 0.1 2.7v6h1.8v-4.7-0.7c0.2-1.1 1-1.9 1.9-1.9h0.5 0.2v-1.7z"/>
		<path d="m93.5 20.8c-2.5 0-4.2 2-4.2 4.8 0 2.7 1.7 4.5 4.4 4.5 1.4 0 2.4-0.3 2.9-0.6l0.1-0.1-0.4-1.4-0.2 0.1c-0.5 0.2-1.2 0.4-2.3 0.4-0.8 0-2.7-0.3-2.8-2.7h6v-0.1c0-0.2 0.1-0.4 0.1-0.8 0.1-1.8-0.9-4.1-3.6-4.1zm-0.1 1.4c0.6 0 1 0.2 1.4 0.5 0.5 0.5 0.6 1.3 0.6 1.7h-4.2c0.1-1 0.8-2.2 2.2-2.2z"/>
	</g>
</svg>
