<?xml version="1.0" encoding="utf-8"?>
<!-- Generator: Adobe Illustrator 22.1.0, SVG Export Plug-In . SVG Version: 6.00 Build 0)  -->
<svg version="1.1" id="Layer_1" xmlns="http://www.w3.org/2000/svg" xmlns:xlink="http://www.w3.org/1999/xlink" x="0px" y="0px"
	 viewBox="0 0 203.1 124.9" style="enable-background:new 0 0 203.1 124.9;" xml:space="preserve">
<style type="text/css">
	.st0{fill:#67696B;}
	.st1{fill:#00AEA0;}
</style>
<path class="st0" d="M141.7,36.1h-4.5V28c0-2.8-2.2-5-5-5h-15.9c-2.8,0-5,2.2-5,5v8.1H95.2V28c0-2.8-2.2-5-5-5H74.4
	c-2.8,0-5,2.2-5,5v8.1h-4.6c-3.3,0-6,2.7-6,6V94c0,3.3,2.7,6,6,6h76.9c3.3,0,6-2.7,6-6V42.1C147.7,38.8,145,36.1,141.7,36.1z
	 M143.7,94c0,1.1-0.9,2-2,2H64.8c-1.1,0-2-0.9-2-2V42.1c0-1.1,0.9-2,2-2h76.9c1.1,0,2,0.9,2,2V94z"/>
<path class="st1" d="M125.6,77.3v-7.9h7.9c0.8,0,1.4-0.6,1.4-1.4s-0.6-1.4-1.4-1.4h-7.9v-7.9c0-0.8-0.6-1.4-1.4-1.4
	s-1.4,0.6-1.4,1.4v7.9H115c-0.8,0-1.4,0.6-1.4,1.4s0.6,1.4,1.4,1.4h7.9v7.9c0,0.8,0.6,1.4,1.4,1.4C125,78.7,125.6,78.1,125.6,77.3z"
	/>
<path class="st0" d="M124.2,82.7c-3,0-5.4-2.4-5.4-5.4v-3.9H115c-3,0-5.4-2.4-5.4-5.4s2.4-5.4,5.4-5.4h3.9v-3.9c0-3,2.4-5.4,5.4-5.4
	s5.4,2.4,5.4,5.4v3.9h3.9c3,0,5.4,2.4,5.4,5.4s-2.4,5.4-5.4,5.4h-3.9v3.9C129.6,80.3,127.2,82.7,124.2,82.7z M115,66.6
	c-0.8,0-1.4,0.6-1.4,1.4s0.6,1.4,1.4,1.4h7.9v7.9c0,0.8,0.6,1.4,1.4,1.4s1.4-0.6,1.4-1.4v-7.9h7.9c0.8,0,1.4-0.6,1.4-1.4
	s-0.6-1.4-1.4-1.4h-7.9v-7.9c0-0.8-0.6-1.4-1.4-1.4s-1.4,0.6-1.4,1.4v7.9H115z"/>
<path class="st1" d="M91.6,69.4c0.8,0,1.4-0.6,1.4-1.4s-0.6-1.4-1.4-1.4H73c-0.8,0-1.4,0.6-1.4,1.4s0.6,1.4,1.4,1.4H91.6z"/>
<path class="st0" d="M91.6,73.4H73c-3,0-5.4-2.4-5.4-5.4s2.4-5.4,5.4-5.4h18.5c3,0,5.4,2.4,5.4,5.4S94.6,73.4,91.6,73.4z M73,66.6
	c-0.8,0-1.4,0.6-1.4,1.4s0.6,1.4,1.4,1.4h18.5c0.8,0,1.4-0.6,1.4-1.4s-0.6-1.4-1.4-1.4H73z"/>
</svg>
