<svg xmlns="http://www.w3.org/2000/svg" id="Layer_1" data-name="Layer 1" viewBox="0 0 58.21 58.21"><defs><style>.cls-1{fill:none;stroke:#fff;stroke-miterlimit:10;}.cls-2{fill:#fff;}</style></defs><title>download-app</title><rect class="cls-1" x="0.5" y="0.5" width="57.21" height="57.21"></rect><path class="cls-2" d="M45.29,34.34H42.67a1.24,1.24,0,0,0-1.31,1.31v3.27a.61.61,0,0,1-.65.65H18.46a.62.62,0,0,1-.66-.65V35.65a1.23,1.23,0,0,0-1.3-1.31H13.88a1.23,1.23,0,0,0-1.31,1.31V43.5a1.23,1.23,0,0,0,1.31,1.31H45.29A1.23,1.23,0,0,0,46.6,43.5V35.65A1.23,1.23,0,0,0,45.29,34.34Z" transform="translate(-0.48)"></path><path class="cls-2" d="M28.67,34a1.27,1.27,0,0,0,1.83,0l7.85-7.86a1.25,1.25,0,0,0,0-1.83l-1.83-1.83a1.27,1.27,0,0,0-1.83,0l-1.31,1.31a.71.71,0,0,1-1.18-.53v-8.5a1.23,1.23,0,0,0-1.31-1.31H28.28A1.23,1.23,0,0,0,27,14.71v8.63a.73.73,0,0,1-1.18.53l-1.31-1.31a1.27,1.27,0,0,0-1.83,0l-1.84,1.83a1.27,1.27,0,0,0,0,1.83Z" transform="translate(-0.48)"></path></svg>