<?xml version="1.0" encoding="utf-8"?>
<!-- Generator: Adobe Illustrator 22.1.0, SVG Export Plug-In . SVG Version: 6.00 Build 0)  -->
<svg version="1.1" id="Layer_1" xmlns="http://www.w3.org/2000/svg" xmlns:xlink="http://www.w3.org/1999/xlink" x="0px" y="0px"
	 viewBox="0 0 203.1 130.9" style="enable-background:new 0 0 203.1 130.9;" xml:space="preserve">
<style type="text/css">
	.st0{fill:#67696B;}
	.st1{fill:#00AEA0;}
</style>
<g>
	<path class="st0" d="M146.5,36.2l-12.4-6.3c-0.8-0.4-1.7-0.5-2.5-0.2s-1.5,0.9-1.9,1.6c-0.4,0.8-0.5,1.7-0.2,2.5s0.9,1.5,1.6,1.9
		l4.6,2.3l0,0c-0.1,0.3-0.2,0.6-0.2,1c0,4.1,3.1,7.6,6.2,8.9v41c0,1.7-1.3,3-3,3s-3-1.3-3-3v-28c0-6.8-5-12.4-10.3-14.7V25.5
		c0-5.8-4.7-10.5-10.5-10.5H80.1c-5.8,0-10.5,4.7-10.5,10.5V99c0,0.5-0.4,0.8-0.8,0.8h-5.2c-2.7,0-4.8,2.2-4.8,4.8v10.6h77.7v-10.6
		c0-2.7-2.2-4.8-4.8-4.8h-5.2c-0.5,0-0.8-0.4-0.8-0.8V53.7c2.1,1.7,3.8,4.3,3.8,7.3v28c0,5.2,4.3,9.5,9.5,9.5s9.5-4.3,9.5-9.5V39.1
		C148.3,37.8,147.6,36.7,146.5,36.2z M126.3,103.8h5.2c0.5,0,0.8,0.4,0.8,0.8v6.6H62.7v-6.6c0-0.5,0.4-0.8,0.8-0.8h5.2
		c2.7,0,4.8-2.2,4.8-4.8V25.5c0-3.6,2.9-6.5,6.5-6.5h34.9c3.6,0,6.5,2.9,6.5,6.5V99C121.4,101.7,123.6,103.8,126.3,103.8z"/>
	<path class="st1" d="M109.4,51H85.6c-1.6,0-2.8-1.3-2.8-2.8V31c0-1.6,1.3-2.8,2.8-2.8h23.8c1.6,0,2.8,1.3,2.8,2.8v17.1
		C112.2,49.7,111,51,109.4,51z"/>
	<path class="st0" d="M109.4,53H85.6c-2.7,0-4.8-2.2-4.8-4.8V31c0-2.7,2.2-4.8,4.8-4.8h23.8c2.7,0,4.8,2.2,4.8,4.8v17.1
		C114.2,50.8,112.1,53,109.4,53z M85.6,30.2c-0.5,0-0.8,0.4-0.8,0.8v17.1c0,0.5,0.4,0.8,0.8,0.8h23.8c0.5,0,0.8-0.4,0.8-0.8V31
		c0-0.5-0.4-0.8-0.8-0.8C109.4,30.2,85.6,30.2,85.6,30.2z"/>
</g>
</svg>
