<?xml version="1.0" encoding="utf-8"?>
<!-- Generator: Adobe Illustrator 22.0.1, SVG Export Plug-In . SVG Version: 6.00 Build 0)  -->
<svg version="1.2" baseProfile="tiny" id="Layer_1" xmlns="http://www.w3.org/2000/svg" xmlns:xlink="http://www.w3.org/1999/xlink"
	 x="0px" y="0px" viewBox="0 0 108.6 40.9" xml:space="preserve">
<g>
	<polygon fill="#67686B" points="103.9,36.7 103.9,36.7 4.7,36.7 4.7,4.2 103.9,4.2 	"/>
	<g>
		<path fill="#0D7EB0" d="M12.5,10.9L12.5,10.9L12.5,10.9c-0.1,0-0.1,0-0.1,0H12.5z"/>
		<path fill="#0F7FB0" d="M12.7,11.1L12.7,11.1L12.6,11l-0.1-0.1h-0.1c-0.1,0-0.2,0.1-0.2,0.2H12.7z"/>
		<path fill="#107FB0" d="M12.9,11.3L12.9,11.3l-0.1-0.1l-0.1-0.1h-0.5c0,0.1,0,0.1,0,0.2H12.9z"/>
		<path fill="#1280B0" d="M13.1,11.5L13.1,11.5L13,11.4l-0.1-0.1h-0.8c0,0,0,0.1,0,0.1c0,0,0,0,0,0.1H13.1z"/>
		<path fill="#1380B0" d="M13.3,11.7L13.3,11.7l-0.1-0.1l-0.1-0.1h-1c0,0.1,0,0.1,0,0.2H13.3z"/>
		<path fill="#1481B0" d="M13.5,11.9L13.5,11.9l-0.1-0.1l-0.1-0.1h-1.2c0,0.1,0,0.1,0,0.2H13.5z"/>
		<path fill="#1582B1" d="M13.8,12.1L13.8,12.1L13.6,12l-0.1-0.1h-1.4c0,0.1,0,0.1,0,0.2H13.8z"/>
		<path fill="#1682B1" d="M14,12.3L14,12.3l-0.1-0.1l-0.1-0.1h-1.6c0,0.1,0,0.1,0,0.2H14z"/>
		<path fill="#1883B1" d="M14.2,12.5L14.2,12.5L14,12.4L14,12.3h-1.8c0,0.1,0,0.1,0,0.2H14.2z"/>
		<path fill="#1984B1" d="M14.4,12.7L14.4,12.7l-0.1-0.1l-0.1-0.1h-2c0,0.1,0,0.1,0,0.2H14.4z"/>
		<path fill="#1A84B1" d="M14.6,12.9L14.6,12.9l-0.1-0.1l-0.1-0.1h-2.2c0,0.1,0,0.1,0,0.2H14.6z"/>
		<path fill="#1A85B1" d="M14.8,13.1L14.8,13.1L14.6,13l-0.1-0.1h-2.4c0,0.1,0,0.1,0,0.2H14.8z"/>
		<path fill="#1B86B1" d="M15,13.3L15,13.3l-0.1-0.1l-0.1-0.1h-2.6c0,0.1,0,0.1,0,0.2H15z"/>
		<path fill="#1C86B1" d="M15.2,13.5L15.2,13.5L15,13.4L15,13.3h-2.8c0,0.1,0,0.1,0,0.2H15.2z"/>
		<path fill="#1D87B1" d="M15.4,13.7L15.4,13.7l-0.1-0.1l-0.1-0.1h-3c0,0.1,0,0.1,0,0.2H15.4z"/>
		<path fill="#1E88B1" d="M15.6,13.9L15.6,13.9l-0.1-0.1l-0.1-0.1h-3.3c0,0.1,0,0.1,0,0.2H15.6z"/>
		<path fill="#1F88B2" d="M15.8,14.1L15.8,14.1L15.6,14l-0.1-0.1h-3.5c0,0.1,0,0.1,0,0.2H15.8z"/>
		<path fill="#2089B2" d="M16,14.3L16,14.3l-0.1-0.1l-0.1-0.1h-3.7c0,0.1,0,0.1,0,0.2H16z"/>
		<path fill="#218AB2" d="M16.2,14.5L16.2,14.5L16,14.4L16,14.3h-3.9c0,0.1,0,0.1,0,0.2H16.2z"/>
		<path fill="#228AB2" d="M16.4,14.7L16.4,14.7l-0.2-0.2l0,0h-4.1c0,0.1,0,0.1,0,0.2H16.4z"/>
		<path fill="#238BB2" d="M16.6,14.9L16.6,14.9l-0.2-0.2l0,0h-4.3c0,0.1,0,0.1,0,0.2H16.6z"/>
		<path fill="#248CB2" d="M16.8,15.1L16.8,15.1L16.6,15l0,0h-4.5c0,0.1,0,0.1,0,0.2H16.8z"/>
		<path fill="#248CB2" d="M17,15.3L17,15.3l-0.2-0.2l0,0h-4.7c0,0.1,0,0.1,0,0.2H17z"/>
		<path fill="#258DB2" d="M17.2,15.5L17.2,15.5L17,15.4l0,0h-4.9c0,0.1,0,0.1,0,0.2H17.2z"/>
		<path fill="#268EB2" d="M17.4,15.7L17.4,15.7l-0.2-0.2l0,0h-5.1c0,0.1,0,0.1,0,0.2H17.4z"/>
		<path fill="#278EB2" d="M17.6,15.9L17.6,15.9l-0.2-0.2l0,0h-5.3c0,0.1,0,0.1,0,0.2H17.6z"/>
		<path fill="#288FB2" d="M17.8,16.1L17.8,16.1l-0.2-0.2l0,0h-5.5c0,0.1,0,0.1,0,0.2H17.8z"/>
		<path fill="#2890B3" d="M18,16.3L18,16.3l-0.2-0.2l0,0h-5.7c0,0.1,0,0.1,0,0.2H18z"/>
		<path fill="#2990B3" d="M18.2,16.5L18.2,16.5L18,16.3l0,0h-5.9c0,0.1,0,0.1,0,0.2H18.2z"/>
		<path fill="#2A91B3" d="M18.4,16.7L18.4,16.7l-0.2-0.2l0,0h-6.1c0,0.1,0,0.1,0,0.2H18.4z"/>
		<path fill="#2B92B3" d="M18.6,16.9L18.6,16.9l-0.2-0.2l0,0h-6.3c0,0.1,0,0.1,0,0.2H18.6z"/>
		<path fill="#2B92B3" d="M18.8,17.1L18.8,17.1l-0.2-0.2l0,0h-6.5c0,0.1,0,0.1,0,0.2H18.8z"/>
		<path fill="#2C93B3" d="M19,17.3L19,17.3l-0.2-0.2l0,0h-6.7c0,0.1,0,0.1,0,0.2H19z"/>
		<path fill="#2D94B3" d="M19.2,17.5L19.2,17.5l-0.2-0.2l0,0h-6.9c0,0.1,0,0.1,0,0.2H19.2z"/>
		<path fill="#2E94B3" d="M19.4,17.7L19.4,17.7l-0.2-0.2l0,0h-7.1c0,0.1,0,0.1,0,0.2H19.4z"/>
		<path fill="#2E95B3" d="M19.6,17.9L19.6,17.9l-0.2-0.2l0,0h-7.3c0,0.1,0,0.1,0,0.2H19.6z"/>
		<path fill="#2F96B3" d="M19.9,18.1L19.9,18.1l-0.2-0.2l0,0h-7.5c0,0.1,0,0.1,0,0.2H19.9z"/>
		<path fill="#3096B3" d="M20.1,18.3L20.1,18.3l-0.2-0.2l0,0h-7.7c0,0.1,0,0.1,0,0.2H20.1z"/>
		<path fill="#3097B3" d="M20.3,18.5L20.3,18.5l-0.1-0.1l-0.1-0.1l0,0h-7.9c0,0.1,0,0.1,0,0.2H20.3z"/>
		<path fill="#3198B3" d="M20.5,18.7L20.5,18.7l-0.1-0.1l-0.1-0.1h-8.1c0,0.1,0,0.1,0,0.2H20.5z"/>
		<path fill="#3298B3" d="M20.7,18.9L20.7,18.9l-0.1-0.1l-0.1-0.1h-8.3c0,0.1,0,0.1,0,0.2H20.7z"/>
		<path fill="#3399B3" d="M20.9,19.1L20.9,19.1L20.8,19l-0.1-0.1h-8.5c0,0.1,0,0.1,0,0.2H20.9z"/>
		<path fill="#339AB3" d="M21.1,19.3L21.1,19.3L21,19.2l-0.1-0.1h-8.7c0,0.1,0,0.1,0,0.2H21.1z"/>
		<path fill="#349AB4" d="M21.3,19.5L21.3,19.5l-0.1-0.1l-0.1-0.1h-8.9c0,0.1,0,0.1,0,0.2H21.3z"/>
		<path fill="#359BB4" d="M21.5,19.7L21.5,19.7l-0.1-0.1l-0.1-0.1h-9.1c0,0.1,0,0.1,0,0.2H21.5z"/>
		<path fill="#359CB4" d="M21.7,19.9L21.7,19.9l-0.1-0.1l-0.1-0.1h-9.4c0,0.1,0,0.1,0,0.2H21.7z"/>
		<path fill="#369CB4" d="M21.9,20.1L21.9,20.1L21.8,20l-0.1-0.1h-9.6c0,0.1,0,0.1,0,0.2H21.9z"/>
		<path fill="#379DB4" d="M22.1,20.4L22.1,20.4L22,20.2l-0.1-0.1h-9.8c0,0.1,0,0.1,0,0.2H22.1z"/>
		<path fill="#389DB4" d="M22.3,20.6L22.3,20.6l-0.1-0.1l-0.1-0.1h-10c0,0.1,0,0.1,0,0.2H22.3z"/>
		<path fill="#389EB4" d="M22.5,20.8L22.5,20.8l-0.1-0.1l-0.1-0.1H12.1c0,0.1,0,0.1,0,0.2H22.5z"/>
		<path fill="#399FB4" d="M22.7,21L22.7,21l-0.1-0.1l-0.1-0.1H12.1c0,0.1,0,0.1,0,0.2H22.7z"/>
		<path fill="#3A9FB4" d="M22.9,21.2L22.9,21.2L22.8,21L22.7,21H12.1c0,0.1,0,0.1,0,0.2H22.9z"/>
		<path fill="#3AA0B4" d="M23.1,21.4L23.1,21.4L23,21.2l-0.1-0.1H12.1c0,0.1,0,0.2,0,0.2H23.1z"/>
		<path fill="#3BA1B4" d="M23.1,21.5L23.1,21.5L23.1,21.5l0-0.2h-11c0,0.1,0,0.1,0,0.1s0,0,0,0.1c0,0,0,0,0,0L23.1,21.5L23.1,21.5z"
			/>
		<path fill="#3CA1B4" d="M22.9,21.7L22.9,21.7l0.1-0.1l0.1-0.1l0,0h-11c0,0,0,0,0,0c0,0,0,0,0,0.1c0,0,0,0,0,0.1c0,0,0,0,0,0.1
			c0,0,0,0,0,0L22.9,21.7L22.9,21.7z"/>
		<path fill="#3DA2B4" d="M22.7,22L22.7,22l0.1-0.1l0.1-0.1l0,0H12.1c0,0,0,0,0,0c0,0,0,0,0,0.1c0,0,0,0,0,0.1c0,0,0,0,0,0.1
			c0,0,0,0,0,0L22.7,22L22.7,22z"/>
		<path fill="#3DA3B4" d="M22.5,22.1L22.5,22.1l0.1-0.1l0,0H12.1c0,0,0,0,0,0c0,0,0,0,0,0.1c0,0,0,0,0,0.1c0,0,0,0,0,0L22.5,22.1
			L22.5,22.1z"/>
		<path fill="#3EA3B4" d="M22.3,22.3L22.3,22.3l0.1-0.1l0.1-0.1l0,0H12.1c0,0,0,0,0,0c0,0,0,0,0,0.1s0,0,0,0.1s0,0,0,0.1
			c0,0,0,0,0,0L22.3,22.3L22.3,22.3z"/>
		<path fill="#3FA4B4" d="M22.1,22.6L22.1,22.6l0.1-0.1l0.1-0.1l0,0H12.1c0,0,0,0,0,0c0,0,0,0,0,0.1s0,0,0,0.1c0,0,0,0,0,0.1
			c0,0,0,0,0,0L22.1,22.6L22.1,22.6z"/>
		<path fill="#3FA4B4" d="M21.9,22.7L21.9,22.7l0.1-0.1l0,0h-10c0,0,0,0,0,0c0,0,0,0,0,0.1c0,0,0,0,0,0.1c0,0,0,0,0,0.1L21.9,22.7
			L21.9,22.7z"/>
		<path fill="#40A5B4" d="M21.7,22.9L21.7,22.9l0.1-0.1l0.1-0.1l0,0h-9.8c0,0,0,0,0,0c0,0,0,0,0,0.1s0,0,0,0.1c0,0,0,0,0,0.1
			c0,0,0,0,0,0L21.7,22.9L21.7,22.9z"/>
		<path fill="#41A6B4" d="M21.5,23.2L21.5,23.2l0.1-0.1l0.1-0.1l0,0h-9.6c0,0,0,0,0,0c0,0,0,0,0,0.1c0,0,0,0,0,0.1c0,0,0,0,0,0.1
			c0,0,0,0,0,0L21.5,23.2L21.5,23.2z"/>
		<path fill="#41A6B4" d="M21.3,23.3L21.3,23.3l0.1-0.1l0,0h-9.3c0,0,0,0,0,0c0,0,0,0,0,0.1s0,0,0,0.1c0,0,0,0,0,0.1L21.3,23.3
			L21.3,23.3z"/>
		<path fill="#42A7B4" d="M21.1,23.5L21.1,23.5l0.1-0.1l0.1-0.1l0,0h-9.1c0,0,0,0,0,0c0,0,0,0,0,0.1s0,0,0,0.1s0,0,0,0.1
			c0,0,0,0,0,0L21.1,23.5L21.1,23.5z"/>
		<path fill="#42A8B4" d="M20.9,23.8L20.9,23.8l0.1-0.1l0.1-0.1l0,0h-8.9c0,0,0,0,0,0c0,0,0,0,0,0.1s0,0,0,0.1c0,0,0,0,0,0.1
			c0,0,0,0,0,0L20.9,23.8L20.9,23.8z"/>
		<path fill="#43A8B4" d="M20.7,24L20.7,24l0.1-0.1l0.1-0.1l0,0h-8.7c0,0,0,0,0,0c0,0,0,0,0,0.1c0,0,0,0,0,0.1s0,0,0,0.1
			c0,0,0,0,0,0L20.7,24L20.7,24z"/>
		<path fill="#44A9B4" d="M20.5,24.1L20.5,24.1l0.1-0.1l0.1-0.1h-8.5c0,0,0,0,0,0.1c0,0,0,0,0,0.1s0,0,0,0.1c0,0,0,0,0,0L20.5,24.1
			L20.5,24.1z"/>
		<path fill="#44AAB4" d="M20.3,24.4L20.3,24.4l0.1-0.1l0.1-0.1l0,0h-8.3c0,0,0,0,0,0c0,0,0,0,0,0.1c0,0,0,0,0,0.1c0,0,0,0,0,0.1
			c0,0,0,0,0,0L20.3,24.4L20.3,24.4z"/>
		<path fill="#45AAB4" d="M20.1,24.6L20.1,24.6l0.1-0.1l0.1-0.1l0,0h-8.1c0,0,0,0,0,0c0,0,0,0,0,0.1c0,0,0,0,0,0.1c0,0,0,0,0,0.1
			c0,0,0,0,0,0L20.1,24.6L20.1,24.6z"/>
		<path fill="#45ABB4" d="M19.9,24.7L19.9,24.7l0.1-0.1l0.1-0.1h-7.9c0,0,0,0,0,0.1c0,0,0,0,0,0.1s0,0,0,0.1c0,0,0,0,0,0L19.9,24.7
			L19.9,24.7z"/>
		<path fill="#46ABB4" d="M19.7,25L19.7,25l0.1-0.1l0.1-0.1l0,0h-7.7c0,0,0,0,0,0c0,0,0,0,0,0.1c0,0,0,0,0,0.1c0,0,0,0,0,0.1
			c0,0,0,0,0,0L19.7,25L19.7,25z"/>
		<path fill="#47ACB4" d="M19.4,25.2L19.4,25.2l0.1-0.1l0.1-0.1l0,0h-7.5c0,0,0,0,0,0c0,0,0,0,0,0.1c0,0,0,0,0,0.1s0,0,0,0.1
			c0,0,0,0,0,0L19.4,25.2L19.4,25.2z"/>
		<path fill="#47ADB4" d="M19.3,25.3L19.3,25.3l0.1-0.1l0,0h-7.3c0,0,0,0,0,0c0,0,0,0,0,0.1c0,0,0,0,0,0.1c0,0,0,0,0,0L19.3,25.3
			L19.3,25.3z"/>
		<path fill="#48ADB4" d="M19.1,25.6L19.1,25.6l0.1-0.1l0.1-0.1l0,0h-7.1c0,0,0,0,0,0c0,0,0,0,0,0.1c0,0,0,0,0,0.1c0,0,0,0,0,0.1
			c0,0,0,0,0,0L19.1,25.6L19.1,25.6z"/>
		<path fill="#48AEB4" d="M18.8,25.8L18.8,25.8l0.1-0.1l0.1-0.1l0,0h-6.9c0,0,0,0,0,0c0,0,0,0,0,0.1s0,0,0,0.1c0,0,0,0,0,0.1
			c0,0,0,0,0,0L18.8,25.8L18.8,25.8z"/>
		<path fill="#49AFB4" d="M18.7,25.9L18.7,25.9l0.1-0.1l0,0h-6.7c0,0,0,0,0,0c0,0,0,0,0,0.1c0,0,0,0,0,0.1c0,0,0,0,0,0L18.7,25.9
			L18.7,25.9z"/>
		<path fill="#49AFB4" d="M18.5,26.2L18.5,26.2l0.1-0.1l0.1-0.1l0,0h-6.5c0,0,0,0,0,0c0,0,0,0,0,0.1c0,0,0,0,0,0.1c0,0,0,0,0,0.1
			c0,0,0,0,0,0L18.5,26.2L18.5,26.2z"/>
		<path fill="#4AB0B4" d="M18.2,26.4L18.2,26.4l0.1-0.1l0.1-0.1l0,0h-6.3c0,0,0,0,0,0c0,0,0,0,0,0.1c0,0,0,0,0,0.1s0,0,0,0.1
			c0,0,0,0,0,0L18.2,26.4L18.2,26.4z"/>
		<path fill="#4BB0B4" d="M18.1,26.6L18.1,26.6l0.1-0.1l0,0h-6.1c0,0,0,0,0,0c0,0,0,0,0,0.1c0,0,0,0,0,0.1c0,0,0,0,0,0L18.1,26.6
			L18.1,26.6z"/>
		<path fill="#4BB1B4" d="M17.8,26.8L17.8,26.8l0.1-0.1l0.1-0.1l0,0h-5.9c0,0,0,0,0,0c0,0,0,0,0,0.1c0,0,0,0,0,0.1s0,0,0,0.1
			c0,0,0,0,0,0L17.8,26.8L17.8,26.8z"/>
		<path fill="#4CB2B4" d="M17.6,27L17.6,27l0.1-0.1l0.1-0.1l0,0h-5.7c0,0,0,0,0,0c0,0,0,0,0,0.1c0,0,0,0,0,0.1s0,0,0,0.1
			c0,0,0,0,0,0L17.6,27L17.6,27z"/>
		<path fill="#4CB2B4" d="M17.5,27.2L17.5,27.2l0.1-0.1l0,0h-5.5c0,0,0,0,0,0c0,0,0,0,0,0.1c0,0,0,0,0,0.1c0,0,0,0,0,0L17.5,27.2
			L17.5,27.2z"/>
		<path fill="#4DB3B4" d="M17.2,27.4L17.2,27.4l0.1-0.1l0.1-0.1l0,0h-5.3c0,0,0,0,0,0c0,0,0,0,0,0.1s0,0,0,0.1c0,0,0,0,0,0.1
			c0,0,0,0,0,0L17.2,27.4L17.2,27.4z"/>
		<path fill="#4DB4B4" d="M17,27.6L17,27.6l0.1-0.1l0.1-0.1l0,0h-5.1c0,0,0,0,0,0c0,0,0,0,0,0.1c0,0,0,0,0,0.1c0,0,0,0,0,0.1
			c0,0,0,0,0,0L17,27.6L17,27.6z"/>
		<path fill="#4EB4B4" d="M16.9,27.8L16.9,27.8l0.1-0.1l0,0h-4.9c0,0,0,0,0,0c0,0,0,0,0,0.1s0,0,0,0.1c0,0,0,0,0,0.1L16.9,27.8
			L16.9,27.8z"/>
		<path fill="#4FB5B4" d="M16.6,28L16.6,28l0.1-0.1l0.1-0.1l0,0h-4.7c0,0,0,0,0,0c0,0,0,0,0,0.1c0,0,0,0,0,0.1c0,0,0,0,0,0.1
			c0,0,0,0,0,0L16.6,28L16.6,28z"/>
		<path fill="#4FB5B4" d="M16.4,28.2L16.4,28.2l0.1-0.1l0.1-0.1l0,0h-4.5c0,0,0,0,0,0c0,0,0,0,0,0.1c0,0,0,0,0,0.1c0,0,0,0,0,0.1
			c0,0,0,0,0,0L16.4,28.2L16.4,28.2z"/>
		<path fill="#50B6B4" d="M16.2,28.4L16.2,28.4l0.1-0.1l0,0h-4.3c0,0,0,0,0,0c0,0,0,0,0,0.1c0,0,0,0,0,0.1c0,0,0,0,0,0.1L16.2,28.4
			L16.2,28.4z"/>
		<path fill="#50B7B4" d="M16,28.6L16,28.6l0.1-0.1l0.1-0.1l0,0h-4.1c0,0,0,0,0,0c0,0,0,0,0,0.1c0,0,0,0,0,0.1c0,0,0,0,0,0.1
			c0,0,0,0,0,0L16,28.6L16,28.6z"/>
		<path fill="#51B7B3" d="M15.8,28.8L15.8,28.8l0.1-0.1l0.1-0.1l0,0h-3.9c0,0,0,0,0,0c0,0,0,0,0,0.1c0,0,0,0,0,0.1c0,0,0,0,0,0.1
			c0,0,0,0,0,0L15.8,28.8L15.8,28.8z"/>
		<path fill="#51B8B3" d="M15.6,29L15.6,29l0.1-0.1l0.1-0.1l0,0h-3.7c0,0,0,0,0,0c0,0,0,0,0,0.1s0,0,0,0.1c0,0,0,0,0,0.1
			c0,0,0,0,0,0L15.6,29L15.6,29z"/>
		<path fill="#52B8B3" d="M15.4,29.2L15.4,29.2l0.1-0.1l0.1-0.1h-3.5c0,0,0,0,0,0.1c0,0,0,0,0,0.1c0,0,0,0,0,0.1c0,0,0,0,0,0
			L15.4,29.2L15.4,29.2z"/>
		<path fill="#52B9B3" d="M15.2,29.4L15.2,29.4l0.1-0.1l0.1-0.1l0,0h-3.3c0,0,0,0,0,0c0,0,0,0,0,0.1s0,0,0,0.1s0,0,0,0.1
			c0,0,0,0,0,0L15.2,29.4L15.2,29.4z"/>
		<path fill="#53B9B3" d="M15,29.6L15,29.6l0.1-0.1l0.1-0.1l0,0h-3c0,0,0,0,0,0c0,0,0,0,0,0.1c0,0,0,0,0,0.1c0,0,0,0,0,0.1
			c0,0,0,0,0,0L15,29.6L15,29.6z"/>
		<path fill="#53BAB3" d="M14.8,29.8L14.8,29.8l0.1-0.1l0.1-0.1h-2.8c0,0,0,0,0,0.1c0,0,0,0,0,0.1s0,0,0,0.1c0,0,0,0,0,0L14.8,29.8
			L14.8,29.8z"/>
		<path fill="#54BBB3" d="M14.6,30L14.6,30l0.1-0.1l0.1-0.1l0,0h-2.6c0,0,0,0,0,0c0,0,0,0,0,0.1c0,0,0,0,0,0.1c0,0,0,0,0,0.1
			c0,0,0,0,0,0L14.6,30L14.6,30z"/>
		<path fill="#54BBB3" d="M14.4,30.2L14.4,30.2l0.1-0.1l0.1-0.1l0,0h-2.4c0,0,0,0,0,0c0,0,0,0,0,0.1s0,0,0,0.1s0,0,0,0.1
			c0,0,0,0,0,0L14.4,30.2L14.4,30.2z"/>
		<path fill="#55BCB3" d="M14.2,30.4L14.2,30.4l0.1-0.1l0.1-0.1h-2.2c0,0,0,0,0,0.1c0,0,0,0,0,0.1s0,0,0,0.1c0,0,0,0,0,0L14.2,30.4
			L14.2,30.4z"/>
		<path fill="#55BCB3" d="M14,30.6L14,30.6l0.1-0.1l0.1-0.1l0,0h-2c0,0,0,0,0,0c0,0,0,0,0,0.1s0,0,0,0.1c0,0,0,0,0,0.1c0,0,0,0,0,0
			L14,30.6L14,30.6z"/>
		<path fill="#56BDB3" d="M13.8,30.8L13.8,30.8l0.1-0.1l0.1-0.1l0,0h-1.8c0,0,0,0,0,0c0,0,0,0,0,0.1s0,0,0,0.1s0,0,0,0.1
			c0,0,0,0,0,0L13.8,30.8L13.8,30.8z"/>
		<path fill="#56BEB3" d="M13.6,31L13.6,31l0.1-0.1l0,0h-1.6c0,0,0,0,0,0c0,0,0,0,0,0.1c0,0,0,0,0,0.1c0,0,0,0,0,0L13.6,31L13.6,31z
			"/>
		<path fill="#56BEB3" d="M13.4,31.2L13.4,31.2l0.1-0.1l0.1-0.1l0,0h-1.4c0,0,0,0,0,0c0,0,0,0,0,0.1c0,0,0,0,0,0.1c0,0,0,0,0,0.1
			c0,0,0,0,0,0L13.4,31.2L13.4,31.2z"/>
		<path fill="#57BFB3" d="M13.2,31.4L13.2,31.4l0.1-0.1l0.1-0.1l0,0h-1.2c0,0,0,0,0,0c0,0,0,0,0,0.1c0,0,0,0,0,0.1c0,0,0,0,0,0.1
			c0,0,0,0,0,0L13.2,31.4L13.2,31.4z"/>
		<path fill="#57C0B3" d="M13,31.6L13,31.6l0.1-0.1l0,0h-1c0,0,0,0,0,0c0,0,0,0,0,0.1c0,0,0,0,0,0.1c0,0,0,0,0,0L13,31.6L13,31.6z"
			/>
		<path fill="#57C0B3" d="M12.8,31.8L12.8,31.8l0.1-0.1l0.1-0.1l0,0h-0.8c0,0,0,0,0,0c0,0,0,0,0,0.1c0,0,0,0,0,0c0,0.1,0,0.1,0,0.1
			L12.8,31.8L12.8,31.8z"/>
		<path fill="#57C1B3" d="M12.5,32L12.5,32l0.1-0.1l0.1-0.1l0,0h-0.6c0,0.1,0,0.1,0.1,0.2L12.5,32L12.5,32z"/>
		<path fill="#58C2B4" d="M12.5,32.1L12.5,32.1l-0.2,0C12.3,32.1,12.3,32.1,12.5,32.1L12.5,32.1L12.5,32.1z"/>
		<path fill="#2BBBA7" d="M12.5,10.8C12.5,10.8,12.5,10.8,12.5,10.8L12.5,10.8L12.5,10.8z"/>
		<path fill="#2EBBA7" d="M12.5,10.9L12.5,10.9L12.5,10.9C12.6,10.8,12.6,10.8,12.5,10.9L12.5,10.9L12.5,10.9z"/>
		<path fill="#31BBA7" d="M12.6,11l0.1,0.1v-0.3c0,0-0.1,0-0.1,0V11z"/>
		<path fill="#33BBA7" d="M12.7,11.1L12.7,11.1l0.1,0.1v-0.3c0,0-0.1,0-0.1,0V11.1z"/>
		<path fill="#36BCA7" d="M12.8,11.2l0.1,0.1v-0.4c0,0-0.1,0-0.1,0V11.2z"/>
		<path fill="#38BCA6" d="M12.9,11.3L12.9,11.3l0.1,0.1v-0.4c0,0-0.1,0-0.1,0V11.3z"/>
		<path fill="#3BBCA6" d="M13,11.4l0.1,0.1V11c0,0,0,0,0,0c0,0,0,0-0.1,0V11.4z"/>
		<path fill="#3DBDA6" d="M13.1,11.5L13.1,11.5l0.1,0.1V11c0,0-0.1,0-0.1-0.1V11.5z"/>
		<path fill="#3FBDA6" d="M13.2,11.6l0.1,0.1v-0.6c0,0-0.1,0-0.1-0.1V11.6z"/>
		<path fill="#41BDA6" d="M13.3,11.7L13.3,11.7l0.1,0.1v-0.6c0,0-0.1,0-0.1-0.1V11.7z"/>
		<path fill="#43BDA6" d="M13.4,11.8l0.1,0.1v-0.7c0,0-0.1,0-0.1-0.1V11.8z"/>
		<path fill="#45BEA6" d="M13.5,11.9L13.5,11.9l0.1,0.1v-0.7c0,0-0.1,0-0.1-0.1V11.9z"/>
		<path fill="#47BEA6" d="M13.6,12l0.1,0.1v-0.7c0,0-0.1,0-0.1-0.1V12z"/>
		<path fill="#49BEA5" d="M13.7,12.1L13.7,12.1l0.1,0.1v-0.8c0,0-0.1,0-0.1-0.1V12.1z"/>
		<path fill="#4BBEA5" d="M13.8,12.2l0.1,0.1v-0.8c0,0-0.1,0-0.1-0.1V12.2z"/>
		<path fill="#4CBFA5" d="M13.9,12.3L13.9,12.3l0.1,0.1v-0.9c0,0-0.1,0-0.1-0.1V12.3z"/>
		<path fill="#4EBFA5" d="M14,12.4l0.1,0.1v-0.9c0,0-0.1,0-0.1-0.1V12.4z"/>
		<path fill="#50BFA5" d="M14.1,12.5L14.1,12.5l0.1,0.1v-1c0,0-0.1,0-0.1-0.1V12.5z"/>
		<path fill="#51C0A5" d="M14.2,12.6l0.1,0.1v-1c0,0-0.1,0-0.1-0.1V12.6z"/>
		<path fill="#53C0A5" d="M14.3,12.7L14.3,12.7l0.1,0.1v-1c0,0-0.1,0-0.1-0.1V12.7z"/>
		<path fill="#55C0A4" d="M14.4,12.8l0.1,0.1v-1.1c0,0-0.1,0-0.1-0.1V12.8z"/>
		<path fill="#56C0A4" d="M14.5,12.9L14.5,12.9l0.1,0.1v-1.1c0,0-0.1,0-0.1-0.1V12.9z"/>
		<path fill="#58C1A4" d="M14.6,13l0.1,0.1v-1.2c0,0-0.1,0-0.1-0.1V13z"/>
		<path fill="#59C1A4" d="M14.7,13.1L14.7,13.1l0.1,0.1V12c0,0-0.1,0-0.1-0.1V13.1z"/>
		<path fill="#5BC1A4" d="M14.8,13.2l0.1,0.1V12c0,0-0.1,0-0.1-0.1V13.2z"/>
		<path fill="#5CC1A4" d="M14.9,13.3L14.9,13.3l0.1,0.1v-1.3c0,0-0.1,0-0.1-0.1V13.3z"/>
		<path fill="#5EC2A4" d="M15,13.4l0.1,0.1v-1.3c0,0-0.1,0-0.1-0.1V13.4z"/>
		<path fill="#5FC2A4" d="M15.1,13.5L15.1,13.5l0.1,0.1v-1.4c0,0-0.1,0-0.1-0.1V13.5z"/>
		<path fill="#61C2A3" d="M15.2,13.6l0.1,0.1v-1.4c0,0-0.1,0-0.1-0.1V13.6z"/>
		<path fill="#62C3A3" d="M15.3,13.7L15.3,13.7l0.1,0.1v-1.5c0,0-0.1,0-0.1-0.1V13.7z"/>
		<path fill="#64C3A3" d="M15.4,13.8l0.1,0.1v-1.5c0,0-0.1,0-0.1-0.1V13.8z"/>
		<path fill="#65C3A3" d="M15.5,13.9L15.5,13.9l0.1,0.1v-1.5c0,0-0.1,0-0.1-0.1V13.9z"/>
		<path fill="#66C3A3" d="M15.6,14l0.1,0.1v-1.6c0,0-0.1,0-0.1-0.1V14z"/>
		<path fill="#68C4A3" d="M15.7,14.1L15.7,14.1l0.1,0.1v-1.6c0,0-0.1,0-0.1-0.1V14.1z"/>
		<path fill="#69C4A3" d="M15.8,14.2l0.1,0.1v-1.7c0,0-0.1,0-0.1-0.1V14.2z"/>
		<path fill="#6AC4A2" d="M15.9,14.3L15.9,14.3l0.1,0.1v-1.7c0,0-0.1,0-0.1-0.1V14.3z"/>
		<path fill="#6CC5A2" d="M16,14.4l0.1,0.1v-1.7c0,0-0.1,0-0.1-0.1V14.4z"/>
		<path fill="#6DC5A2" d="M16.1,14.5L16.1,14.5l0.1,0.1v-1.8c0,0-0.1,0-0.1-0.1V14.5z"/>
		<path fill="#6EC5A2" d="M16.2,14.6l0.1,0.1v-1.8c0,0-0.1,0-0.1-0.1V14.6z"/>
		<path fill="#6FC5A2" d="M16.3,14.7L16.3,14.7l0.1,0.1v-1.9c0,0-0.1,0-0.1-0.1V14.7z"/>
		<path fill="#71C6A2" d="M16.4,14.8l0.1,0.1v-1.9c0,0-0.1,0-0.1-0.1V14.8z"/>
		<path fill="#72C6A2" d="M16.5,14.9L16.5,14.9l0.1,0.1v-2c0,0-0.1,0-0.1-0.1V14.9z"/>
		<path fill="#73C6A1" d="M16.6,15l0.1,0.1v-2c0,0-0.1,0-0.1-0.1V15z"/>
		<path fill="#74C7A1" d="M16.7,15.1L16.7,15.1l0.1,0.1v-2c0,0-0.1,0-0.1-0.1V15.1z"/>
		<path fill="#76C7A1" d="M16.8,15.2l0.1,0.1v-2.1c0,0-0.1,0-0.1-0.1V15.2z"/>
		<path fill="#77C7A1" d="M16.9,15.3L16.9,15.3l0.1,0.1v-2.1c0,0-0.1,0-0.1-0.1V15.3z"/>
		<path fill="#78C7A1" d="M17,15.4l0.1,0.1v-2.2c0,0-0.1,0-0.1-0.1V15.4z"/>
		<path fill="#79C8A1" d="M17.1,15.5L17.1,15.5l0.1,0.1v-2.2c0,0-0.1,0-0.1-0.1V15.5z"/>
		<path fill="#7AC8A1" d="M17.2,15.5l0.1,0.1v-2.2c0,0-0.1,0-0.1-0.1V15.5z"/>
		<path fill="#7BC8A0" d="M17.3,15.6L17.3,15.6l0.1,0.1v-2.3c0,0-0.1,0-0.1-0.1V15.6z"/>
		<path fill="#7DC9A0" d="M17.4,15.7l0.1,0.1v-2.3c0,0-0.1,0-0.1-0.1V15.7z"/>
		<path fill="#7EC9A0" d="M17.5,15.8L17.5,15.8l0.1,0.1v-2.4c0,0-0.1,0-0.1-0.1V15.8z"/>
		<path fill="#7FC9A0" d="M17.6,15.9l0.1,0.1v-2.4c0,0-0.1,0-0.1-0.1V15.9z"/>
		<path fill="#80CAA0" d="M17.7,16L17.7,16l0.1,0.1v-2.4c0,0-0.1,0-0.1-0.1V16z"/>
		<path fill="#81CAA0" d="M17.8,16.1l0.1,0.1v-2.5c0,0-0.1,0-0.1-0.1V16.1z"/>
		<path fill="#82CAA0" d="M17.9,16.2L17.9,16.2l0.1,0.1v-2.5c0,0-0.1,0-0.1-0.1V16.2z"/>
		<path fill="#84CA9F" d="M18,16.3l0.1,0.1v-2.6c0,0-0.1,0-0.1-0.1V16.3z"/>
		<path fill="#85CB9F" d="M18.1,16.4L18.1,16.4l0.1,0.1v-2.6c0,0-0.1,0-0.1-0.1V16.4z"/>
		<path fill="#86CB9F" d="M18.2,16.5l0.1,0.1V14c0,0-0.1,0-0.1-0.1V16.5z"/>
		<path fill="#87CB9F" d="M18.4,16.6L18.4,16.6l0.1,0.1V14c0,0-0.1,0-0.1-0.1V16.6z"/>
		<path fill="#88CC9F" d="M18.5,16.7l0.1,0.1v-2.7c0,0-0.1,0-0.1-0.1V16.7z"/>
		<path fill="#89CC9F" d="M18.6,16.8L18.6,16.8l0.1,0.1v-2.8c0,0-0.1,0-0.1-0.1V16.8z"/>
		<path fill="#8ACC9E" d="M18.7,16.9l0.1,0.1v-2.8c0,0-0.1,0-0.1-0.1V16.9z"/>
		<path fill="#8BCD9E" d="M18.8,17L18.8,17l0.1,0.1v-2.9c0,0-0.1,0-0.1-0.1V17z"/>
		<path fill="#8DCD9E" d="M18.9,17.1l0.1,0.1v-2.9c0,0-0.1,0-0.1-0.1V17.1z"/>
		<path fill="#8ECD9E" d="M19,17.2L19,17.2l0.1,0.1v-2.9c0,0-0.1,0-0.1-0.1V17.2z"/>
		<path fill="#8FCD9E" d="M19.1,17.3l0.1,0.1v-3c0,0-0.1,0-0.1-0.1V17.3z"/>
		<path fill="#90CE9E" d="M19.2,17.4L19.2,17.4l0.1,0.1v-3c0,0-0.1,0-0.1-0.1V17.4z"/>
		<path fill="#91CE9E" d="M19.3,17.5l0.1,0.1v-3.1c0,0-0.1,0-0.1-0.1V17.5z"/>
		<path fill="#92CE9D" d="M19.4,17.6L19.4,17.6l0.1,0.1v-3.1c0,0-0.1,0-0.1-0.1V17.6z"/>
		<path fill="#93CF9D" d="M19.5,17.7l0.1,0.1v-3.2c0,0-0.1,0-0.1-0.1V17.7z"/>
		<path fill="#94CF9D" d="M19.6,17.8L19.6,17.8l0.1,0.1v-3.2c0,0-0.1,0-0.1-0.1V17.8z"/>
		<path fill="#95CF9D" d="M19.7,17.9l0.1,0.1v-3.2c0,0-0.1,0-0.1-0.1V17.9z"/>
		<path fill="#96D09D" d="M19.8,18L19.8,18l0.1,0.1v-3.3c0,0-0.1,0-0.1-0.1V18z"/>
		<path fill="#97D09D" d="M19.9,18.1l0.1,0.1v-3.3c0,0-0.1,0-0.1-0.1V18.1z"/>
		<path fill="#99D09C" d="M20,18.2L20,18.2l0.1,0.1V15c0,0-0.1,0-0.1-0.1V18.2z"/>
		<path fill="#9AD19C" d="M20.1,18.3l0.1,0.1V15c0,0-0.1,0-0.1-0.1V18.3z"/>
		<path fill="#9BD19C" d="M20.2,18.4l0.1,0.1v-3.4c0,0-0.1,0-0.1-0.1V18.4z"/>
		<path fill="#9CD19C" d="M20.3,18.5L20.3,18.5l0.1,0.1v-3.5c0,0-0.1,0-0.1-0.1V18.5z"/>
		<path fill="#9DD29C" d="M20.4,18.6l0.1,0.1v-3.5c0,0-0.1,0-0.1-0.1V18.6z"/>
		<path fill="#9ED29C" d="M20.5,18.7L20.5,18.7l0.1,0.1v-3.6c0,0-0.1,0-0.1-0.1V18.7z"/>
		<path fill="#9FD29C" d="M20.6,18.8l0.1,0.1v-3.6c0,0-0.1,0-0.1-0.1V18.8z"/>
		<path fill="#A0D39B" d="M20.7,18.9L20.7,18.9l0.1,0.1v-3.7c0,0-0.1,0-0.1-0.1V18.9z"/>
		<path fill="#A1D39B" d="M20.8,19l0.1,0.1v-3.7c0,0-0.1,0-0.1-0.1V19z"/>
		<path fill="#A2D39B" d="M20.9,19.1L20.9,19.1l0.1,0.1v-3.7c0,0-0.1,0-0.1-0.1V19.1z"/>
		<path fill="#A3D49B" d="M21,19.2l0.1,0.1v-3.8c0,0-0.1,0-0.1-0.1V19.2z"/>
		<path fill="#A4D49B" d="M21.1,19.3L21.1,19.3l0.1,0.1v-3.8c0,0-0.1,0-0.1-0.1V19.3z"/>
		<path fill="#A5D49B" d="M21.2,19.4l0.1,0.1v-3.9c0,0-0.1,0-0.1-0.1V19.4z"/>
		<path fill="#A6D59A" d="M21.3,19.5L21.3,19.5l0.1,0.1v-3.9c0,0-0.1,0-0.1-0.1V19.5z"/>
		<path fill="#A7D59A" d="M21.4,19.6l0.1,0.1v-3.9c0,0-0.1,0-0.1-0.1V19.6z"/>
		<path fill="#A8D59A" d="M21.5,19.7L21.5,19.7l0.1,0.1v-4c0,0-0.1,0-0.1-0.1V19.7z"/>
		<path fill="#AAD69A" d="M21.6,19.8l0.1,0.1v-4l-0.1,0c0,0,0,0,0,0V19.8z"/>
		<polygon fill="#ABD69A" points="21.7,19.9 21.7,19.9 21.8,20 21.8,16 21.7,15.9 21.7,15.9 		"/>
		<polygon fill="#ACD69A" points="21.8,20 21.9,20.1 21.9,16 21.8,16 		"/>
		<polygon fill="#ADD799" points="21.9,20.1 21.9,20.1 22,20.2 22,16.1 21.9,16 		"/>
		<polygon fill="#AED799" points="22,20.2 22.1,20.3 22.1,16.1 22,16.1 		"/>
		<polygon fill="#AFD799" points="22.1,20.3 22.1,20.4 22.2,20.4 22.2,16.2 22.1,16.1 		"/>
		<polygon fill="#B0D899" points="22.2,20.4 22.3,20.5 22.3,16.2 22.2,16.2 		"/>
		<polygon fill="#B1D899" points="22.3,20.5 22.3,20.6 22.4,20.6 22.4,16.3 22.3,16.2 		"/>
		<polygon fill="#B2D899" points="22.4,20.6 22.5,20.7 22.5,16.4 22.4,16.3 		"/>
		<polygon fill="#B3D998" points="22.5,20.7 22.5,20.8 22.6,20.8 22.6,16.4 22.5,16.4 		"/>
		<polygon fill="#B4D998" points="22.6,20.8 22.7,20.9 22.7,16.5 22.6,16.4 		"/>
		<polygon fill="#B5D998" points="22.7,20.9 22.7,21 22.8,21 22.8,16.5 22.7,16.5 		"/>
		<polygon fill="#B6DA98" points="22.8,21 22.9,21.1 22.9,16.6 22.8,16.5 		"/>
		<polygon fill="#B7DA98" points="22.9,21.1 22.9,21.2 23,21.2 23,16.7 22.9,16.6 		"/>
		<polygon fill="#B8DA98" points="23,21.2 23.1,21.3 23.1,16.7 23,16.7 		"/>
		<polygon fill="#B9DB97" points="23.1,21.3 23.1,21.4 23.2,21.4 23.2,16.8 23.1,16.7 		"/>
		<polygon fill="#BADB97" points="23.2,21.4 23.2,21.5 23.3,21.4 23.3,16.8 23.2,16.8 		"/>
		<polygon fill="#BBDB97" points="23.3,21.4 23.3,21.4 23.3,21.3 23.4,21.3 23.4,16.9 23.3,16.8 		"/>
		<polygon fill="#BCDC97" points="23.4,21.3 23.4,21.3 23.5,21.2 23.5,16.9 23.4,16.9 		"/>
		<polygon fill="#BDDC97" points="23.5,21.2 23.5,21.2 23.6,21.1 23.6,21.1 23.6,17 23.5,16.9 		"/>
		<polygon fill="#BEDC96" points="23.6,21.1 23.6,21 23.7,21 23.7,17.1 23.6,17 		"/>
		<polygon fill="#BFDD96" points="23.7,21 23.7,21 23.8,20.9 23.8,20.9 23.8,17.1 23.7,17.1 		"/>
		<polygon fill="#C0DD96" points="23.8,20.9 23.8,20.8 23.9,20.8 23.9,17.2 23.8,17.1 		"/>
		<polygon fill="#C1DD96" points="23.9,20.8 23.9,20.8 24,20.7 24,20.7 24,17.2 23.9,17.2 		"/>
		<polygon fill="#C2DE96" points="24,20.7 24,20.6 24.1,20.6 24.1,17.3 24,17.2 		"/>
		<polygon fill="#C3DE96" points="24.1,20.6 24.1,20.6 24.2,20.5 24.2,17.3 24.1,17.3 		"/>
		<polygon fill="#C4DE95" points="24.2,20.5 24.2,20.5 24.2,20.4 24.3,20.4 24.3,17.4 24.2,17.3 		"/>
		<polygon fill="#C5DF95" points="24.3,20.4 24.3,20.4 24.4,20.3 24.4,17.5 24.3,17.4 		"/>
		<polygon fill="#C6DF95" points="24.4,20.3 24.4,20.3 24.4,20.2 24.5,20.2 24.5,17.5 24.4,17.5 		"/>
		<polygon fill="#C7E095" points="24.5,20.2 24.5,20.2 24.6,20.1 24.6,17.6 24.5,17.5 		"/>
		<polygon fill="#C8E095" points="24.6,20.1 24.6,20.1 24.7,20 24.7,20 24.7,17.6 24.6,17.6 		"/>
		<polygon fill="#C9E094" points="24.7,20 24.7,19.9 24.8,19.9 24.8,17.7 24.7,17.6 		"/>
		<polygon fill="#CAE194" points="24.8,19.9 24.8,19.9 24.9,19.8 24.9,19.8 24.9,17.8 24.8,17.7 		"/>
		<polygon fill="#CBE194" points="24.9,19.8 24.9,19.7 25,19.7 25,17.8 24.9,17.8 		"/>
		<polygon fill="#CCE194" points="25,19.7 25,19.7 25.1,19.6 25.1,19.6 25.1,17.9 25,17.8 		"/>
		<polygon fill="#CDE294" points="25.1,19.6 25.1,19.5 25.2,19.5 25.2,17.9 25.1,17.9 		"/>
		<polygon fill="#CEE293" points="25.2,19.5 25.2,19.5 25.3,19.4 25.3,18 25.2,17.9 		"/>
		<polygon fill="#CFE293" points="25.3,19.4 25.3,19.4 25.3,19.3 25.4,19.3 25.4,18 25.3,18 		"/>
		<polygon fill="#D0E393" points="25.4,19.3 25.4,19.3 25.5,19.2 25.5,18.1 25.4,18 		"/>
		<polygon fill="#D1E393" points="25.5,19.2 25.5,19.2 25.6,19.1 25.6,19.1 25.6,18.2 25.5,18.1 		"/>
		<polygon fill="#D2E393" points="25.6,19.1 25.6,19.1 25.7,19 25.7,18.2 25.6,18.2 		"/>
		<polygon fill="#D3E493" points="25.7,19 25.7,19 25.8,18.9 25.8,18.9 25.8,18.3 25.7,18.2 		"/>
		<polygon fill="#D4E492" points="25.8,18.9 25.8,18.9 25.9,18.8 25.9,18.3 25.8,18.3 		"/>
		<polygon fill="#D5E492" points="25.9,18.8 25.9,18.8 26,18.7 26,18.7 26,18.4 25.9,18.3 		"/>
		<polygon fill="#D6E592" points="26,18.7 26,18.6 26.1,18.6 26.1,18.4 26,18.4 		"/>
		<polygon fill="#D7E592" points="26.1,18.6 26.1,18.6 26.2,18.5 26.1,18.4 		"/>
		<polygon fill="#EF433E" points="23.3,21.5 23.2,21.5 23.2,21.5 23.1,21.5 		"/>
		<polygon fill="#EE433F" points="23.3,21.6 23.3,21.5 23.3,21.5 23.1,21.5 23.1,21.6 23.1,21.6 		"/>
		<polygon fill="#EE4340" points="23.4,21.6 23.3,21.6 23.3,21.6 23.1,21.6 23,21.6 		"/>
		<polygon fill="#ED4340" points="23.4,21.7 23.4,21.7 23.4,21.6 23,21.6 23,21.7 		"/>
		<polygon fill="#EC4341" points="23.5,21.7 23.4,21.7 23,21.7 22.9,21.7 		"/>
		<polygon fill="#EC4342" points="23.5,21.8 23.5,21.7 23.5,21.7 22.9,21.7 22.9,21.8 22.9,21.8 		"/>
		<polygon fill="#EB4442" points="23.6,21.8 23.6,21.8 23.5,21.8 22.9,21.8 22.8,21.8 		"/>
		<polygon fill="#EA4443" points="23.6,21.9 23.6,21.9 23.6,21.8 22.8,21.8 22.8,21.9 		"/>
		<polygon fill="#EA4444" points="23.7,22 23.7,21.9 23.6,21.9 22.8,21.9 22.7,22 		"/>
		<polygon fill="#E94444" points="23.8,22 23.7,22 22.7,22 22.7,22 22.7,22 		"/>
		<polygon fill="#E94445" points="23.8,22.1 23.8,22 23.8,22 22.7,22 22.6,22.1 		"/>
		<polygon fill="#E84446" points="23.9,22.1 23.8,22.1 23.8,22.1 22.6,22.1 22.5,22.1 		"/>
		<polygon fill="#E84446" points="23.9,22.2 23.9,22.1 23.9,22.1 22.5,22.1 22.5,22.2 22.5,22.2 		"/>
		<polygon fill="#E74447" points="24,22.2 24,22.2 23.9,22.2 22.5,22.2 22.4,22.2 		"/>
		<polygon fill="#E74448" points="24,22.3 24,22.2 22.4,22.2 22.4,22.3 		"/>
		<polygon fill="#E64448" points="24.1,22.3 24,22.3 24,22.3 22.4,22.3 22.3,22.3 		"/>
		<polygon fill="#E64449" points="24.1,22.4 24.1,22.4 24.1,22.3 22.3,22.3 22.3,22.4 22.3,22.4 		"/>
		<polygon fill="#E6444A" points="24.2,22.4 24.2,22.4 24.1,22.4 22.3,22.4 22.2,22.4 		"/>
		<polygon fill="#E5444A" points="24.3,22.5 24.2,22.5 24.2,22.4 22.2,22.4 22.2,22.5 		"/>
		<polygon fill="#E5444B" points="24.3,22.6 24.3,22.5 22.2,22.5 22.1,22.6 		"/>
		<polygon fill="#E4444B" points="24.4,22.6 24.3,22.6 24.3,22.6 22.1,22.6 22.1,22.6 22,22.6 		"/>
		<polygon fill="#E4444C" points="24.4,22.7 24.4,22.6 24.4,22.6 22,22.6 22,22.7 		"/>
		<polygon fill="#E3444D" points="24.5,22.7 24.5,22.7 24.4,22.7 22,22.7 21.9,22.7 		"/>
		<polygon fill="#E3444D" points="24.5,22.8 24.5,22.8 24.5,22.7 21.9,22.7 21.9,22.8 21.9,22.8 		"/>
		<polygon fill="#E2454E" points="24.6,22.8 24.5,22.8 21.9,22.8 21.8,22.8 		"/>
		<polygon fill="#E2454E" points="24.6,22.9 24.6,22.8 24.6,22.8 21.8,22.8 21.8,22.9 		"/>
		<polygon fill="#E2454F" points="24.7,22.9 24.7,22.9 24.6,22.9 21.8,22.9 21.7,22.9 		"/>
		<polygon fill="#E1454F" points="24.8,23 24.7,23 24.7,22.9 21.7,22.9 21.7,23 21.7,23 		"/>
		<polygon fill="#E14550" points="24.8,23 24.8,23 24.8,23 21.7,23 21.6,23 		"/>
		<polygon fill="#E04550" points="24.9,23.1 24.8,23 21.6,23 21.5,23.1 		"/>
		<polygon fill="#E04551" points="24.9,23.2 24.9,23.1 24.9,23.1 21.5,23.1 21.5,23.2 		"/>
		<polygon fill="#DF4552" points="25,23.2 24.9,23.2 24.9,23.2 21.5,23.2 21.5,23.2 21.4,23.2 		"/>
		<polygon fill="#DF4552" points="25,23.3 25,23.2 25,23.2 21.4,23.2 21.4,23.3 		"/>
		<polygon fill="#DE4553" points="25.1,23.3 25.1,23.3 25,23.3 21.4,23.3 21.3,23.3 		"/>
		<polygon fill="#DE4553" points="25.1,23.4 25.1,23.3 21.3,23.3 21.3,23.4 21.3,23.4 		"/>
		<polygon fill="#DE4554" points="25.2,23.4 25.1,23.4 25.1,23.4 21.3,23.4 21.2,23.4 		"/>
		<polygon fill="#DD4554" points="25.2,23.5 25.2,23.4 25.2,23.4 21.2,23.4 21.2,23.5 		"/>
		<polygon fill="#DD4555" points="25.3,23.5 25.3,23.5 25.2,23.5 21.2,23.5 21.1,23.5 		"/>
		<polygon fill="#DC4555" points="25.4,23.6 25.3,23.6 25.3,23.5 21.1,23.5 21.1,23.6 21.1,23.6 		"/>
		<polygon fill="#DC4556" points="25.4,23.6 25.4,23.6 21.1,23.6 21,23.6 		"/>
		<polygon fill="#DB4556" points="25.5,23.7 25.4,23.7 25.4,23.6 21,23.6 20.9,23.7 		"/>
		<polygon fill="#DB4557" points="25.5,23.8 25.5,23.7 25.5,23.7 20.9,23.7 20.9,23.8 		"/>
		<polygon fill="#DA4557" points="25.6,23.8 25.6,23.8 25.5,23.8 20.9,23.8 20.9,23.8 20.8,23.8 		"/>
		<polygon fill="#DA4558" points="25.6,23.9 25.6,23.9 25.6,23.8 20.8,23.8 20.8,23.9 		"/>
		<polygon fill="#DA4658" points="25.7,23.9 25.6,23.9 20.8,23.9 20.7,23.9 		"/>
		<polygon fill="#D94659" points="25.7,24 25.7,23.9 25.7,23.9 20.7,23.9 20.7,24 		"/>
		<polygon fill="#D94659" points="25.8,24 25.8,24 25.7,24 20.7,24 20.7,24 20.6,24 		"/>
		<polygon fill="#D8465A" points="25.9,24.1 25.8,24.1 25.8,24 20.6,24 20.6,24.1 		"/>
		<polygon fill="#D8465A" points="25.9,24.1 25.9,24.1 25.9,24.1 20.6,24.1 20.5,24.1 		"/>
		<polygon fill="#D7465B" points="26,24.2 25.9,24.1 20.5,24.1 20.5,24.2 20.4,24.2 		"/>
		<polygon fill="#D7465B" points="26,24.3 26,24.2 26,24.2 20.4,24.2 20.4,24.3 		"/>
		<polygon fill="#D6465C" points="26.1,24.3 26,24.3 26,24.3 20.4,24.3 20.3,24.3 		"/>
		<polygon fill="#D6465C" points="20.3,24.3 20.3,24.4 26.1,24.4 26.1,24.3 26.1,24.3 		"/>
		<polygon fill="#D6465D" points="20.3,24.4 20.3,24.4 20.2,24.4 26.2,24.4 26.2,24.4 26.1,24.4 		"/>
		<polygon fill="#D5465D" points="20.2,24.4 20.2,24.5 26.1,24.5 26.2,24.4 		"/>
		<polygon fill="#D5465E" points="20.2,24.5 20.1,24.5 26,24.5 26.1,24.5 		"/>
		<polygon fill="#D4465E" points="20.1,24.5 20.1,24.6 25.9,24.6 26,24.5 		"/>
		<polygon fill="#D4465F" points="20.1,24.6 20.1,24.6 20,24.6 25.8,24.6 25.9,24.6 		"/>
		<polygon fill="#D3465F" points="20,24.6 19.9,24.7 25.7,24.7 25.8,24.6 		"/>
		<polygon fill="#D34660" points="19.9,24.7 19.9,24.7 25.6,24.7 25.7,24.7 		"/>
		<polygon fill="#D24660" points="19.9,24.7 19.8,24.8 19.8,24.8 25.5,24.8 25.6,24.7 		"/>
		<polygon fill="#D24661" points="19.8,24.8 19.8,24.9 25.4,24.9 25.5,24.8 		"/>
		<polygon fill="#D24661" points="19.8,24.9 19.7,24.9 25.3,24.9 25.4,24.9 		"/>
		<polygon fill="#D14662" points="19.7,24.9 19.7,25 25.2,25 25.3,24.9 		"/>
		<polygon fill="#D14662" points="19.7,25 19.6,25 19.6,25 25.1,25 25.2,25 		"/>
		<polygon fill="#D04762" points="19.6,25 19.6,25.1 25,25.1 25.1,25 		"/>
		<polygon fill="#D04763" points="19.6,25.1 19.5,25.1 24.9,25.1 25,25.1 		"/>
		<polygon fill="#CF4763" points="19.5,25.1 19.4,25.2 24.8,25.2 24.9,25.1 		"/>
		<polygon fill="#CF4764" points="19.4,25.2 19.4,25.2 19.4,25.2 24.7,25.2 24.8,25.2 		"/>
		<polygon fill="#CF4764" points="19.4,25.2 19.3,25.3 24.6,25.3 24.7,25.2 		"/>
		<polygon fill="#CE4765" points="19.3,25.3 19.3,25.3 24.6,25.3 24.6,25.3 		"/>
		<polygon fill="#CE4765" points="19.3,25.3 19.2,25.4 19.2,25.4 24.5,25.4 24.6,25.3 		"/>
		<polygon fill="#CD4766" points="19.2,25.4 19.2,25.5 24.4,25.5 24.5,25.4 		"/>
		<polygon fill="#CD4766" points="19.2,25.5 19.1,25.5 24.3,25.5 24.4,25.5 		"/>
		<polygon fill="#CC4767" points="19.1,25.5 19.1,25.6 24.2,25.6 24.3,25.5 		"/>
		<polygon fill="#CC4767" points="19.1,25.6 19,25.6 19,25.6 24.1,25.6 24.2,25.6 		"/>
		<polygon fill="#CC4768" points="19,25.6 19,25.7 24,25.7 24.1,25.6 		"/>
		<polygon fill="#CB4768" points="19,25.7 18.9,25.7 23.9,25.7 24,25.7 		"/>
		<polygon fill="#CB4769" points="18.9,25.7 18.8,25.8 23.8,25.8 23.9,25.7 		"/>
		<polygon fill="#CA4769" points="18.8,25.8 18.8,25.8 18.8,25.8 23.7,25.8 23.8,25.8 		"/>
		<polygon fill="#CA476A" points="18.8,25.8 18.7,25.9 23.6,25.9 23.7,25.8 		"/>
		<polygon fill="#C9476A" points="18.7,25.9 18.7,25.9 23.5,25.9 23.6,25.9 		"/>
		<polygon fill="#C9476A" points="18.7,25.9 18.6,26 18.6,26 23.4,26 23.5,25.9 		"/>
		<polygon fill="#C9476B" points="18.6,26 18.6,26.1 23.3,26.1 23.4,26 		"/>
		<polygon fill="#C8476B" points="18.6,26.1 18.5,26.1 23.2,26.1 23.3,26.1 		"/>
		<polygon fill="#C8476C" points="18.5,26.1 18.5,26.2 23.1,26.2 23.2,26.1 		"/>
		<polygon fill="#C7476C" points="18.4,26.2 18.4,26.2 23,26.2 23.1,26.2 18.5,26.2 		"/>
		<polygon fill="#C7476D" points="18.3,26.3 22.9,26.3 23,26.2 18.4,26.2 		"/>
		<polygon fill="#C7476D" points="18.3,26.3 22.8,26.3 22.9,26.3 18.3,26.3 		"/>
		<polygon fill="#C6476E" points="18.2,26.4 22.8,26.4 22.8,26.3 18.3,26.3 		"/>
		<polygon fill="#C6476E" points="18.2,26.4 18.2,26.4 22.7,26.4 22.8,26.4 18.2,26.4 		"/>
		<polygon fill="#C5476F" points="18.1,26.5 22.6,26.5 22.7,26.4 18.2,26.4 		"/>
		<polygon fill="#C5476F" points="18.1,26.6 22.5,26.6 22.6,26.5 18.1,26.5 		"/>
		<polygon fill="#C44770" points="18,26.6 18,26.6 22.4,26.6 22.5,26.6 18.1,26.6 		"/>
		<polygon fill="#C44770" points="18,26.7 22.3,26.7 22.4,26.6 18,26.6 		"/>
		<polygon fill="#C44770" points="17.9,26.7 22.2,26.7 22.3,26.7 18,26.7 		"/>
		<polygon fill="#C34771" points="17.8,26.8 22.1,26.8 22.2,26.7 17.9,26.7 		"/>
		<polygon fill="#C34771" points="17.8,26.8 17.8,26.8 22,26.8 22.1,26.8 17.8,26.8 		"/>
		<polygon fill="#C24772" points="17.7,26.9 21.9,26.9 22,26.8 17.8,26.8 		"/>
		<polygon fill="#C24872" points="17.7,26.9 21.8,26.9 21.9,26.9 17.7,26.9 		"/>
		<polygon fill="#C14873" points="17.6,27 21.7,27 21.7,27 21.8,26.9 17.7,26.9 		"/>
		<path fill="#C14873" d="M17.6,27L17.6,27l4,0c0.1,0,0.1-0.1,0.1-0.1L17.6,27L17.6,27z"/>
		<path fill="#C14874" d="M17.5,27.1h4c0,0,0.1,0,0.1-0.1L17.5,27.1L17.5,27.1z"/>
		<path fill="#C04874" d="M17.5,27.2h4c0,0,0.1,0,0.1-0.1L17.5,27.2L17.5,27.2z"/>
		<path fill="#C04875" d="M17.4,27.2L17.4,27.2l3.9,0c0,0,0.1,0,0.1-0.1L17.4,27.2L17.4,27.2z"/>
		<path fill="#BF4875" d="M17.3,27.3h3.9c0,0,0.1,0,0.1-0.1L17.3,27.3L17.3,27.3z"/>
		<path fill="#BF4875" d="M17.3,27.3h3.8c0,0,0.1,0,0.1-0.1L17.3,27.3L17.3,27.3z"/>
		<path fill="#BE4876" d="M17.2,27.4H21c0,0,0.1,0,0.1-0.1L17.2,27.4L17.2,27.4z"/>
		<path fill="#BE4876" d="M17.2,27.4L17.2,27.4l3.7,0c0,0,0.1,0,0.1-0.1L17.2,27.4L17.2,27.4z"/>
		<path fill="#BE4877" d="M17.1,27.5h3.7c0,0,0.1,0,0.1-0.1L17.1,27.5L17.1,27.5z"/>
		<path fill="#BD4877" d="M17.1,27.5h3.7c0,0,0.1,0,0.1-0.1L17.1,27.5L17.1,27.5z"/>
		<path fill="#BD4878" d="M17,27.6h3.6c0,0,0.1,0,0.1-0.1L17,27.6L17,27.6z"/>
		<path fill="#BC4878" d="M17,27.6L17,27.6l3.6,0c0,0,0.1,0,0.1-0.1L17,27.6L17,27.6z"/>
		<path fill="#BC4879" d="M16.9,27.7h3.6c0,0,0.1,0,0.1-0.1L16.9,27.7L16.9,27.7z"/>
		<path fill="#BC4879" d="M16.9,27.8h3.5c0,0,0.1,0,0.1-0.1L16.9,27.8L16.9,27.8z"/>
		<path fill="#BB4879" d="M16.8,27.8L16.8,27.8l3.5,0c0,0,0.1,0,0.1-0.1L16.8,27.8L16.8,27.8z"/>
		<path fill="#BB487A" d="M16.7,27.9h3.4c0,0,0.1,0,0.1-0.1L16.7,27.9L16.7,27.9z"/>
		<path fill="#BA487A" d="M16.7,27.9h3.4c0,0,0.1,0,0.1-0.1L16.7,27.9L16.7,27.9z"/>
		<path fill="#BA487B" d="M16.6,28H20c0,0,0.1,0,0.1-0.1L16.6,28L16.6,28z"/>
		<path fill="#B9487B" d="M16.6,28L16.6,28l3.3,0c0,0,0.1,0,0.1-0.1L16.6,28L16.6,28z"/>
		<path fill="#B9487C" d="M16.5,28.1h3.3c0,0,0.1,0,0.1-0.1L16.5,28.1L16.5,28.1z"/>
		<path fill="#B9487C" d="M16.5,28.1h3.2c0,0,0.1,0,0.1-0.1L16.5,28.1L16.5,28.1z"/>
		<path fill="#B8487C" d="M16.4,28.2h3.2c0,0,0.1,0,0.1-0.1L16.4,28.2L16.4,28.2z"/>
		<path fill="#B8487D" d="M16.4,28.2L16.4,28.2l3.1,0c0,0,0.1,0,0.1-0.1L16.4,28.2L16.4,28.2z"/>
		<path fill="#B7487D" d="M16.3,28.3h3.1c0,0,0.1,0,0.1-0.1L16.3,28.3L16.3,28.3z"/>
		<path fill="#B7487E" d="M16.2,28.4h3.1c0,0,0.1,0,0.1-0.1L16.2,28.4L16.2,28.4z"/>
		<path fill="#B7487E" d="M16.2,28.4L16.2,28.4l3,0c0,0,0.1,0,0.1-0.1L16.2,28.4L16.2,28.4z"/>
		<path fill="#B6487F" d="M16.1,28.5h3c0,0,0.1,0,0.1-0.1L16.1,28.5L16.1,28.5z"/>
		<path fill="#B6487F" d="M16.1,28.5h3c0,0,0.1,0,0.1-0.1L16.1,28.5L16.1,28.5z"/>
		<path fill="#B5487F" d="M16,28.6H19c0,0,0.1,0,0.1-0.1L16,28.6L16,28.6z"/>
		<path fill="#B54880" d="M16,28.6L16,28.6l2.9,0c0,0,0.1,0,0.1-0.1L16,28.6L16,28.6z"/>
		<path fill="#B44880" d="M15.9,28.7h2.9c0,0,0.1,0,0.1-0.1L15.9,28.7L15.9,28.7z"/>
		<path fill="#B44881" d="M15.9,28.7h2.8c0,0,0.1,0,0.1-0.1L15.9,28.7L15.9,28.7z"/>
		<path fill="#B44881" d="M15.8,28.8h2.8c0,0,0.1,0,0.1-0.1L15.8,28.8L15.8,28.8z"/>
		<path fill="#B34881" d="M15.8,28.8L15.8,28.8l2.7,0c0,0,0.1,0,0.1-0.1L15.8,28.8L15.8,28.8z"/>
		<path fill="#B34882" d="M15.7,28.9h2.7c0,0,0.1,0,0.1-0.1L15.7,28.9L15.7,28.9z"/>
		<path fill="#B24882" d="M15.6,29h2.7c0,0,0.1,0,0.1-0.1L15.6,29L15.6,29z"/>
		<path fill="#B24883" d="M15.6,29h2.6c0,0,0.1,0,0.1-0.1L15.6,29L15.6,29z"/>
		<path fill="#B24883" d="M15.6,29L15.6,29l2.5,0.1c0,0,0.1,0,0.1-0.1L15.6,29L15.6,29z"/>
		<path fill="#B14884" d="M15.5,29.1H18c0,0,0.1,0,0.1-0.1L15.5,29.1L15.5,29.1z"/>
		<path fill="#B14884" d="M15.4,29.2h2.5c0,0,0.1,0,0.1-0.1L15.4,29.2L15.4,29.2z"/>
		<path fill="#B04884" d="M15.4,29.2L15.4,29.2l2.4,0c0,0,0.1,0,0.1-0.1L15.4,29.2L15.4,29.2z"/>
		<path fill="#B04885" d="M15.3,29.3h2.4c0,0,0.1,0,0.1-0.1L15.3,29.3L15.3,29.3z"/>
		<path fill="#B04885" d="M15.3,29.3h2.4c0,0,0.1,0,0.1-0.1L15.3,29.3L15.3,29.3z"/>
		<path fill="#AF4886" d="M15.2,29.4h2.3c0,0,0.1,0,0.1-0.1L15.2,29.4L15.2,29.4z"/>
		<path fill="#AF4886" d="M15.2,29.4L15.2,29.4l2.3,0c0,0,0.1,0,0.1-0.1L15.2,29.4L15.2,29.4z"/>
		<path fill="#AE4886" d="M15.1,29.5h2.3c0,0,0.1,0,0.1-0.1L15.1,29.5L15.1,29.5z"/>
		<path fill="#AE4887" d="M15,29.6h2.2c0,0,0.1,0,0.1-0.1L15,29.6L15,29.6z"/>
		<path fill="#AD4887" d="M15,29.6h2.2c0,0,0.1,0,0.1-0.1L15,29.6L15,29.6z"/>
		<path fill="#AD4888" d="M15,29.6L15,29.6l2.1,0.1c0,0,0.1,0,0.1-0.1L15,29.6L15,29.6z"/>
		<path fill="#AD4888" d="M14.9,29.7H17c0,0,0.1,0,0.1-0.1L14.9,29.7L14.9,29.7z"/>
		<path fill="#AC4888" d="M14.8,29.8h2.1c0,0,0.1,0,0.1-0.1L14.8,29.8L14.8,29.8z"/>
		<path fill="#AC4889" d="M14.8,29.8L14.8,29.8l2,0c0,0,0.1,0,0.1-0.1L14.8,29.8L14.8,29.8z"/>
		<path fill="#AB4889" d="M14.7,29.9h2c0,0,0.1,0,0.1-0.1L14.7,29.9L14.7,29.9z"/>
		<path fill="#AB488A" d="M14.6,29.9h1.9c0,0,0.1,0,0.1-0.1L14.6,29.9L14.6,29.9z"/>
		<path fill="#AB488A" d="M14.6,30h1.9c0,0,0.1,0,0.1-0.1L14.6,30L14.6,30z"/>
		<path fill="#AA488A" d="M14.6,30L14.6,30l1.8,0c0,0,0.1,0,0.1-0.1L14.6,30L14.6,30z"/>
		<path fill="#AA488B" d="M14.5,30.1h1.8c0,0,0.1,0,0.1-0.1L14.5,30.1L14.5,30.1z"/>
		<path fill="#A9488B" d="M14.4,30.2h1.8c0,0,0.1,0,0.1-0.1L14.4,30.2L14.4,30.2z"/>
		<path fill="#A9488B" d="M14.4,30.2h1.7c0,0,0.1,0,0.1-0.1L14.4,30.2L14.4,30.2z"/>
		<path fill="#A9488C" d="M14.4,30.2L14.4,30.2l1.7,0.1c0,0,0.1,0,0.1-0.1L14.4,30.2L14.4,30.2z"/>
		<path fill="#A8488C" d="M14.3,30.3h1.7c0,0,0.1,0,0.1-0.1L14.3,30.3L14.3,30.3z"/>
		<path fill="#A8488D" d="M14.2,30.4h1.6c0,0,0.1,0,0.1-0.1L14.2,30.4L14.2,30.4z"/>
		<path fill="#A7488D" d="M14.2,30.4L14.2,30.4l1.6,0c0,0,0.1,0,0.1-0.1L14.2,30.4L14.2,30.4z"/>
		<path fill="#A7488D" d="M14.1,30.5h1.5c0,0,0.1,0,0.1-0.1L14.1,30.5L14.1,30.5z"/>
		<path fill="#A7498E" d="M14,30.6h1.5c0,0,0.1,0,0.1-0.1L14,30.6L14,30.6z"/>
		<path fill="#A6498E" d="M14,30.6h1.5c0,0,0.1,0,0.1-0.1L14,30.6L14,30.6z"/>
		<path fill="#A6498F" d="M14,30.6L14,30.6l1.4,0c0,0,0.1,0,0.1-0.1L14,30.6L14,30.6z"/>
		<path fill="#A5498F" d="M13.9,30.7h1.4c0,0,0.1,0,0.1-0.1L13.9,30.7L13.9,30.7z"/>
		<path fill="#A5498F" d="M13.8,30.8h1.3c0,0,0.1,0,0.1-0.1L13.8,30.8L13.8,30.8z"/>
		<path fill="#A54990" d="M13.8,30.8h1.3c0,0,0.1,0,0.1-0.1L13.8,30.8L13.8,30.8z"/>
		<path fill="#A44990" d="M13.8,30.8L13.8,30.8l1.2,0c0,0,0.1,0,0.1-0.1L13.8,30.8L13.8,30.8z"/>
		<path fill="#A44991" d="M13.6,30.9h1.2c0,0,0.1,0,0.1-0.1L13.6,30.9L13.6,30.9z"/>
		<path fill="#A34991" d="M13.6,31h1.2c0,0,0.1,0,0.1-0.1L13.6,31L13.6,31z"/>
		<path fill="#A34991" d="M13.5,31L13.5,31l1.1,0c0,0,0.1,0,0.1-0.1L13.5,31L13.5,31z"/>
		<path fill="#A34992" d="M13.5,31.1h1.1c0,0,0.1,0,0.1-0.1L13.5,31.1L13.5,31.1z"/>
		<path fill="#A24992" d="M13.4,31.2h1.1c0,0,0.1,0,0.1-0.1L13.4,31.2L13.4,31.2z"/>
		<path fill="#A24992" d="M13.4,31.2h1c0,0,0.1,0,0.1-0.1L13.4,31.2L13.4,31.2z"/>
		<path fill="#A14993" d="M13.3,31.2L13.3,31.2l1,0c0,0,0.1,0,0.1-0.1L13.3,31.2L13.3,31.2z"/>
		<path fill="#A14993" d="M13.3,31.3h0.9c0,0,0.1,0,0.1-0.1L13.3,31.3L13.3,31.3z"/>
		<path fill="#A14994" d="M13.2,31.4h0.9c0,0,0.1,0,0.1-0.1L13.2,31.4L13.2,31.4z"/>
		<path fill="#A04994" d="M13.2,31.4H14c0,0,0.1,0,0.1-0.1L13.2,31.4L13.2,31.4z"/>
		<path fill="#A04994" d="M13.1,31.4L13.1,31.4l0.8,0c0,0,0.1,0,0.1-0.1L13.1,31.4L13.1,31.4z"/>
		<path fill="#A04995" d="M13,31.5h0.8c0,0,0.1,0,0.1-0.1L13,31.5L13,31.5z"/>
		<path fill="#9F4995" d="M13,31.6h0.8c0,0,0.1,0,0.1-0.1L13,31.6L13,31.6z"/>
		<path fill="#9F4995" d="M12.9,31.6L12.9,31.6l0.7,0c0,0,0.1,0,0.1-0.1L12.9,31.6L12.9,31.6z"/>
		<path fill="#9E4996" d="M12.9,31.7h0.7c0,0,0.1,0,0.1-0.1L12.9,31.7L12.9,31.7z"/>
		<path fill="#9E4996" d="M12.8,31.8h0.6c0,0,0.1,0,0.1-0.1L12.8,31.8L12.8,31.8z"/>
		<path fill="#9E4996" d="M12.8,31.8h0.6c0,0,0.1,0,0.1-0.1L12.8,31.8L12.8,31.8z"/>
		<path fill="#9D4997" d="M12.7,31.8L12.7,31.8l0.5,0c0,0,0.1,0,0.1-0.1L12.7,31.8L12.7,31.8z"/>
		<path fill="#9D4997" d="M12.7,31.9h0.5c0,0,0.1,0,0.1-0.1L12.7,31.9L12.7,31.9z"/>
		<path fill="#9D4998" d="M12.6,32h0.5c0,0,0.1,0,0.1-0.1L12.6,32L12.6,32z"/>
		<path fill="#9C4998" d="M12.5,32H13c0,0,0.1,0,0.1-0.1L12.5,32L12.5,32z"/>
		<path fill="#9C4998" d="M12.5,32L12.5,32l0.3,0c0,0,0.1,0,0.1-0.1L12.5,32L12.5,32z"/>
		<path fill="#9C4999" d="M12.4,32.1h0.3c0.1,0,0.1,0,0.2-0.1c0,0,0,0,0,0L12.4,32.1L12.4,32.1z"/>
		<path fill="#9B4999" d="M12.4,32.2c0.1,0,0.2,0,0.3,0L12.4,32.2L12.4,32.2z"/>
		<path fill="#F5877B" d="M26.3,18.6c-0.1,0-0.1-0.1-0.1-0.1l-0.1,0.1H26.3z"/>
		<path fill="#F5887B" d="M26.1,18.6L26.1,18.6L26.1,18.6l0.3,0.1c0,0-0.1,0-0.1-0.1H26.1z"/>
		<path fill="#F5897B" d="M26,18.6L26,18.6L26,18.6l0.5,0.1c0,0-0.1,0-0.1-0.1H26z"/>
		<path fill="#F5897B" d="M26,18.7L26,18.7l0.7,0.1c0,0-0.1,0-0.1-0.1H26z"/>
		<path fill="#F58A7A" d="M25.9,18.8L25.9,18.8L25.9,18.8l0.9,0.1c0,0-0.1,0-0.1-0.1H25.9z"/>
		<path fill="#F58B7A" d="M25.8,18.9L25.8,18.9L25.8,18.9l1.1,0.1c0,0-0.1,0-0.1-0.1H25.8z"/>
		<path fill="#F58C7A" d="M25.8,18.9L25.8,18.9L27,19c0,0-0.1,0-0.1-0.1H25.8z"/>
		<path fill="#F58D7A" d="M25.7,19L25.7,19L25.7,19l1.4,0.1c0,0-0.1,0-0.1-0.1H25.7z"/>
		<path fill="#F58D7A" d="M25.6,19.1L25.6,19.1L25.6,19.1l1.6,0.1c0,0-0.1,0-0.1-0.1H25.6z"/>
		<path fill="#F68E7A" d="M25.6,19.1L25.6,19.1l1.8,0.1c0,0-0.1,0-0.1-0.1H25.6z"/>
		<path fill="#F68F7A" d="M25.5,19.2L25.5,19.2L25.5,19.2l2,0.1c0,0-0.1,0-0.1-0.1H25.5z"/>
		<path fill="#F6907A" d="M25.4,19.3L25.4,19.3L25.4,19.3l2.2,0.1c0,0-0.1,0-0.1-0.1H25.4z"/>
		<path fill="#F6917A" d="M25.3,19.3L25.3,19.3l2.4,0.1c0,0-0.1,0-0.1-0.1H25.3z"/>
		<path fill="#F6917A" d="M25.3,19.4L25.3,19.4L25.3,19.4l2.6,0.1c0,0-0.1,0-0.1-0.1H25.3z"/>
		<path fill="#F6927A" d="M25.2,19.5L25.2,19.5L25.2,19.5l2.7,0.1c0,0-0.1,0-0.1-0.1H25.2z"/>
		<path fill="#F69379" d="M25.1,19.5L25.1,19.5L25.1,19.5l2.9,0.1c0,0-0.1,0-0.1-0.1H25.1z"/>
		<path fill="#F69479" d="M25.1,19.6L25.1,19.6l3.1,0.1c0,0-0.1,0-0.1-0.1H25.1z"/>
		<path fill="#F69579" d="M25,19.7L25,19.7L25,19.7l3.3,0.1c0,0-0.1,0-0.1-0.1H25z"/>
		<path fill="#F69579" d="M24.9,19.7L24.9,19.7L24.9,19.7l3.5,0.1c0,0-0.1,0-0.1-0.1H24.9z"/>
		<path fill="#F69679" d="M24.9,19.8L24.9,19.8l3.7,0.1c0,0-0.1,0-0.1-0.1H24.9z"/>
		<path fill="#F79779" d="M24.8,19.9L24.8,19.9L24.8,19.9l3.9,0.1c0,0-0.1,0-0.1-0.1H24.8z"/>
		<path fill="#F79879" d="M24.7,19.9L24.7,19.9L24.7,19.9l4.1,0.1c0,0-0.1,0-0.1-0.1H24.7z"/>
		<path fill="#F79879" d="M24.7,20L24.7,20l4.2,0.1c0,0-0.1,0-0.1-0.1H24.7z"/>
		<path fill="#F79979" d="M24.6,20.1L24.6,20.1L24.6,20.1l4.4,0.1c0,0-0.1,0-0.1-0.1H24.6z"/>
		<path fill="#F79A79" d="M24.5,20.2L24.5,20.2L24.5,20.2l4.6,0.1c0,0-0.1,0-0.1-0.1H24.5z"/>
		<path fill="#F79B78" d="M24.4,20.2L24.4,20.2l4.8,0.1c0,0-0.1,0-0.1-0.1H24.4z"/>
		<path fill="#F79C78" d="M24.4,20.3L24.4,20.3L24.4,20.3l5,0.1c0,0-0.1,0-0.1-0.1H24.4z"/>
		<path fill="#F79C78" d="M24.3,20.4L24.3,20.4L24.3,20.4l5.2,0.1c0,0-0.1,0-0.1-0.1H24.3z"/>
		<path fill="#F89D78" d="M24.2,20.4L24.2,20.4l5.4,0.1c0,0-0.1,0-0.1-0.1H24.2z"/>
		<path fill="#F89E78" d="M24.2,20.5L24.2,20.5L24.2,20.5l5.6,0.1c0,0-0.1,0-0.1-0.1H24.2z"/>
		<path fill="#F89F78" d="M24.1,20.6L24.1,20.6L24.1,20.6l5.8,0.1c0,0-0.1,0-0.1-0.1H24.1z"/>
		<path fill="#F89F78" d="M24,20.6L24,20.6L24,20.6l5.9,0.1c0,0-0.1,0-0.1-0.1H24z"/>
		<path fill="#F8A078" d="M24,20.7L24,20.7l6.1,0.1c0,0-0.1,0-0.1-0.1H24z"/>
		<path fill="#F8A178" d="M23.9,20.8L23.9,20.8L23.9,20.8l6.3,0.1c0,0-0.1,0-0.1-0.1H23.9z"/>
		<path fill="#F8A277" d="M23.8,20.8L23.8,20.8L23.8,20.8l6.5,0.1c0,0-0.1,0-0.1-0.1H23.8z"/>
		<path fill="#F8A277" d="M23.8,20.9L23.8,20.9l6.7,0.1c0,0-0.1,0-0.1-0.1H23.8z"/>
		<path fill="#F8A377" d="M23.7,21L23.7,21L23.7,21l6.9,0.1c0,0,0,0,0,0l0,0c0,0,0,0,0,0H23.7z"/>
		<path fill="#F9A477" d="M23.6,21L23.6,21L23.6,21l7,0.1c0,0-0.1,0-0.1-0.1H23.6z"/>
		<path fill="#F9A577" d="M23.6,21.1L23.6,21.1l7.2,0.1c0,0-0.1,0-0.1-0.1H23.6z"/>
		<path fill="#F9A577" d="M23.5,21.2L23.5,21.2L23.5,21.2l7.3,0.1c0,0,0,0,0-0.1H23.5z"/>
		<path fill="#F9A677" d="M23.4,21.3L23.4,21.3L23.4,21.3l7.4,0.1c0,0,0,0,0-0.1H23.4z"/>
		<path fill="#F9A776" d="M23.3,21.3L23.3,21.3l7.5,0.1c0,0,0,0,0-0.1H23.3z"/>
		<path fill="#F9A876" d="M23.3,21.4L23.3,21.4L23.3,21.4L23.3,21.4l7.6,0.1c0,0,0,0,0-0.1H23.3z"/>
		<path fill="#F9A876" d="M23.2,21.5L23.2,21.5L23.2,21.5l7.6,0.1c0,0,0,0,0-0.1H23.2z"/>
		<path fill="#F9A976" d="M23.3,21.5L23.3,21.5L23.3,21.5l7.5,0.1c0,0,0,0,0-0.1H23.3z"/>
		<path fill="#F9AA76" d="M23.3,21.6L23.3,21.6L23.3,21.6l7.4,0.1c0,0,0,0,0-0.1H23.3z"/>
		<path fill="#FAAB76" d="M23.4,21.7L23.4,21.7L23.4,21.7L23.4,21.7l7.3,0.1c0,0,0,0,0.1-0.1H23.4z"/>
		<path fill="#FAAB76" d="M23.5,21.7L23.5,21.7L23.5,21.7l7.1,0.1c0,0,0.1,0,0.1-0.1H23.5z"/>
		<path fill="#FAAC75" d="M23.6,21.8L23.6,21.8L23.6,21.8l7,0.1c0,0,0.1,0,0.1-0.1H23.6z"/>
		<path fill="#FAAD75" d="M23.6,21.9L23.6,21.9L23.6,21.9l6.8,0.1l0,0c0,0,0,0,0.1-0.1H23.6z"/>
		<polygon fill="#FAAE75" points="23.7,21.9 23.7,22 23.8,22 23.8,22 30.3,22 30.5,21.9 		"/>
		<polygon fill="#FAAE75" points="23.8,22 23.8,22.1 23.8,22.1 30.2,22.1 30.3,22 		"/>
		<polygon fill="#FAAF75" points="23.8,22.1 23.9,22.1 23.9,22.1 30.1,22.1 30.2,22.1 		"/>
		<polygon fill="#FAB075" points="23.9,22.1 23.9,22.2 24,22.2 30,22.2 30.1,22.1 		"/>
		<polygon fill="#FAB175" points="24,22.2 24,22.2 24,22.3 24,22.3 29.9,22.3 30,22.2 		"/>
		<polygon fill="#FBB174" points="24,22.3 24.1,22.3 24.1,22.4 29.7,22.4 29.9,22.3 		"/>
		<polygon fill="#FBB274" points="24.1,22.4 24.1,22.4 24.2,22.4 29.6,22.4 29.7,22.4 		"/>
		<polygon fill="#FBB374" points="24.2,22.4 24.2,22.4 24.2,22.5 29.5,22.5 29.6,22.4 		"/>
		<polygon fill="#FBB374" points="24.2,22.5 24.3,22.5 24.3,22.6 24.3,22.6 29.4,22.6 29.5,22.5 		"/>
		<polygon fill="#FBB474" points="24.3,22.6 24.4,22.6 24.4,22.6 29.3,22.6 29.4,22.6 		"/>
		<polygon fill="#FBB573" points="24.4,22.6 24.4,22.7 24.5,22.7 29.2,22.7 29.3,22.6 		"/>
		<polygon fill="#FBB673" points="24.5,22.7 24.5,22.7 24.5,22.8 29,22.8 29.2,22.7 		"/>
		<polygon fill="#FBB673" points="24.5,22.8 24.5,22.8 24.6,22.8 24.6,22.8 28.9,22.8 29,22.8 		"/>
		<polygon fill="#FBB773" points="24.6,22.8 24.6,22.9 24.7,22.9 28.8,22.9 28.9,22.8 		"/>
		<polygon fill="#FCB873" points="24.7,22.9 24.7,22.9 24.7,23 28.7,23 28.8,22.9 		"/>
		<polygon fill="#FCB873" points="24.7,23 24.8,23 24.8,23 28.6,23 28.7,23 		"/>
		<polygon fill="#FCB972" points="24.8,23 24.8,23 24.9,23.1 24.9,23.1 28.4,23.1 28.6,23 		"/>
		<polygon fill="#FCBA72" points="24.9,23.1 24.9,23.2 24.9,23.2 28.3,23.2 28.4,23.1 		"/>
		<polygon fill="#FCBA72" points="24.9,23.2 25,23.2 25,23.2 28.2,23.2 28.3,23.2 		"/>
		<polygon fill="#FCBB72" points="25,23.2 25,23.3 25.1,23.3 28.1,23.3 28.2,23.2 		"/>
		<polygon fill="#FCBC72" points="25.1,23.3 25.1,23.3 25.1,23.4 25.1,23.4 28,23.4 28.1,23.3 		"/>
		<polygon fill="#FCBC71" points="25.1,23.4 25.2,23.4 25.2,23.4 27.8,23.4 28,23.4 		"/>
		<polygon fill="#FCBD71" points="25.2,23.4 25.2,23.5 25.3,23.5 27.7,23.5 27.8,23.4 		"/>
		<polygon fill="#FDBE71" points="25.3,23.5 25.3,23.5 25.3,23.6 27.6,23.6 27.7,23.5 		"/>
		<polygon fill="#FDBE71" points="25.3,23.6 25.4,23.6 25.4,23.6 25.4,23.7 27.5,23.7 27.6,23.6 		"/>
		<polygon fill="#FDBF71" points="25.4,23.7 25.5,23.7 25.5,23.7 27.4,23.7 27.5,23.7 		"/>
		<polygon fill="#FDC070" points="25.5,23.7 25.5,23.8 25.6,23.8 27.2,23.8 27.4,23.7 		"/>
		<polygon fill="#FDC070" points="25.6,23.8 25.6,23.8 25.6,23.9 27.1,23.9 27.2,23.8 		"/>
		<polygon fill="#FDC170" points="25.6,23.9 25.6,23.9 25.7,23.9 25.7,23.9 27,23.9 27.1,23.9 		"/>
		<polygon fill="#FDC170" points="25.7,23.9 25.7,24 25.8,24 26.9,24 27,23.9 		"/>
		<polygon fill="#FDC26F" points="25.8,24 25.8,24 25.8,24.1 26.8,24.1 26.9,24 		"/>
		<polygon fill="#FDC26F" points="25.8,24.1 25.9,24.1 25.9,24.1 26.7,24.1 26.8,24.1 		"/>
		<polygon fill="#FDC36F" points="25.9,24.1 25.9,24.1 26,24.2 26,24.2 26.5,24.2 26.7,24.1 		"/>
		<polygon fill="#FEC36F" points="26,24.2 26,24.3 26,24.3 26.4,24.3 26.5,24.2 		"/>
		<polygon fill="#FEC46F" points="26,24.3 26.1,24.3 26.1,24.3 26.3,24.3 26.4,24.3 		"/>
		<polygon fill="#FEC46F" points="26.1,24.3 26.1,24.4 26.2,24.4 26.3,24.3 		"/>
	</g>
	<g>
		<path fill="#F9F9F9" d="M81.9,25.8c-0.4,0-0.8-0.1-1.1-0.2c-0.3-0.2-0.6-0.4-0.9-0.7h-0.1c0,0.4,0.1,0.7,0.1,1.1v2.6h-1v-9.3h0.8
			l0.1,0.9h0c0.3-0.3,0.5-0.6,0.9-0.8c0.3-0.2,0.7-0.2,1.1-0.2c0.8,0,1.5,0.3,2,0.9c0.5,0.6,0.7,1.4,0.7,2.4c0,1-0.2,1.9-0.7,2.4
			C83.4,25.5,82.7,25.8,81.9,25.8z M81.7,20c-0.7,0-1.1,0.2-1.4,0.5c-0.3,0.4-0.4,0.9-0.4,1.7v0.2c0,0.9,0.2,1.5,0.4,1.9
			c0.3,0.4,0.8,0.6,1.4,0.6c0.6,0,1-0.2,1.3-0.7c0.3-0.4,0.5-1.1,0.5-1.8c0-0.8-0.2-1.4-0.5-1.8C82.7,20.2,82.3,20,81.7,20z"/>
		<path fill="#F9F9F9" d="M86.8,25.6h-1v-9.1h1V25.6z"/>
		<path fill="#F9F9F9" d="M92.3,25.6l-0.2-0.9h0c-0.3,0.4-0.6,0.7-1,0.8c-0.3,0.1-0.7,0.2-1.2,0.2c-0.6,0-1.1-0.2-1.5-0.5
			c-0.4-0.3-0.5-0.8-0.5-1.4c0-1.3,1-2,3.1-2l1.1,0v-0.4c0-0.5-0.1-0.9-0.3-1.1c-0.2-0.2-0.6-0.4-1-0.4c-0.5,0-1.1,0.2-1.8,0.5
			l-0.3-0.7c0.3-0.2,0.7-0.3,1-0.4c0.4-0.1,0.7-0.1,1.1-0.1c0.8,0,1.3,0.2,1.7,0.5c0.4,0.3,0.5,0.9,0.5,1.6v4.4H92.3z M90.1,25
			c0.6,0,1.1-0.2,1.4-0.5c0.3-0.3,0.5-0.8,0.5-1.4v-0.6l-1,0c-0.8,0-1.3,0.1-1.7,0.4c-0.3,0.2-0.5,0.5-0.5,1c0,0.3,0.1,0.6,0.3,0.8
			C89.5,24.9,89.8,25,90.1,25z"/>
		<path fill="#F9F9F9" d="M93.6,19.2h1l1.4,3.6c0.3,0.8,0.5,1.4,0.6,1.8h0c0-0.2,0.2-0.5,0.3-1c0.2-0.5,0.7-2,1.6-4.4h1l-2.7,7.3
			c-0.3,0.7-0.6,1.2-1,1.5c-0.4,0.3-0.8,0.5-1.3,0.5c-0.3,0-0.6,0-0.9-0.1v-0.8c0.2,0,0.5,0.1,0.7,0.1c0.7,0,1.1-0.4,1.4-1.1
			l0.4-0.9L93.6,19.2z"/>
	</g>
	<g>
		<path fill="#F9F9F9" d="M63.9,19.8c0.3,0.3,1,0.8,1,1.8c0,1-0.6,1.5-1.1,1.9c-0.2,0.2-0.4,0.4-0.4,0.7c0,0.3,0.2,0.5,0.3,0.6
			l0.5,0.4c0.6,0.5,1.1,1,1.1,1.9c0,1.3-1.2,2.5-3.5,2.5c-1.9,0-2.9-0.9-2.9-1.9c0-0.5,0.2-1.2,1-1.6c0.8-0.5,2-0.6,2.6-0.6
			c-0.2-0.2-0.4-0.5-0.4-0.9c0-0.2,0.1-0.4,0.1-0.5c-0.1,0-0.3,0-0.4,0c-1.4,0-2.2-1.1-2.2-2.1c0-0.6,0.3-1.3,0.9-1.8
			c0.8-0.6,1.7-0.7,2.4-0.7h2.8l-0.9,0.5H63.9z M63,25.8c-0.1,0-0.2,0-0.3,0c-0.1,0-0.8,0-1.4,0.2c-0.3,0.1-1.2,0.4-1.2,1.4
			c0,0.9,0.9,1.6,2.4,1.6c1.3,0,2-0.6,2-1.4C64.5,26.9,64,26.5,63,25.8z M63.4,23.2c0.3-0.3,0.3-0.7,0.3-1c0-1-0.6-2.5-1.7-2.5
			c-0.3,0-0.7,0.2-0.9,0.4c-0.2,0.3-0.3,0.6-0.3,1c0,0.9,0.5,2.4,1.7,2.4C62.8,23.6,63.2,23.4,63.4,23.2z"/>
		<path fill="#F9F9F9" d="M55.5,25.6c-2.1,0-3.3-1.7-3.3-3.1c0-1.7,1.4-3.2,3.5-3.2c2,0,3.2,1.5,3.2,3.1
			C58.9,23.9,57.7,25.6,55.5,25.6z M57.2,24.5c0.3-0.4,0.4-1,0.4-1.5c0-1.2-0.6-3.4-2.2-3.4c-0.4,0-0.9,0.2-1.2,0.5
			c-0.5,0.5-0.6,1.1-0.6,1.6c0,1.3,0.7,3.5,2.3,3.5C56.4,25.2,56.9,24.9,57.2,24.5z"/>
		<path fill="#F9F9F9" d="M48.3,25.6c-2.1,0-3.3-1.7-3.3-3.1c0-1.7,1.4-3.2,3.5-3.2c2,0,3.2,1.5,3.2,3.1
			C51.7,23.9,50.5,25.6,48.3,25.6z M50,24.5c0.3-0.4,0.4-1,0.4-1.5c0-1.2-0.6-3.4-2.2-3.4c-0.4,0-0.9,0.2-1.2,0.5
			c-0.5,0.5-0.6,1.1-0.6,1.6c0,1.3,0.7,3.5,2.3,3.5C49.1,25.2,49.7,24.9,50,24.5z"/>
		<path fill="#F9F9F9" d="M44,25.4l-1.9,0.4c-0.8,0.1-1.5,0.2-2.2,0.2c-3.7,0-5.1-2.7-5.1-4.9c0-2.6,2-5,5.4-5
			c0.7,0,1.4,0.1,2.1,0.3c1,0.3,1.5,0.6,1.8,0.8l-1.1,1.1l-0.5,0.1l0.3-0.5c-0.5-0.4-1.3-1.3-2.9-1.3c-2.1,0-3.7,1.6-3.7,4
			c0,2.5,1.8,4.9,4.7,4.9c0.9,0,1.3-0.2,1.7-0.3V23l-2,0.1l1.1-0.6h2.8l-0.4,0.3c-0.1,0.1-0.1,0.1-0.1,0.2c0,0.1,0,0.5,0,0.6V25.4z"
			/>
		<path fill="#F9F9F9" d="M68.2,25c-0.4,0-0.5-0.1-0.5-0.6v-0.1v-7.4c0,0,0-0.1,0-0.1c0.1-0.5,0.2-0.5,0.6-0.8h-1.9l-1,0.5h1v0v0
			v7.8v0.4c0,0.3-0.1,0.3-0.4,0.7h2.4l0.5-0.3C68.6,25,68.4,25,68.2,25z"/>
		<path fill="#F9F9F9" d="M73.6,25.1c-0.1,0.1-0.3,0.2-0.4,0.2c-0.4,0.2-0.9,0.3-1.3,0.3c-0.4,0-1.1,0-1.8-0.5
			c-0.9-0.7-1.4-1.8-1.4-2.8c0-2.1,1.7-3.1,3.1-3.1c0.5,0,1,0.1,1.4,0.4c0.7,0.4,0.8,1,0.9,1.3L71,22.1l-1,0.1
			c0.3,1.7,1.5,2.7,2.7,2.7c0.7,0,1.2-0.2,1.6-0.5L73.6,25.1z M72.4,21.1c0.3-0.1,0.4-0.2,0.4-0.4c0-0.5-0.6-1.1-1.3-1.1
			c-0.5,0-1.5,0.4-1.5,1.9c0,0.2,0,0.5,0,0.7L72.4,21.1z"/>
		<g>
			<path fill="#F9F9F9" d="M74.9,19.3v0.9h-0.1v-0.9h-0.3v-0.1h0.7v0.1H74.9z"/>
			<path fill="#F9F9F9" d="M76.1,20.1v-0.9h0l-0.3,0.9h-0.1l-0.3-0.9h0v0.9h-0.1v-1h0.2l0.2,0.8h0l0.2-0.8h0.2L76.1,20.1L76.1,20.1z
				"/>
		</g>
	</g>
	<g>
		<path fill="#F6F6F6" d="M37.5,13.5h-0.7c0-0.1-0.1-0.4-0.2-0.8h-1c-0.1,0.4-0.2,0.7-0.2,0.8h-0.6c0-0.1,0.2-0.5,0.5-1.3
			c0.3-0.8,0.5-1.3,0.5-1.4h0.8c0,0.1,0.1,0.5,0.4,1.4C37.3,13,37.5,13.5,37.5,13.5z M36.5,12.4c-0.2-0.7-0.4-1.1-0.4-1.2h0
			c0,0.1-0.1,0.4-0.4,1.2H36.5z"/>
		<path fill="#F6F6F6" d="M40.1,13.5h-0.5c0-0.1-0.2-0.4-0.6-0.9c-0.4-0.6-0.6-1-0.7-1.2h0c0,0.3,0.1,0.6,0.1,0.8c0,0.3,0,0.8,0,1.3
			h-0.5c0-0.4,0-0.9,0-1.4c0-0.5,0-0.9,0-1.3h0.6c0,0.1,0.2,0.4,0.5,0.9c0.4,0.5,0.6,0.9,0.6,1.1h0c0-0.3,0-0.6,0-0.8
			c0-0.4,0-0.8,0-1.2h0.5c0,0.3,0,0.8,0,1.3C40.1,12.6,40.1,13.1,40.1,13.5z"/>
		<path fill="#F6F6F6" d="M43.2,12.1c0,0.4-0.1,0.7-0.4,1c-0.3,0.3-0.6,0.4-1.1,0.4c-0.2,0-0.5,0-0.9,0c0-0.4,0-0.9,0-1.4
			c0-0.5,0-0.9,0-1.3h0.4c0.1,0,0.1,0,0.3,0c0.1,0,0.2,0,0.2,0c0.5,0,0.9,0.1,1.1,0.4C43,11.4,43.2,11.7,43.2,12.1z M42.6,12.2
			c0-0.3-0.1-0.5-0.2-0.7c-0.2-0.2-0.4-0.3-0.7-0.3c-0.1,0-0.1,0-0.2,0c0,0.3,0,0.6,0,0.9c0,0.3,0,0.7,0,1c0.1,0,0.2,0,0.3,0
			c0.3,0,0.5-0.1,0.7-0.3C42.5,12.7,42.6,12.4,42.6,12.2z"/>
		<path fill="#F6F6F6" d="M45.9,13.5h-0.6c-0.2-0.5-0.3-0.8-0.4-0.9c-0.1-0.1-0.2-0.2-0.4-0.2c-0.1,0-0.2,0-0.2,0c0,0.4,0,0.7,0,1.1
			h-0.6c0-0.4,0-0.9,0-1.4c0-0.5,0-0.9,0-1.3h0.4c0,0,0.1,0,0.3,0c0.1,0,0.3,0,0.4,0c0.6,0,1,0.2,1,0.7c0,0.3-0.2,0.6-0.5,0.7v0
			c0.1,0,0.3,0.1,0.4,0.3C45.6,12.7,45.8,13.1,45.9,13.5z M45.2,11.6c0-0.3-0.2-0.4-0.5-0.4c-0.1,0-0.2,0-0.3,0c0,0.2,0,0.5,0,0.8
			c0.1,0,0.1,0,0.2,0C44.9,12.1,45.2,11.9,45.2,11.6z"/>
		<path fill="#F6F6F6" d="M48.9,12.1c0,0.4-0.1,0.8-0.4,1.1c-0.3,0.3-0.6,0.4-1,0.4c-0.4,0-0.7-0.1-0.9-0.4c-0.2-0.3-0.4-0.6-0.4-1
			c0-0.4,0.1-0.8,0.4-1.1c0.3-0.3,0.6-0.4,1-0.4c0.4,0,0.7,0.1,0.9,0.4C48.8,11.4,48.9,11.7,48.9,12.1z M48.3,12.2
			c0-0.3-0.1-0.5-0.2-0.7c-0.2-0.2-0.3-0.3-0.5-0.3c-0.2,0-0.4,0.1-0.5,0.3c-0.1,0.2-0.2,0.4-0.2,0.7c0,0.3,0.1,0.5,0.2,0.7
			c0.1,0.2,0.3,0.3,0.5,0.3c0.2,0,0.4-0.1,0.5-0.3C48.3,12.7,48.3,12.5,48.3,12.2z"/>
		<path fill="#F6F6F6" d="M50.1,13.5h-0.6c0-0.4,0-0.9,0-1.4c0-0.5,0-0.9,0-1.3h0.6c0,0.4,0,0.8,0,1.3
			C50.1,12.6,50.1,13.1,50.1,13.5z"/>
		<path fill="#F6F6F6" d="M53.1,12.1c0,0.4-0.1,0.7-0.4,1c-0.3,0.3-0.6,0.4-1.1,0.4c-0.2,0-0.5,0-0.8,0c0-0.4,0-0.9,0-1.4
			c0-0.5,0-0.9,0-1.3h0.4c0.1,0,0.1,0,0.3,0c0.1,0,0.2,0,0.2,0c0.5,0,0.9,0.1,1.1,0.4C53,11.4,53.1,11.7,53.1,12.1z M52.6,12.2
			c0-0.3-0.1-0.5-0.2-0.7c-0.2-0.2-0.4-0.3-0.7-0.3c-0.1,0-0.1,0-0.2,0c0,0.3,0,0.6,0,0.9c0,0.3,0,0.7,0,1c0.1,0,0.2,0,0.3,0
			c0.3,0,0.5-0.1,0.7-0.3C52.5,12.7,52.6,12.4,52.6,12.2z"/>
		<path fill="#F6F6F6" d="M57.1,13.5h-0.7c0-0.1-0.1-0.4-0.2-0.8h-1c-0.1,0.4-0.2,0.7-0.2,0.8h-0.6c0-0.1,0.2-0.5,0.5-1.3
			c0.3-0.8,0.5-1.3,0.5-1.4h0.8c0,0.1,0.1,0.5,0.4,1.4C57,13,57.1,13.5,57.1,13.5z M56.2,12.4c-0.2-0.7-0.4-1.1-0.4-1.2h0
			c0,0.1-0.1,0.4-0.4,1.2H56.2z"/>
		<path fill="#F6F6F6" d="M59.6,11.5c0,0.3-0.1,0.6-0.4,0.7c-0.2,0.2-0.5,0.2-0.9,0.2c-0.1,0-0.1,0-0.1,0c0,0.3,0,0.6,0,1h-0.6
			c0-0.4,0-0.9,0-1.4c0-0.5,0-0.9,0-1.3h0.4c0.1,0,0.2,0,0.3,0c0.1,0,0.3,0,0.4,0c0.3,0,0.5,0.1,0.7,0.2
			C59.5,11.1,59.6,11.3,59.6,11.5z M59,11.7c0-0.3-0.2-0.4-0.6-0.4c-0.1,0-0.2,0-0.3,0c0,0.3,0,0.6,0,0.9c0,0,0.1,0,0.1,0
			C58.8,12.1,59,12,59,11.7z"/>
		<path fill="#F6F6F6" d="M62.1,11.5c0,0.3-0.1,0.6-0.4,0.7c-0.2,0.2-0.5,0.2-0.9,0.2c-0.1,0-0.1,0-0.1,0c0,0.3,0,0.6,0,1h-0.6
			c0-0.4,0-0.9,0-1.4c0-0.5,0-0.9,0-1.3h0.4c0.1,0,0.1,0,0.3,0c0.1,0,0.3,0,0.4,0c0.3,0,0.5,0.1,0.7,0.2
			C62,11.1,62.1,11.3,62.1,11.5z M61.5,11.7c0-0.3-0.2-0.4-0.6-0.4c-0.1,0-0.2,0-0.3,0c0,0.3,0,0.6,0,0.9c0,0,0.1,0,0.1,0
			C61.3,12.1,61.5,12,61.5,11.7z"/>
		<path fill="#F6F6F6" d="M66.1,12.1c0,0.4-0.1,0.8-0.4,1.1c-0.3,0.3-0.6,0.4-1,0.4c-0.4,0-0.7-0.1-0.9-0.4c-0.2-0.3-0.4-0.6-0.4-1
			c0-0.4,0.1-0.8,0.4-1.1c0.3-0.3,0.6-0.4,1-0.4c0.4,0,0.7,0.1,0.9,0.4C66,11.4,66.1,11.7,66.1,12.1z M65.6,12.2
			c0-0.3-0.1-0.5-0.2-0.7c-0.1-0.2-0.3-0.3-0.5-0.3c-0.2,0-0.4,0.1-0.5,0.3c-0.1,0.2-0.2,0.4-0.2,0.7c0,0.3,0.1,0.5,0.2,0.7
			c0.1,0.2,0.3,0.3,0.5,0.3c0.2,0,0.4-0.1,0.5-0.3C65.5,12.7,65.6,12.5,65.6,12.2z"/>
		<path fill="#F6F6F6" d="M69,13.5h-0.5c0-0.1-0.2-0.4-0.6-0.9c-0.4-0.6-0.6-1-0.7-1.2h0c0,0.3,0.1,0.6,0.1,0.8c0,0.3,0,0.8,0,1.3
			h-0.5c0-0.4,0-0.9,0-1.4c0-0.5,0-0.9,0-1.3h0.6c0,0.1,0.2,0.4,0.5,0.9c0.4,0.5,0.6,0.9,0.6,1.1h0c0-0.3-0.1-0.6-0.1-0.8
			c0-0.4,0-0.8,0-1.2H69c0,0.3,0,0.8,0,1.3C68.9,12.6,68.9,13.1,69,13.5z"/>
	</g>
</g>
<g display="none">
	<rect x="4.8" y="4.3" display="inline" fill="#67686B" width="98.9" height="32.4"/>
	<path fill="#FFFFFF" d="M21.9,9.8h-8.1c-1,0-1.7,0.8-1.7,1.7v17.9c0,1,0.8,1.7,1.7,1.7h8.1c1,0,1.7-0.8,1.7-1.7V11.5
		C23.6,10.6,22.9,9.8,21.9,9.8z M17.9,29.9c-0.6,0-1.2-0.5-1.2-1.2c0-0.6,0.5-1.2,1.2-1.2c0.6,0,1.2,0.5,1.2,1.2
		C19,29.3,18.5,29.9,17.9,29.9z M22.3,27h-8.8V13.8h8.8V27z"/>
	<g display="inline">
		<path fill="#FFFFFF" d="M25.9,25.1c-0.5,1-0.7,1.5-1.3,2.4c-0.9,1.3-2.1,2.9-3.5,2.9c-1.3,0-1.7-0.9-3.5-0.8
			c-1.8,0-2.2,0.9-3.5,0.9c-1.5,0-2.6-1.5-3.5-2.8C8.2,24.1,8,19.9,9.5,17.6c1-1.6,2.7-2.5,4.2-2.5c1.6,0,2.6,0.9,3.9,0.9
			c1.3,0,2-0.9,3.9-0.9c1.4,0,2.8,0.7,3.9,2C21.9,19,22.4,23.8,25.9,25.1z"/>
		<g>
			<path fill="#FFFFFF" d="M20,13.6c0.7-0.8,1.2-2,1-3.3c-1.1,0.1-2.3,0.8-3.1,1.7c-0.7,0.8-1.2,2-1,3.2
				C18.1,15.2,19.3,14.5,20,13.6z"/>
		</g>
	</g>
	<g display="inline">
		<path fill="#FFFFFF" d="M30.2,13l-0.5,1.5h-0.6l1.6-4.7h0.7l1.6,4.7h-0.7L31.9,13H30.2z M31.8,12.5l-0.5-1.4
			c-0.1-0.3-0.2-0.6-0.2-0.9h0c-0.1,0.3-0.1,0.6-0.2,0.9l-0.5,1.4H31.8z"/>
		<path fill="#FFFFFF" d="M33.7,11.1l0.7,1.9c0.1,0.3,0.2,0.6,0.3,0.9h0c0.1-0.3,0.2-0.6,0.3-0.9l0.7-1.9h0.6l-1.3,3.4h-0.6L33,11.1
			H33.7z"/>
		<path fill="#FFFFFF" d="M39.1,13.7c0,0.3,0,0.6,0.1,0.8h-0.6L38.5,14h0c-0.2,0.3-0.6,0.5-1,0.5c-0.7,0-1-0.5-1-1
			c0-0.8,0.7-1.3,2-1.3v-0.1c0-0.3-0.1-0.8-0.8-0.8c-0.3,0-0.6,0.1-0.9,0.3l-0.1-0.4c0.3-0.2,0.7-0.3,1.1-0.3c1,0,1.3,0.7,1.3,1.4
			V13.7z M38.5,12.7c-0.7,0-1.4,0.1-1.4,0.8c0,0.4,0.3,0.6,0.6,0.6c0.4,0,0.7-0.3,0.8-0.6c0-0.1,0-0.1,0-0.2V12.7z"/>
		<path fill="#FFFFFF" d="M40.3,10.5c-0.2,0-0.4-0.2-0.4-0.4c0-0.2,0.2-0.4,0.4-0.4c0.2,0,0.4,0.2,0.4,0.4
			C40.7,10.3,40.6,10.5,40.3,10.5L40.3,10.5z M40,14.5v-3.4h0.6v3.4H40z"/>
		<path fill="#FFFFFF" d="M41.6,9.5h0.6v5h-0.6V9.5z"/>
		<path fill="#FFFFFF" d="M45.6,13.7c0,0.3,0,0.6,0,0.8h-0.5L45.1,14h0c-0.2,0.3-0.5,0.5-1,0.5c-0.7,0-1-0.5-1-1
			c0-0.8,0.7-1.3,2-1.3v-0.1c0-0.3-0.1-0.8-0.8-0.8c-0.3,0-0.6,0.1-0.9,0.3l-0.1-0.4c0.3-0.2,0.7-0.3,1.1-0.3c1,0,1.3,0.7,1.3,1.4
			V13.7z M45,12.7c-0.7,0-1.4,0.1-1.4,0.8c0,0.4,0.3,0.6,0.6,0.6c0.4,0,0.7-0.3,0.8-0.6c0-0.1,0-0.1,0-0.2V12.7z"/>
		<path fill="#FFFFFF" d="M46.6,9.5h0.6v2.1h0c0.2-0.4,0.6-0.6,1.2-0.6c0.8,0,1.4,0.7,1.4,1.7c0,1.2-0.8,1.8-1.5,1.8
			c-0.5,0-0.9-0.2-1.1-0.6h0l0,0.6h-0.5c0-0.2,0-0.6,0-0.9V9.5z M47.2,13.1c0,0.1,0,0.2,0,0.2c0.1,0.4,0.5,0.7,0.9,0.7
			c0.7,0,1-0.5,1-1.3c0-0.7-0.4-1.3-1-1.3c-0.4,0-0.8,0.3-0.9,0.8c0,0.1,0,0.2,0,0.3V13.1z"/>
		<path fill="#FFFFFF" d="M50.5,9.5h0.6v5h-0.6V9.5z"/>
		<path fill="#FFFFFF" d="M52.5,12.9c0,0.8,0.5,1.2,1.2,1.2c0.4,0,0.7-0.1,0.9-0.2l0.1,0.4c-0.2,0.1-0.6,0.2-1.1,0.2
			c-1,0-1.7-0.7-1.7-1.7c0-1,0.6-1.8,1.6-1.8c1.1,0,1.4,1,1.4,1.6c0,0.1,0,0.2,0,0.3L52.5,12.9z M54.3,12.4c0-0.4-0.2-1-0.8-1
			c-0.6,0-0.9,0.6-0.9,1H54.3z"/>
		<path fill="#FFFFFF" d="M58.4,14.5c-0.9,0-1.6-0.7-1.6-1.7c0-1.1,0.7-1.8,1.7-1.8c1,0,1.6,0.7,1.6,1.7
			C60.1,14,59.2,14.5,58.4,14.5L58.4,14.5z M58.4,14.1c0.6,0,1-0.6,1-1.3c0-0.6-0.3-1.3-1-1.3c-0.7,0-1,0.7-1,1.3
			C57.4,13.5,57.8,14.1,58.4,14.1L58.4,14.1z"/>
		<path fill="#FFFFFF" d="M60.9,12c0-0.4,0-0.6,0-0.9h0.5l0,0.6h0c0.2-0.3,0.6-0.6,1.1-0.6c0.5,0,1.2,0.3,1.2,1.4v2h-0.6v-2
			c0-0.5-0.2-1-0.8-1c-0.4,0-0.7,0.3-0.8,0.6c0,0.1,0,0.2,0,0.3v2h-0.6V12z"/>
		<path fill="#FFFFFF" d="M66.9,10.3v0.8h0.9v0.5h-0.9v1.8c0,0.4,0.1,0.7,0.5,0.7c0.2,0,0.3,0,0.4,0l0,0.5c-0.1,0-0.3,0.1-0.5,0.1
			c-0.3,0-0.5-0.1-0.7-0.3c-0.2-0.2-0.2-0.5-0.2-0.9v-1.8h-0.5v-0.5h0.5v-0.6L66.9,10.3z"/>
		<path fill="#FFFFFF" d="M68.4,9.5H69v2.1h0c0.1-0.2,0.3-0.3,0.4-0.4c0.2-0.1,0.4-0.2,0.6-0.2c0.5,0,1.2,0.3,1.2,1.4v2h-0.6v-1.9
			c0-0.6-0.2-1-0.8-1c-0.4,0-0.7,0.3-0.8,0.6c0,0.1,0,0.2,0,0.3v2h-0.6V9.5z"/>
		<path fill="#FFFFFF" d="M72.6,12.9c0,0.8,0.5,1.2,1.2,1.2c0.4,0,0.7-0.1,0.9-0.2l0.1,0.4c-0.2,0.1-0.6,0.2-1.1,0.2
			c-1,0-1.7-0.7-1.7-1.7c0-1,0.6-1.8,1.6-1.8c1.1,0,1.4,1,1.4,1.6c0,0.1,0,0.2,0,0.3L72.6,12.9z M74.4,12.4c0-0.4-0.2-1-0.8-1
			c-0.6,0-0.9,0.6-0.9,1H74.4z"/>
		<path fill="#FFFFFF" d="M77.5,10.5c-0.2,0-0.4-0.2-0.4-0.4c0-0.2,0.2-0.4,0.4-0.4c0.2,0,0.4,0.2,0.4,0.4
			C77.9,10.3,77.7,10.5,77.5,10.5L77.5,10.5z M77.2,14.5v-3.4h0.6v3.4H77.2z"/>
		<path fill="#FFFFFF" d="M78.8,9.8c0.3-0.1,0.7-0.1,1.2-0.1c0.6,0,1,0.1,1.3,0.4c0.3,0.2,0.4,0.6,0.4,1c0,0.4-0.1,0.8-0.4,1
			c-0.3,0.3-0.8,0.5-1.4,0.5c-0.2,0-0.3,0-0.5,0v1.9h-0.6V9.8z M79.4,12.1c0.1,0,0.3,0,0.5,0c0.7,0,1.2-0.4,1.2-1
			c0-0.6-0.4-0.9-1.1-0.9c-0.3,0-0.5,0-0.6,0V12.1z"/>
		<path fill="#FFFFFF" d="M82.5,9.5h0.6v2.1h0c0.1-0.2,0.3-0.3,0.4-0.4c0.2-0.1,0.4-0.2,0.6-0.2c0.5,0,1.2,0.3,1.2,1.4v2h-0.6v-1.9
			c0-0.6-0.2-1-0.8-1c-0.4,0-0.7,0.3-0.8,0.6c0,0.1,0,0.2,0,0.3v2h-0.6V9.5z"/>
		<path fill="#FFFFFF" d="M87.7,14.5c-0.9,0-1.6-0.7-1.6-1.7c0-1.1,0.7-1.8,1.7-1.8c1,0,1.6,0.7,1.6,1.7
			C89.4,14,88.5,14.5,87.7,14.5L87.7,14.5z M87.7,14.1c0.6,0,1-0.6,1-1.3c0-0.6-0.3-1.3-1-1.3c-0.7,0-1,0.7-1,1.3
			C86.7,13.5,87.1,14.1,87.7,14.1L87.7,14.1z"/>
		<path fill="#FFFFFF" d="M90.1,12c0-0.4,0-0.6,0-0.9h0.5l0,0.6h0c0.2-0.3,0.6-0.6,1.1-0.6c0.5,0,1.2,0.3,1.2,1.4v2h-0.6v-2
			c0-0.5-0.2-1-0.8-1c-0.4,0-0.7,0.3-0.8,0.6c0,0.1,0,0.2,0,0.3v2h-0.6V12z"/>
		<path fill="#FFFFFF" d="M94.3,12.9c0,0.8,0.5,1.2,1.2,1.2c0.4,0,0.7-0.1,0.9-0.2l0.1,0.4c-0.2,0.1-0.6,0.2-1.1,0.2
			c-1,0-1.7-0.7-1.7-1.7c0-1,0.6-1.8,1.6-1.8c1.1,0,1.4,1,1.4,1.6c0,0.1,0,0.2,0,0.3L94.3,12.9z M96.1,12.4c0-0.4-0.2-1-0.8-1
			c-0.6,0-0.9,0.6-0.9,1H96.1z"/>
	</g>
	<g display="inline">
		<path fill="#FFFFFF" d="M33.1,17.7L29,29.9h1.9l1.2-3.8h4l1.3,3.8h2l-4.2-12.2H33.1z M34.1,19.7c0.1,0.5,0.3,1.1,0.5,1.7l1.1,3.2
			h-3.2l1.1-3.3C33.8,20.8,34,20.3,34.1,19.7z"/>
		<path fill="#FFFFFF" d="M44.8,20.8c-1.3,0-2.3,0.5-2.9,1.4L41.7,21H40l0,0.2c0,0.8,0.1,1.6,0.1,2.8v9.4H42V29
			c0.6,0.7,1.5,1.1,2.5,1.1c1.1,0,2.1-0.4,2.8-1.2c0.8-0.9,1.2-2.1,1.2-3.6c0-1.3-0.4-2.4-1.1-3.2C46.8,21.3,45.8,20.8,44.8,20.8z
			 M44.3,22.4c1.6,0,2.4,1.5,2.4,3c0,1.9-0.9,3.2-2.5,3.2c-1,0-1.9-0.7-2.2-1.7c0-0.2-0.1-0.4-0.1-0.6v-1.5c0-0.1,0-0.3,0.1-0.5
			c0-0.1,0-0.1,0-0.2C42.3,23.1,43.3,22.4,44.3,22.4z"/>
		<path fill="#FFFFFF" d="M54.3,20.8c-1.3,0-2.3,0.5-2.9,1.4L51.3,21h-1.7l0,0.2c0.1,0.8,0.1,1.6,0.1,2.8v9.4h1.8V29
			c0.6,0.7,1.5,1.1,2.5,1.1c1.1,0,2.1-0.4,2.8-1.2c0.8-0.9,1.2-2.1,1.2-3.6c0-1.3-0.4-2.4-1.1-3.2C56.3,21.3,55.3,20.8,54.3,20.8z
			 M53.8,22.4c1.6,0,2.4,1.5,2.4,3c0,1.9-0.9,3.2-2.5,3.2c-1,0-1.9-0.7-2.2-1.7c0-0.2-0.1-0.4-0.1-0.6v-1.5c0-0.1,0-0.3,0.1-0.5
			c0-0.1,0-0.1,0-0.1C51.9,23.1,52.8,22.4,53.8,22.4z"/>
		<path fill="#FFFFFF" d="M66.2,22.8c-1.7-0.7-2.3-1.2-2.3-2.2c0-0.8,0.7-1.6,2.1-1.6c1.2,0,2,0.4,2.2,0.5l0.2,0.1l0.5-1.5l-0.1-0.1
			c-0.3-0.2-1.2-0.6-2.7-0.6c-2.4,0-4,1.4-4,3.4c0,1.6,1,2.7,3.2,3.5c1.6,0.6,2.2,1.2,2.2,2.2c0,1.2-0.9,1.9-2.4,1.9
			c-0.9,0-1.9-0.3-2.7-0.8l-0.2-0.1l-0.5,1.6l0.1,0.1c0.7,0.5,2,0.8,3.1,0.8c3.2,0,4.3-1.9,4.3-3.6C69.3,24.8,68.4,23.7,66.2,22.8z"
			/>
		<path fill="#FFFFFF" d="M72.6,18.9l-1.8,0.6V21h-1.3v1.5h1.3V27c0,1.1,0.2,1.9,0.6,2.3c0.4,0.5,1,0.7,1.8,0.7
			c0.7,0,1.2-0.1,1.4-0.2l0.1,0l-0.1-1.5l-0.2,0.1c-0.2,0.1-0.5,0.1-0.9,0.1c-0.7,0-1-0.5-1-1.5v-4.5h2.2V21h-2.2V18.9z"/>
		<path fill="#FFFFFF" d="M79.4,20.8c-2.6,0-4.4,1.9-4.4,4.7c0,2.7,1.7,4.5,4.2,4.5h0c2.1,0,4.4-1.5,4.4-4.7c0-1.3-0.4-2.4-1.2-3.3
			C81.8,21.3,80.7,20.8,79.4,20.8z M79.4,22.3c1.7,0,2.4,1.6,2.4,3.1c0,1.9-1,3.2-2.5,3.2h0c-1.4,0-2.4-1.3-2.4-3.1
			C76.9,23.9,77.7,22.3,79.4,22.3z"/>
		<path fill="#FFFFFF" d="M89.4,20.9l-0.1,0c-0.2,0-0.3-0.1-0.5-0.1c-1,0-1.8,0.6-2.3,1.5L86.4,21h-1.7l0,0.2c0,0.7,0.1,1.6,0.1,2.7
			l0,6h1.8v-4.7c0-0.3,0-0.5,0-0.7c0.2-1.1,1-1.9,1.9-1.9c0.2,0,0.3,0,0.5,0l0.2,0V20.9z"/>
		<path fill="#FFFFFF" d="M93.5,20.8c-2.5,0-4.2,2-4.2,4.8c0,2.7,1.7,4.5,4.4,4.5c1.4,0,2.4-0.3,2.9-0.6l0.1-0.1l-0.4-1.4l-0.2,0.1
			c-0.5,0.2-1.2,0.4-2.3,0.4c-0.8,0-2.7-0.3-2.8-2.7l6,0l0-0.1c0-0.2,0.1-0.4,0.1-0.8C97.2,23.1,96.2,20.8,93.5,20.8z M93.4,22.2
			c0.6,0,1,0.2,1.4,0.5c0.5,0.5,0.6,1.3,0.6,1.7h-4.2C91.3,23.4,92,22.2,93.4,22.2z"/>
	</g>
</g>
</svg>
