<?xml version="1.0" encoding="UTF-8"?>
<svg enable-background="new 0 0 480 480" fill="#67686b" version="1.1" viewBox="0 0 480 480" xml:space="preserve" xmlns="http://www.w3.org/2000/svg">
		<path d="m256 72v-16h-16.72c-1.201-7.125-4.005-13.885-8.2-19.768l11.832-11.832-11.312-11.312-11.832 11.832c-5.883-4.195-12.643-6.999-19.768-8.2v-16.72h-16v16.72c-7.125 1.201-13.885 4.005-19.768 8.2l-11.832-11.832-11.312 11.312 11.832 11.832c-4.195 5.883-6.999 12.643-8.2 19.768h-16.72v16h16.72c1.201 7.125 4.005 13.885 8.2 19.768l-11.832 11.832 11.312 11.312 11.832-11.832c5.883 4.195 12.643 6.999 19.768 8.2v16.72h16v-16.72c7.125-1.201 13.885-4.005 19.768-8.2l11.832 11.832 11.312-11.312-11.832-11.832c4.195-5.883 6.999-12.643 8.2-19.768h16.72zm-64 24c-17.673 0-32-14.327-32-32s14.327-32 32-32 32 14.327 32 32-14.327 32-32 32z"/>
		<path d="m336 160c0.018 10.633-2.102 21.162-6.232 30.96l14.744 6.208c4.963-11.762 7.509-24.402 7.488-37.168h-16z"/>
		<path d="m285.6 68.672l-4.936 15.216c18.378 5.987 33.976 18.407 43.928 34.976l13.704-8.248c-11.942-19.87-30.653-34.764-52.696-41.944z"/>
		<path d="M176,160h-16c-0.064,21.386,7.09,42.169,20.304,58.984l12.608-9.84C181.907,195.131,175.949,177.817,176,160z"/>
		<path d="m236.15 237.5l-3.976 15.504c7.785 1.989 15.789 2.994 23.824 2.992v-16c-6.695 7e-3 -13.364-0.831-19.848-2.496z"/>
		<path d="m320 168v-16h-16.72c-1.201-7.125-4.005-13.885-8.2-19.768l11.832-11.832-11.312-11.312-11.832 11.832c-5.883-4.195-12.643-6.999-19.768-8.2v-16.72h-16v16.72c-7.125 1.201-13.885 4.005-19.768 8.2l-11.832-11.832-11.312 11.312 11.832 11.832c-4.195 5.883-6.999 12.643-8.2 19.768h-16.72v16h16.72c1.201 7.125 4.005 13.885 8.2 19.768l-11.832 11.832 11.312 11.312 11.832-11.832c5.883 4.195 12.643 6.999 19.768 8.2v16.72h16v-16.72c7.125-1.201 13.885-4.005 19.768-8.2l11.832 11.832 11.312-11.312-11.832-11.832c4.195-5.883 6.999-12.643 8.2-19.768h16.72zm-64 24c-17.673 0-32-14.327-32-32s14.327-32 32-32 32 14.327 32 32-14.327 32-32 32z"/>
		<path d="m96 168h-56c-22.08 0.026-39.974 17.92-40 40v80c0 4.418 3.582 8 8 8h48c26.499-0.026 47.974-21.501 48-48v-72c0-4.418-3.582-8-8-8zm-8 80c0 17.673-14.327 32-32 32h-40v-64h72v32zm0-48h-70.528c3.378-9.555 12.394-15.958 22.528-16h48v16z"/>
		<path d="M32,224c-4.418,0-8,3.582-8,8v16h16v-8h8v-16H32z"/>
		<path d="m440 168h-40c-13.255 0-24 10.745-24 24v56c0.026 26.499 21.501 47.974 48 48h48c4.418 0 8-3.582 8-8v-80c-0.026-22.08-17.92-39.974-40-40zm-48 24c0-4.418 3.582-8 8-8h40c10.134 0.042 19.15 6.445 22.528 16h-70.528v-8zm72 88h-40c-17.673 0-32-14.327-32-32v-32h72v64z"/>
		<path d="m448 224h-16v16h8v8h16v-16c0-4.418-3.582-8-8-8z"/>
		<path d="m472 304h-40c-30.911 0.04-55.96 25.089-56 56v4.688l-35.312 35.312h-97.376l-13.656-13.656-11.312 11.312 2.344 2.344h-81.376l-35.312-35.312v-4.688c-0.04-30.911-25.089-55.96-56-56h-40c-4.418 0-8 3.582-8 8v160c0 4.418 3.582 8 8 8h88c4.418 0 8-3.582 8-8v-39.2c16.08 15.2 17.28 15.2 19.88 15.2h80.8l29.656 29.656c3.124 3.123 8.188 3.123 11.312 0l29.664-29.656h80.8c2.544 0 3.888 0 19.888-15.04v39.04c0 4.418 3.582 8 8 8h88c4.418 0 8-3.582 8-8v-160c0-4.418-3.582-8-8-8zm-384 160h-72v-144h32c16.658 0.044 31.54 10.418 37.344 26.032l-11.744-11.768c-9.699-9.721-25.442-9.738-35.163-0.038-4.717 4.707-7.348 11.11-7.301 17.774 0.02 6.64 2.727 12.988 7.504 17.6 21.784 21.192 37.656 36.616 49.36 47.904v46.496zm38.704-32c-6.312-5.6-29.032-27.264-76.904-73.832-3.488-3.422-3.541-9.024-0.119-12.512 0.018-0.019 0.037-0.037 0.055-0.056 3.464-3.448 9.064-3.448 12.528 0l68.08 68.08c1.504 1.492 3.538 2.326 5.656 2.32h84.688l-16 16h-77.984zm113.3 28.688l-20.688-20.688 20.688-20.688 20.688 20.688-20.688 20.688zm113.4-28.688h-78.088l-16-16h84.688c2.122 0 4.156-0.844 5.656-2.344l68.064-68.056c3.456-3.486 9.083-3.511 12.569-0.055 1.703 1.688 2.652 3.993 2.631 6.391-5e-3 2.362-0.966 4.622-2.664 6.264-47.856 46.76-70.608 68.336-76.856 73.8zm110.6 32h-72v-46.296c11.72-11.296 27.616-26.768 49.416-48.064 9.844-9.587 10.053-25.338 0.467-35.183-9.586-9.844-25.338-10.053-35.183-0.467-0.098 0.096-0.196 0.192-0.292 0.289l-11.752 11.752c5.804-15.613 20.686-25.987 37.344-26.031h32v144z"/>
</svg>
