<svg xmlns="http://www.w3.org/2000/svg" id="Layer_1" data-name="Layer 1" viewBox="0 0 34.6 32.24"><defs><style>.cls-1{fill:#298649;}</style></defs><title>house</title><path class="cls-1" d="M51,16.6,35.28,3.08a1.56,1.56,0,0,0-2.05,0L17.5,16.6A1.57,1.57,0,0,0,19.55,19L34.25,6.34,49,19a1.57,1.57,0,0,0,1,.38,1.61,1.61,0,0,0,1.2-.55A1.58,1.58,0,0,0,51,16.6Z" transform="translate(-16.95 -2.7)"></path><polygon class="cls-1" points="22.97 17.76 11.63 17.76 9.85 22.74 24.75 22.74 22.97 17.76"></polygon><path class="cls-1" d="M42.45,28.58H38.51a.32.32,0,0,0-.32.33v1.18a.32.32,0,0,0,.32.32h3.94a.32.32,0,0,0,.32-.32V28.91A.32.32,0,0,0,42.45,28.58Z" transform="translate(-16.95 -2.7)"></path><path class="cls-1" d="M32,29a.32.32,0,0,0-.33.32v.33A.33.33,0,0,0,32,30h4.59a.33.33,0,0,0,.33-.33v-.33a.32.32,0,0,0-.33-.32Z" transform="translate(-16.95 -2.7)"></path><path class="cls-1" d="M30.32,30.09V28.91a.32.32,0,0,0-.32-.33H26.06a.32.32,0,0,0-.32.33v1.18a.32.32,0,0,0,.32.32H30A.32.32,0,0,0,30.32,30.09Z" transform="translate(-16.95 -2.7)"></path><path class="cls-1" d="M34.77,8.55a.8.8,0,0,0-1,0L21.89,18.77a.8.8,0,0,0-.27.6V34.15a.78.78,0,0,0,.78.79h1.76V32.41a2.76,2.76,0,0,1-.52-1.6V28.19A2.74,2.74,0,0,1,25,25.83l2.29-6.43a.79.79,0,0,1,.74-.52H40.48a.79.79,0,0,1,.74.52l2.29,6.43a2.74,2.74,0,0,1,1.36,2.36v2.62a2.76,2.76,0,0,1-.52,1.6v2.53h1.76a.78.78,0,0,0,.78-.79V19.37a.8.8,0,0,0-.27-.6Z" transform="translate(-16.95 -2.7)"></path><rect class="cls-1" x="11.01" y="30.86" width="12.58" height="1.38"></rect></svg>