<svg xmlns="http://www.w3.org/2000/svg" enable-background="new 0 0 512 512" fill="currentColor" version="1.1" viewBox="0 0 512 512" xml:space="preserve"><path d="m486.4 0h-460.8c-14.139 0-25.6 11.461-25.6 25.6v384c0 14.138 11.461 25.6 25.6 25.6h179.2v59.733h-76.8c-4.713 0-8.533 3.82-8.533 8.533s3.82 8.534 8.533 8.534h256c4.713 0 8.533-3.82 8.533-8.533s-3.82-8.533-8.533-8.533h-162.13v-59.734h68.267v25.6c0 4.713 3.82 8.533 8.533 8.533s8.533-3.82 8.533-8.533v-25.6h179.2c14.138 0 25.6-11.461 25.6-25.6v-384c0-14.139-11.461-25.6-25.6-25.6zm8.533 409.6c0 4.713-3.82 8.533-8.533 8.533h-460.8c-4.713 0-8.533-3.82-8.533-8.533v-42.667h477.87v42.667zm0-59.733h-477.87v-324.27c0-4.713 3.82-8.533 8.533-8.533h460.8c4.713 0 8.533 3.82 8.533 8.533v324.27z"></path><path d="m435.2 76.8h-358.4c-9.426 0-17.067 7.641-17.067 17.067v179.2c0 9.426 7.641 17.067 17.067 17.067h307.2c4.713 0 8.533-3.82 8.533-8.533s-3.82-8.533-8.533-8.533h-307.2v-179.2h358.4v187.73c0 4.713 3.82 8.533 8.533 8.533s8.533-3.82 8.533-8.533v-187.73c1e-3 -9.426-7.64-17.067-17.066-17.067z"></path><path d="m153.6 196.03c20.526-2.295 35.559-20.414 34.028-41.01s-19.081-36.292-39.72-35.525-36.975 17.721-36.974 38.375c0 4.713 3.82 8.533 8.533 8.533s8.533-3.82 8.533-8.533c0-11.782 9.551-21.333 21.333-21.333s21.333 9.551 21.333 21.333-9.551 21.333-21.333 21.333h-4.267c-4.713 0-8.533 3.82-8.533 8.533v17.066c0 4.713 3.82 8.533 8.533 8.533s8.533-3.821 8.533-8.533v-8.772z"></path><path d="m139.01 232.88c-3.3 3.365-3.3 8.752 0 12.117 3.34 3.312 8.73 3.298 12.051-0.033 3.322-3.331 3.322-8.721 0-12.052-3.321-3.33-8.711-3.345-12.051-0.032z"></path><path d="m341.33 153.6c0-4.713-3.821-8.533-8.533-8.533h-110.93c-4.713 0-8.533 3.821-8.533 8.533 0 4.713 3.82 8.533 8.533 8.533h110.93c4.713 0 8.533-3.82 8.533-8.533z"></path><path d="m392.53 145.07h-25.6c-4.713 0-8.533 3.821-8.533 8.533 0 4.713 3.82 8.533 8.533 8.533h25.6c4.713 0 8.533-3.821 8.533-8.533 1e-3 -4.713-3.82-8.533-8.533-8.533z"></path><path d="m281.6 179.2h-59.733c-4.713 0-8.533 3.82-8.533 8.533s3.82 8.533 8.533 8.533h59.733c4.713 0 8.533-3.82 8.533-8.533s-3.82-8.533-8.533-8.533z"></path><path d="m392.53 179.2h-76.8c-4.713 0-8.533 3.82-8.533 8.533s3.82 8.533 8.533 8.533h76.8c4.713 0 8.533-3.82 8.533-8.533s-3.82-8.533-8.533-8.533z"></path><path d="m281.6 213.33h-59.733c-4.713 0-8.533 3.82-8.533 8.533s3.82 8.533 8.533 8.533h59.733c4.713 0 8.533-3.82 8.533-8.533s-3.82-8.533-8.533-8.533z"></path><path d="m315.73 213.33c-4.713 0-8.533 3.82-8.533 8.533s3.82 8.533 8.533 8.533h34.133c4.713 0 8.533-3.82 8.533-8.533s-3.82-8.533-8.533-8.533h-34.133z"></path><path d="m392.53 213.33h-8.533c-4.713 0-8.533 3.82-8.533 8.533s3.82 8.533 8.533 8.533h8.533c4.713 0 8.533-3.82 8.533-8.533s-3.82-8.533-8.533-8.533z"></path></svg>