<svg xmlns="http://www.w3.org/2000/svg" enable-background="new 0 0 480 480" fill="currentColor" version="1.1" viewBox="0 0 480 480" xml:space="preserve"><path d="m456 232v-176c0-22.056-17.944-40-40-40h-352c-22.056 0-40 17.944-40 40v120c-13.232 0-24 10.768-24 24v240c0 13.232 10.768 24 24 24h176c13.232 0 24-10.768 24-24h67.048c7.544 0 14.496-3.44 19.072-9.432s6.064-13.608 4.08-20.88l-15.728-57.688h45.528v88c0 13.232 10.768 24 24 24h88c13.232 0 24-10.768 24-24v-184c0-13.232-10.768-24-24-24zm-248 208c0 4.408-3.592 8-8 8h-176c-4.408 0-8-3.592-8-8v-16h192v16zm0-32h-192v-176h192v176zm0-192h-192v-16c0-4.408 3.592-8 8-8h176c4.408 0 8 3.592 8 8v16zm90.768 197.9c0.664 2.424 0.168 4.96-1.36 6.96s-3.84 3.144-6.36 3.144h-67.048v-16h73.16l1.608 5.896zm-74.768-21.896v-40h57.888l10.912 40h-68.8zm120-56h-120v-48h120v48zm0-80v16h-120v-72c0-13.232-10.768-24-24-24h-160v-120c0-13.232 10.768-24 24-24h352c13.232 0 24 10.768 24 24v176h-72c-13.232 0-24 10.768-24 24zm120 184c0 4.408-3.592 8-8 8h-88c-4.408 0-8-3.592-8-8v-16h104v16zm0-32h-104v-120h104v120zm0-136h-104v-16c0-4.408 3.592-8 8-8h88c4.408 0 8 3.592 8 8v16z"></path><rect transform="matrix(.7071 -.7071 .7071 .7071 -218.84 143.66)" x="41.372" y="327.99" width="45.256" height="16"></rect><rect transform="matrix(.7071 -.7071 .7071 .7071 -194.44 186.58)" x="60.114" y="320" width="135.77" height="16"></rect><rect transform="matrix(.7071 -.7071 .7071 .7071 -162.85 166.86)" x="86.054" y="272" width="67.879" height="16"></rect><rect transform="matrix(.7071 -.7071 .7071 .7071 -116.44 382.9)" x="375.7" y="324.01" width="56.559" height="16"></rect><rect transform="matrix(.7071 -.7071 .7071 .7071 -134.41 403.6)" x="391.7" y="356.04" width="56.559" height="16"></rect><rect transform="matrix(.7071 -.7071 .7071 .7071 -25.876 209.53)" x="206.05" y="128" width="67.879" height="16"></rect><rect transform="matrix(.7071 -.7071 .7071 .7071 6.5281 255.76)" x="278.06" y="112" width="67.879" height="16"></rect><rect transform="matrix(.7071 -.7071 .7071 .7071 -49.48 232.57)" x="233.36" y="168.01" width="45.256" height="16"></rect><rect transform="matrix(.7071 -.7071 .7071 .7071 30.08 232.74)" x="273.3" y="72.062" width="45.368" height="16"></rect><rect x="56" y="48" width="16" height="16"></rect><rect x="88" y="48" width="16" height="16"></rect><rect x="120" y="48" width="16" height="16"></rect></svg>