<svg xmlns="http://www.w3.org/2000/svg" enable-background="new 0 0 489.6 489.6" fill="currentColor" version="1.1" viewBox="0 0 489.6 489.6" xml:space="preserve"><path d="m122.6 252.8h80.3c2.6 8 9.5 13.8 17.6 13.8h48.5c8.1 0 15-5.7 17.6-13.8h80.4c5 0 9.1-4.1 9.1-9.1s-4.1-9.1-9.1-9.1h-88.4c-5 0-9.1 4.1-9.1 9.1v2.1c0 1.4-0.5 2.3-0.8 2.6h-47.8c-0.3-0.3-0.9-1.2-0.9-2.6v-2.1c0-5-4.1-9.1-9.1-9.1h-88.3c-5 0-9.1 4.1-9.1 9.1 0.1 5 4.1 9.1 9.1 9.1z"></path><path d="m57.8 314.7h374c23.2 0 42.1-18.9 42.1-42.1v-22c0-5-4.1-9.1-9.1-9.1h-24.5v-213.6-0.9c-1.5-15.4-13.9-27-28.9-27h-334.4c-15.4 0-27.9 12.5-27.9 27.9v213.7h-24.4c-5 0-9.1 4.1-9.1 9.1v22c0 23.1 18.9 42 42.2 42zm-24.1-55h24.4c5 0 9.1-4.1 9.1-9.1v-222.7c0-5.4 4.4-9.8 9.8-9.8h334.5c5.4 0 10.1 4.5 10.8 10.3v222.2c0 5 4.1 9.1 9.1 9.1h24.4v12.9c0 13.2-10.8 24-24 24h-374c-13.2 0-24-10.8-24-24v-12.9h-0.1z"></path><path d="m468.8 452.4c5 0 9.1-4.1 9.1-9.1s-4.1-9.1-9.1-9.1h-178.6c-3.6-18.2-18-32.7-36.3-36.3v-42.1c0-5-4.1-9.1-9.1-9.1s-9.1 4.1-9.1 9.1v42.1c-18.2 3.6-32.7 18-36.3 36.3h-178.6c-5 0-9.1 4.1-9.1 9.1s4.1 9.1 9.1 9.1h178.7c4.2 21.2 23 37.2 45.4 37.2s41.1-16 45.4-37.2h178.5zm-224 19.1c-15.5 0-28.1-12.6-28.1-28.1s12.6-28.1 28.1-28.1 28.1 12.6 28.1 28.1-12.6 28.1-28.1 28.1z"></path></svg>