<svg xmlns="http://www.w3.org/2000/svg" enable-background="new 0 0 496 496" fill="currentColor" version="1.1" viewBox="0 0 496 496" xml:space="preserve"><path d="m376 264c-13.232 0-24 10.768-24 24s10.768 24 24 24 24-10.768 24-24-10.768-24-24-24zm0 32c-4.408 0-8-3.584-8-8s3.592-8 8-8 8 3.584 8 8-3.592 8-8 8z"></path><path d="m120 264c-13.232 0-24 10.768-24 24s10.768 24 24 24 24-10.768 24-24-10.768-24-24-24zm0 32c-4.408 0-8-3.584-8-8s3.592-8 8-8 8 3.584 8 8-3.592 8-8 8z"></path><path d="m426.52 312h69.48v-60.544c0-19.896-14.264-36.52-33.912-39.536l-19.744-3.04 16.968-16.88h28.688v-16h-35.312l-26.272 26.264-3.608 3.512c-24.536-4.296-48.336-13.736-69.048-27.544-25.728-17.16-55.68-26.232-86.616-26.232-29.752 0-58.744 8.448-83.832 24.416l-13.136 8.36c-23.888 15.192-51.464 23.224-79.768 23.224-18.952 0-37.128 5.824-52.544 16.84-23.712 16.936-37.864 44.432-37.864 73.568v13.592h69.48c4.768 9.992 12.384 18.336 21.824 24h-59.304v16h432v-16h-59.304c9.44-5.664 17.056-14.008 21.824-24zm-361.88-16h-48.6c0.752-23.08 12.264-44.672 31.12-58.144 12.696-9.056 27.656-13.856 43.248-13.856 31.344 0 61.896-8.896 88.344-25.728l13.144-8.36c22.52-14.336 48.544-21.912 75.248-21.912 27.768 0 54.648 8.144 77.744 23.536 23.656 15.768 51 26.384 79.088 30.704l35.68 5.496c7.68 1.184 13.944 5.864 17.408 12.264h-13.064v16h16v8h-16v16h16v16h-48.64c0.376-2.624 0.64-5.28 0.64-8 0-30.872-25.12-56-56-56s-56 25.128-56 56c0 2.72 0.264 5.376 0.64 8h-145.28c0.376-2.624 0.64-5.28 0.64-8 0-30.872-25.12-56-56-56s-56 25.128-56 56c0 2.72 0.264 5.376 0.64 8zm55.36 32c-22.056 0-40-17.944-40-40s17.944-40 40-40 40 17.944 40 40-17.944 40-40 40zm28.696 8c9.44-5.664 17.056-14.008 21.824-24h154.96c4.768 9.992 12.384 18.336 21.824 24h-198.61zm227.3-8c-22.056 0-40-17.944-40-40s17.944-40 40-40 40 17.944 40 40-17.944 40-40 40z"></path><path d="m340.44 209.34c-23.792-15.864-51.2-25.344-73.296-25.344-23.656 0-46.696 6.712-66.656 19.408l-13.144 8.368c-1.328 0.84-2.664 1.864-4 2.904-1.096 0.848-2.184 1.736-3.304 2.368l-6.584 3.752 13.6 27.2h137.22l22.816-34.216-6.656-4.44zm-24.72 22.656h-118.78l-2.744-5.496c0.584-0.448 1.16-0.864 1.736-1.232l13.136-8.368c17.384-11.064 37.464-16.904 58.072-16.904 19.552 0 41.464 8.88 57.64 18.408l-9.064 13.592z"></path><rect x="168" y="64" width="160" height="16"></rect><rect x="248" y="32" width="160" height="16"></rect><rect x="328" width="160" height="16"></rect><rect x="88" y="480" width="160" height="16"></rect><rect x="168" y="448" width="160" height="16"></rect><rect x="248" y="416" width="160" height="16"></rect><rect x="480" y="336" width="16" height="16"></rect><rect y="336" width="16" height="16"></rect></svg>