<?xml version="1.0" encoding="utf-8"?>
<!-- Generator: Adobe Illustrator 22.1.0, SVG Export Plug-In . SVG Version: 6.00 Build 0)  -->
<svg version="1.1" id="Layer_1" xmlns="http://www.w3.org/2000/svg" xmlns:xlink="http://www.w3.org/1999/xlink" x="0px" y="0px"
	 viewBox="0 0 203.1 140.9" style="enable-background:new 0 0 203.1 140.9;" xml:space="preserve">
<style type="text/css">
	.st0{fill:#00AEA0;}
	.st1{fill:#67696B;}
</style>
<g>
	<path class="st0" d="M86.4,30.5c-0.4,0-0.7,0.3-0.7,0.7v17.9c0,0.4,0,0.6,0.1,0.7h23.4c0.4,0,0.7-0.3,0.7-0.7V31.3
		c0-0.4-0.3-0.7-0.7-0.7H86.4V30.5z"/>
	<path class="st1" d="M97.7,33.8c-1.9,0-3.4,1.5-3.4,3.4c0,1.1,0.6,2.1,1.4,2.7v4.8c0,1.1,0.9,2,2,2s2-0.9,2-2v-4.8
		c0.8-0.6,1.4-1.6,1.4-2.7C101.1,35.3,99.6,33.8,97.7,33.8L97.7,33.8z"/>
	<g>
		<path class="st0" d="M57.3,101.7c-6.7,0-12.1,5.4-12.1,12.1s5.4,12.1,12.1,12.1s12.1-5.4,12.1-12.1S63.9,101.7,57.3,101.7z
			 M57.3,121.6c-4.3,0-7.8-3.5-7.8-7.8s3.5-7.8,7.8-7.8s7.8,3.5,7.8,7.8S61.6,121.6,57.3,121.6z"/>
		<path class="st1" d="M135.5,85.3L135.5,85.3h-33.7c-1.1,0-2-0.9-2-2V68.7c0-1.1,0.9-2,2-2h11.5h0.1c7.2,0,16.8,8.7,23.4,15.2
			c0.6,0.6,0.8,1.4,0.4,2.2C137.1,84.8,136.3,85.3,135.5,85.3z M103.9,81.3h26.7c-7.6-7-13.4-10.6-17-10.6h-0.1H104v10.6H103.9z"/>
		<path class="st1" d="M59.2,85.3c-0.8,0-1.5-0.5-1.9-1.2c-0.3-0.8-0.1-1.6,0.4-2.2c1.2-1.2,2.5-2.6,3.7-3.9
			c5.3-5.6,10.7-11.3,16.7-11.3h0.1h14.5c1.1,0,2,0.9,2,2v14.6c0,1.1-0.9,2-2,2H59.2z M78.3,70.7c-4.3,0-9.1,5.1-13.8,10.1
			c-0.2,0.2-0.3,0.4-0.5,0.5h26.9V70.7H78.3L78.3,70.7z"/>
		<g>
			<path class="st1" d="M57.3,121.6c-4.3,0-7.8-3.5-7.8-7.8s3.5-7.8,7.8-7.8s7.8,3.5,7.8,7.8S61.6,121.6,57.3,121.6z M57.3,110
				c-2.1,0-3.8,1.7-3.8,3.8s1.7,3.8,3.8,3.8s3.8-1.7,3.8-3.8S59.4,110,57.3,110z"/>
		</g>
		<path class="st0" d="M149.9,101.7c-6.7,0-12.1,5.4-12.1,12.1s5.4,12.1,12.1,12.1s12.1-5.4,12.1-12.1S156.6,101.7,149.9,101.7z
			 M149.9,121.6c-4.3,0-7.8-3.5-7.8-7.8s3.5-7.8,7.8-7.8s7.8,3.5,7.8,7.8S154.2,121.6,149.9,121.6z"/>
		<path class="st1" d="M178.7,93.3c0-5.1-3.9-8.6-9.6-8.6h-17.8c-2.1-2-9.6-9-12.4-11.6c-10.5-9.3-18.8-13.9-25.6-13.9H75.8
			c-7,0-14.1,4.6-21.8,14.1c-2,2.5-6.9,9-8.7,11.3h-7.9c-5.7,0-9.6,3.6-9.6,8.6v21.4h13.5c0.5,8.5,7.5,15.2,16,15.2
			s15.6-6.7,16-15.2h60.6c0.5,8.5,7.5,15.2,16,15.2s15.6-6.7,16-15.2h12.8V93.3z M57.3,125.9c-6.7,0-12.1-5.4-12.1-12.1
			s5.4-12.1,12.1-12.1s12.1,5.4,12.1,12.1S63.9,125.9,57.3,125.9z M149.9,125.9c-6.7,0-12.1-5.4-12.1-12.1s5.4-12.1,12.1-12.1
			s12.1,5.4,12.1,12.1S156.6,125.9,149.9,125.9z M174.7,110.7h-9c-1.4-7.4-8-13-15.8-13s-14.3,5.6-15.8,13H73c-1.4-7.4-8-13-15.8-13
			s-14.3,5.6-15.8,13h-9.7V93.3c0-3.4,3-4.6,5.6-4.6h9.9l0.6-0.8c0.1-0.1,6.8-9.1,9.2-12c6.8-8.4,13.1-12.6,18.7-12.6h37.5
			c5.7,0,13.4,4.3,23,12.9c3.2,2.9,12.8,11.9,12.9,12l0.6,0.5h19.4c2.7,0,5.6,1.2,5.6,4.6V110.7z"/>
		<g>
			<path class="st1" d="M149.9,121.6c-4.3,0-7.8-3.5-7.8-7.8s3.5-7.8,7.8-7.8s7.8,3.5,7.8,7.8S154.2,121.6,149.9,121.6z M149.9,110
				c-2.1,0-3.8,1.7-3.8,3.8s1.7,3.8,3.8,3.8s3.8-1.7,3.8-3.8S152,110,149.9,110z"/>
		</g>
	</g>
	<path class="st1" d="M109.1,26.5h-2.2V19c0-4.9-4-8.9-8.9-8.9c-5,0-8.9,3.7-8.9,8.5c0,1.1,0.9,2,2,2s2-0.9,2-2
		c0-2.6,2.1-4.5,4.9-4.5c2.7,0,4.9,2.2,4.9,4.9v7.5H86.4c-2.6,0-4.7,2.1-4.7,4.7v17.9c0,3.5,2,4.7,4,4.7h23.5c2.6,0,4.7-2.1,4.7-4.7
		V31.3C113.8,28.7,111.7,26.5,109.1,26.5z M109.8,49.2c0,0.4-0.3,0.7-0.7,0.7H85.7c0-0.1-0.1-0.4-0.1-0.7V31.3
		c0-0.4,0.3-0.7,0.7-0.7H109c0.4,0,0.7,0.3,0.7,0.7v17.9H109.8z"/>
</g>
</svg>
