<?xml version="1.0" encoding="utf-8"?>
<!-- Generator: Adobe Illustrator 22.1.0, SVG Export Plug-In . SVG Version: 6.00 Build 0)  -->
<svg version="1.2" baseProfile="tiny" id="Layer_1" xmlns="http://www.w3.org/2000/svg" xmlns:xlink="http://www.w3.org/1999/xlink"
	 x="0px" y="0px" viewBox="0 0 303.1 368.4" xml:space="preserve">
<path fill="#FFFFFF" d="M152.8,208.4l-6,0c0.5-12.2,1-24.6,1.5-37l4.6,0h2.7c0.3,12.5,0.7,24.9,1.2,37.1L152.8,208.4z M149.7,129
	l3.2,0l1.6,0c0.2,7.7,0.3,15.6,0.5,23.4h-2.1l-3.9,0C149.2,144.6,149.4,136.8,149.7,129 M150.4,100.2l2.5,0l1,0
	c0.1,5.4,0.2,10.8,0.3,16.3l-1.3,0l-2.9,0C150.2,111.1,150.3,105.6,150.4,100.2 M150.9,79.4l2,0l0.7,0c0.1,3.9,0.1,7.9,0.2,12
	l-0.9,0l-2.3,0C150.7,87.4,150.8,83.4,150.9,79.4 M151.2,63.7l1.7,0l0.5,0c0,3,0.1,6.1,0.1,9.1l-0.6,0l-1.9,0
	C151.1,69.7,151.2,66.7,151.2,63.7 M151.4,51.4l1.5,0l0.4,0l0.1,7.2l-0.5,0l-1.6,0L151.4,51.4z M150.5,42.1c-0.1,0-0.3,0-0.4,0
	c-5.9,0.6-9.9,4.1-12,9.7c-5.2,13.8-10.3,27.6-15.5,41.4c-12,31.9-23.9,63.8-35.9,95.6c-14.7,39-29.3,78.1-44,117.1
	c-1.9,5.1-2.2,10.1,1.1,14.7c5,7,12.9,8.4,20.5,3.4c11-7.2,21.9-14.6,32.9-21.9c15.4-10.3,30.9-20.6,46.4-30.8
	c0.6-10.2,1.2-20.9,1.8-31.9l7.5,0l5.1,0c0.5,10.9,1,21.5,1.5,31.6c15.6,10.3,31.3,20.7,46.8,31.1c11,7.3,21.9,14.7,32.9,21.9
	c7.6,5,15.5,3.6,20.5-3.4c3.3-4.6,3-9.5,1.1-14.7c-14.7-39-29.4-78-44-117.1c-12-31.9-24-63.7-35.9-95.6
	c-5.2-13.8-10.3-27.6-15.5-41.4c-2.1-5.5-6.1-9-12-9.6l0,5l-0.4,0l-1.5,0l0.1-5.1C151.2,42.1,150.9,42.1,150.5,42.1"/>
</svg>
