<?xml version="1.0" encoding="UTF-8"?>
<svg enable-background="new 0 0 512.001 512.001" fill="#67686b" version="1.1" viewBox="0 0 512.001 512.001" xml:space="preserve" xmlns="http://www.w3.org/2000/svg">
			<path d="m469.33 85.334h-102.4c0.085-12.226-6.42-23.55-17.024-29.636s-23.663-5.99-34.176 0.25v-21.814c0.022-9.056-3.582-17.744-10.008-24.125-9.756-9.769-24.438-12.695-37.194-7.413s-21.071 17.731-21.064 31.538v13.266c-5.167-3.068-11.058-4.701-17.067-4.732-18.843 0.02-34.113 15.29-34.133 34.133v8.533h-153.6c-14.132 0.015-25.585 11.468-25.6 25.6v187.73c0.015 14.132 11.468 25.585 25.6 25.6h103.77c5.244 38.252 25.712 82.535 36.184 103.27-7.09 2.215-11.927 8.769-11.953 16.197v51.2c0.011 9.421 7.645 17.056 17.067 17.067h170.67c9.421-0.011 17.056-7.645 17.067-17.067v-51.2c-0.017-4.992-2.234-9.724-6.059-12.932 31.24-30.546 31.659-78.623 31.659-80.934v-25.6h68.267c14.132-0.015 25.585-11.468 25.6-25.6v-187.73c-0.018-14.132-11.47-25.584-25.602-25.6zm-136.53-17.066c9.418 0.018 17.049 7.648 17.067 17.067h-34.133c0.01-9.422 7.644-17.056 17.066-17.067zm-68.267-34.134c0-9.426 7.641-17.067 17.067-17.067s17.067 7.641 17.067 17.067v51.2h-34.133v-51.2zm-51.2 42.667c0-9.426 7.641-17.067 17.067-17.067s17.067 7.641 17.067 17.067v8.533h-34.133v-8.533zm-25.6 418.13v-51.2h170.67l8e-3 51.2h-170.68zm196.27-145.08c0 0.542-0.671 53.424-36.765 76.813h-145.85c-7.559-14.407-31.626-62.51-37.755-102.4h110.23c-5.492 10.588-8.671 22.223-9.326 34.133 2e-3 4.696 3.804 8.505 8.5 8.516h0.033c4.689-0.011 8.495-3.794 8.533-8.483 0.017-2.133 1.117-52.375 60.792-59.833 0.509-0.11 1.006-0.268 1.485-0.472 1.229-0.291 2.347-0.933 3.22-1.846 0.084-0.08 0.188-0.13 0.269-0.213 1.586-1.57 2.485-3.704 2.501-5.935v-76.8c0-9.426 7.641-17.067 17.067-17.067s17.067 7.641 17.067 17.067v136.52zm-17.067-170.65c-18.851 0-34.133 15.282-34.133 34.133v59.733h-25.743c3.279-2.419 6.382-5.069 9.284-7.929 1.601-1.6 2.5-3.77 2.5-6.033s-0.899-4.433-2.5-6.033c-1.6-1.601-3.77-2.5-6.033-2.5s-4.433 0.899-6.033 2.5c-6.22 6.239-13.592 11.21-21.708 14.638-16.998 7.108-36.135 7.108-53.133 0-25.267-10.695-41.684-35.471-41.684-62.908 0-27.438 16.416-52.213 41.684-62.908 16.998-7.108 36.135-7.108 53.133 0 8.116 3.427 15.489 8.398 21.708 14.638 2.156 2.155 5.297 2.997 8.242 2.208 2.944-0.789 5.244-3.089 6.033-6.033s-0.053-6.086-2.208-8.242c-2.902-2.86-6.005-5.51-9.284-7.929h103.4c3.45 16.74 16.531 29.82 33.271 33.271v69.992c-16.74 3.45-29.82 16.531-33.271 33.271h-9.396v-59.733c-1e-3 -18.854-15.283-34.136-34.134-34.136zm-161.99 93.867h-103.4c-3.45-16.74-16.531-29.82-33.271-33.271v-69.992c16.74-3.45 29.82-16.531 33.271-33.271h103.4c-21.698 15.979-34.507 41.321-34.507 68.267 0 26.947 12.81 52.288 34.507 68.267zm272.92 25.6c-5e-3 4.711-3.823 8.529-8.533 8.533h-68.267v-17.067h17.067c2.263 1e-3 4.434-0.898 6.035-2.499 1.6-1.6 2.499-3.771 2.499-6.035 0.015-14.132 11.468-25.585 25.6-25.6 2.263 1e-3 4.434-0.898 6.035-2.499 1.6-1.6 2.499-3.771 2.499-6.035v-85.333c1e-3 -2.263-0.898-4.434-2.499-6.035-1.6-1.6-3.771-2.499-6.035-2.499-14.132-0.015-25.585-11.468-25.6-25.6 1e-3 -2.263-0.898-4.434-2.499-6.035-1.6-1.6-3.771-2.499-6.035-2.499h-324.27c-2.263-1e-3 -4.434 0.898-6.035 2.499-1.6 1.6-2.499 3.771-2.499 6.035-0.015 14.132-11.468 25.585-25.6 25.6-2.263-1e-3 -4.434 0.898-6.035 2.499-1.6 1.6-2.499 3.771-2.499 6.035v85.333c-1e-3 2.263 0.898 4.434 2.499 6.035 1.6 1.6 3.771 2.499 6.035 2.499 14.132 0.015 25.585 11.468 25.6 25.6-1e-3 2.263 0.898 4.434 2.499 6.035 1.6 1.6 3.771 2.499 6.035 2.499h215.82c-8.96 4.092-17.037 9.888-23.781 17.067h-243.23c-4.711-5e-3 -8.529-3.822-8.533-8.533v-187.73c5e-3 -4.711 3.822-8.529 8.533-8.533h426.67c4.711 5e-3 8.529 3.822 8.533 8.533v187.73z"/>
			<path d="m279.96 203.16c-4.481-3.007-9.542-5.045-14.858-5.983v-18.938c1.806 0.522 3.523 1.314 5.092 2.349 3.866 2.697 9.186 1.749 11.883-2.117s1.749-9.186-2.117-11.883c-4.566-3.022-9.731-5.02-15.142-5.858-0.602-4.093-4.114-7.125-8.25-7.125s-7.648 3.033-8.25 7.126c-5.408 0.838-10.57 2.836-15.133 5.857-7.017 4.187-11.315 11.755-11.317 19.927-2e-3 8.171 4.293 15.741 11.308 19.932 4.482 3.009 9.543 5.048 14.858 5.987v18.935c-1.8-0.521-3.511-1.311-5.075-2.343-3.863-2.651-9.141-1.693-11.826 2.147s-1.773 9.126 2.043 11.844c4.574 3.073 9.748 5.137 15.181 6.057 0.681 4.003 4.15 6.931 8.21 6.931s7.529-2.928 8.21-6.931c5.436-0.919 10.614-2.986 15.189-6.061 7.015-4.189 11.31-11.759 11.308-19.93s-4.297-15.737-11.314-19.923zm-31.924-8.279c-1.801-0.563-3.512-1.38-5.083-2.424-2.174-1.263-3.653-3.45-4.017-5.938 0.364-2.489 1.847-4.675 4.025-5.933 1.564-1.032 3.275-1.823 5.075-2.343v16.638zm22.158 34.142c-1.569 1.035-3.286 1.828-5.092 2.349v-16.642c1.801 0.563 3.513 1.379 5.083 2.426 2.157 1.281 3.632 3.456 4.025 5.933-0.391 2.476-1.863 4.65-4.016 5.934z"/>
			<path d="m93.867 179.2c-2.263-1e-3 -4.434 0.898-6.035 2.499-1.6 1.6-2.499 3.771-2.499 6.035v34.133c0 4.713 3.82 8.533 8.533 8.533s8.533-3.82 8.533-8.533v-34.133c1e-3 -2.263-0.898-4.434-2.499-6.035-1.599-1.601-3.769-2.5-6.033-2.499z"/>
			<path d="m418.13 230.4c2.263 1e-3 4.434-0.898 6.035-2.499 1.6-1.6 2.499-3.771 2.499-6.035v-34.133c0-4.713-3.82-8.533-8.533-8.533s-8.533 3.82-8.533 8.533v34.133c-1e-3 2.263 0.898 4.434 2.499 6.035 1.599 1.601 3.77 2.5 6.033 2.499z"/>
</svg>
