<?xml version="1.0" encoding="iso-8859-1"?>
<!-- Generator: Adobe Illustrator 19.0.0, SVG Export Plug-In . SVG Version: 6.00 Build 0)  -->
<svg fill="#67686b" version="1.1" id="Capa_1" xmlns="http://www.w3.org/2000/svg" xmlns:xlink="http://www.w3.org/1999/xlink" x="0px" y="0px"
	 viewBox="0 0 480 480" style="enable-background:new 0 0 480 480;" xml:space="preserve">
<g>
	<g>
		<rect x="232" y="52" width="16" height="16"/>
	</g>
</g>
<g>
	<g>
		<path d="M456,276h-16v-48c-0.11-97.156-78.844-175.89-176-176v16c56.52,0.069,108.806,29.97,137.528,78.648
			c-15.43-2.859-29.695-10.144-41.056-20.968c-3.36-3.2-6.872-6.208-10.448-9.032C323.3,95.404,290.14,83.889,256,84h-32
			c-34.139-0.111-67.3,11.404-94.024,32.648c-3.6,2.84-7.112,5.872-10.448,9.04c-11.36,10.825-25.626,18.108-41.056,20.96
			C107.194,97.97,159.48,68.069,216,68V52c-97.156,0.11-175.89,78.844-176,176v48H24c-13.255,0-24,10.745-24,24v104
			c0,13.255,10.745,24,24,24h32c17.673,0,32-14.327,32-32v-88c0-17.673-14.327-32-32-32v-48c0.007-22.135,4.639-44.024,13.6-64.264
			c22.8-1.305,44.397-10.661,60.944-26.4c2.992-2.824,6.136-5.552,9.36-8.096c23.9-19.011,53.557-29.323,84.096-29.24h32
			c30.542-0.094,60.208,10.206,84.12,29.208c3.2,2.528,6.344,5.248,9.352,8.088c16.541,15.745,38.13,25.113,60.928,26.44
			c8.961,20.24,13.593,42.129,13.6,64.264v48c-17.673,0-32,14.327-32,32v88c0,17.673,14.327,32,32,32h32c13.255,0,24-10.745,24-24
			V300C480,286.745,469.255,276,456,276z M40,412H24c-4.418,0-8-3.582-8-8V300c0-4.418,3.582-8,8-8h16V412z M72,308v88
			c0,8.837-7.163,16-16,16V292C64.837,292,72,299.163,72,308z M424,412c-8.837,0-16-7.163-16-16v-88c0-8.837,7.163-16,16-16V412z
			 M464,404c0,4.418-3.582,8-8,8h-16V292h16c4.418,0,8,3.582,8,8V404z"/>
	</g>
</g>
<g>
	<g>
		<g>
			<path d="M155.892,288.139c-0.003-0.003-0.005-0.005-0.008-0.008l-11.308,11.308c31.241,31.242,31.241,81.894,0,113.136
				l11.304,11.328C193.374,386.417,193.379,325.633,155.892,288.139z"/>
			<polygon points="155.88,288.128 155.884,288.132 155.888,288.128 			"/>
		</g>
	</g>
</g>
<g>
	<g>
		<path d="M133.242,310.754c-0.001-0.001-0.002-0.002-0.002-0.002l-11.312,11.312c18.747,18.744,18.749,49.135,0.006,67.882
			c-0.002,0.002-0.004,0.004-0.006,0.006l11.312,11.312C158.234,376.271,158.235,335.749,133.242,310.754z"/>
	</g>
</g>
<g>
	<g>
		<path d="M110.624,333.376l-11.312,11.312c6.246,6.248,6.246,16.376,0,22.624l11.312,11.312
			C123.116,366.128,123.116,345.872,110.624,333.376z"/>
	</g>
</g>
<g>
	<g>
		<path d="M335.448,299.44l-11.312-11.312c-37.493,37.487-37.499,98.271-0.011,135.764c0.004,0.004,0.008,0.008,0.011,0.012
			l11.312-11.328C304.207,381.334,304.207,330.682,335.448,299.44z"/>
	</g>
</g>
<g>
	<g>
		<path d="M358.05,322.07c0.002-0.002,0.004-0.004,0.006-0.006l-11.312-11.312c-24.994,24.993-24.995,65.516-0.002,90.51
			c0.001,0.001,0.002,0.002,0.002,0.002l11.312-11.312C339.309,371.208,339.307,340.816,358.05,322.07z"/>
	</g>
</g>
<g>
	<g>
		<path d="M380.688,344.688l-11.312-11.312c-12.492,12.496-12.492,32.752,0,45.248l11.312-11.312
			C374.442,361.064,374.442,350.936,380.688,344.688z"/>
	</g>
</g>
<g>
</g>
<g>
</g>
<g>
</g>
<g>
</g>
<g>
</g>
<g>
</g>
<g>
</g>
<g>
</g>
<g>
</g>
<g>
</g>
<g>
</g>
<g>
</g>
<g>
</g>
<g>
</g>
<g>
</g>
</svg>
