<svg id="Layer_1" data-name="Layer 1" xmlns="http://www.w3.org/2000/svg" viewBox="0 0 27.7 29.01"><defs><style>.cls-1{fill:#2e7ead;}</style></defs><title>repaire</title><path class="cls-1" d="M34.58,28.38H31.66V26.71a2.6,2.6,0,0,1-.63.11l-1.12,0v1.29a2.26,2.26,0,0,1,.21,1.71.89.89,0,0,0,.66.3h3.8a.88.88,0,1,0,0-1.76Z" transform="translate(-14.36 -1.13)"/><path class="cls-1" d="M31,19.27h-.37l.53.84s-.49-.48-2.86-2.65l-1.16-2.72a.74.74,0,0,0-1-.38.72.72,0,0,0-.38,1L27,18.18a.68.68,0,0,0,.18.26l2.92,2.63-1.42-.81v3.9h-2a.88.88,0,0,0-.82,1.2l1.67,4.24a.88.88,0,0,0,1.64-.65l-1.2-3s2.25,0,3,0a1.26,1.26,0,0,0,1.21-1.26V20.5A1.22,1.22,0,0,0,31,19.27Z" transform="translate(-14.36 -1.13)"/><path class="cls-1" d="M31.1,16.86a1.61,1.61,0,0,0-1.84-1.36,1.7,1.7,0,0,0-.73.31l.61,1.42,1,1.35A1.6,1.6,0,0,0,31.1,16.86Z" transform="translate(-14.36 -1.13)"/><path class="cls-1" d="M41.64,28.61h-1V16.27h.73a.65.65,0,0,0,0-1.29h-.73V2.08a.95.95,0,1,0-1.89,0V15H35v-.7a1.23,1.23,0,0,0,1.32-1.22V10.51a3.23,3.23,0,0,0-1-2.3l0-.23L36,7.29h1.3A.69.69,0,0,0,38,6.6V6.07a.69.69,0,0,0-.69-.69H35.94a.69.69,0,0,0-.69.69v.6l-.12.13-.87-4.69a.66.66,0,0,0-.64-.53H22.82a.66.66,0,0,0-.64.53l-.87,4.7-.14-.14a4.28,4.28,0,0,0,0-.6.69.69,0,0,0-.7-.69H19.11a.69.69,0,0,0-.69.69V6.6a.69.69,0,0,0,.69.69h1.31l.67.71,0,.21a3.23,3.23,0,0,0-.95,2.3v2.55a1.23,1.23,0,0,0,1.32,1.22V15h-3.8V2.08a.95.95,0,1,0-1.89,0V15H15a.65.65,0,1,0,0,1.29h.72V28.61h-.94a.31.31,0,0,0-.32.31v.89a.31.31,0,0,0,.32.31h3.78a.32.32,0,0,0,.32-.31v-.89a.32.32,0,0,0-.32-.31h-.95V16.27h3.93a1.52,1.52,0,0,0,2.92-.61V14.28h.62a1.64,1.64,0,0,1,.77-.7,1.58,1.58,0,0,1,2,.7H32v1.38a1.52,1.52,0,0,0,2.92.61H38.8V28.61h-.94a.31.31,0,0,0-.32.31v.89a.31.31,0,0,0,.32.31h3.78a.31.31,0,0,0,.31-.31v-.89A.31.31,0,0,0,41.64,28.61ZM22.9,12.17a1.34,1.34,0,1,1,1.35-1.34A1.34,1.34,0,0,1,22.9,12.17Zm6.83,1.05h-3a.48.48,0,0,1-.49-.48.49.49,0,0,1,.49-.49h3a.48.48,0,0,1,.48.49A.47.47,0,0,1,29.73,13.22Zm.8-1.85H25.91a.49.49,0,0,1,0-1h4.62a.49.49,0,1,1,0,1Zm-.77-4.13a1.06,1.06,0,0,1,2.1,0Zm1-2a2.14,2.14,0,0,0-2.13,2H23.37a3.41,3.41,0,0,0-.85.11l.84-4.47H27a.56.56,0,0,0,.47.88H29a.56.56,0,0,0,.47-.88h3.6l.84,4.47a3.57,3.57,0,0,0-1-.11A2.13,2.13,0,0,0,30.81,5.25Zm2.72,6.92a1.34,1.34,0,1,1,1.34-1.34A1.34,1.34,0,0,1,33.53,12.17Z" transform="translate(-14.36 -1.13)"/></svg>