<svg xmlns="http://www.w3.org/2000/svg" id="Layer_1" data-name="Layer 1" viewBox="0 0 58.21 58.21"><defs><style>.cls-1{fill:none;stroke:#fff;stroke-miterlimit:10;}.cls-2{fill:#fff;}</style></defs><title>request</title><rect class="cls-1" x="0.5" y="0.5" width="57.21" height="57.21"></rect><path class="cls-2" d="M33.5,22l-.26.26a1.51,1.51,0,0,0,0,2.12l.12.12a1.49,1.49,0,0,0,2.12,0l2-2,.26-.26a1.49,1.49,0,0,0,0-2.12L37.6,20a1.49,1.49,0,0,0-2.12,0Zm4.37.93-2,2a1.49,1.49,0,0,0,0,2.12l.11.12a1.51,1.51,0,0,0,2.12,0l.26-.27,1.72-1.71.26-.26a1.5,1.5,0,0,0,0-2.13l-.11-.11a1.49,1.49,0,0,0-2.12,0Zm6.54,9.63-8.85,8.85a1.91,1.91,0,0,1-2.68,0l-1.53-1.53-1.61,1.61a6.68,6.68,0,0,1-5.65,1.71H24L23.59,43a2.53,2.53,0,0,1-.36-.12l-.36-.13c-.24-.11-.48-.23-.72-.37l-.22-.14c-.21-.13-.41-.27-.62-.43l-.24-.19a9.28,9.28,0,0,1-.84-.74c-3.13-3.13-3-5.92-2.41-7.33,0,0,.48-1.77,1.06-3.86.16-.6.34-1.22.51-1.84l-3.68-3.68a1.91,1.91,0,0,1,0-2.69l8.84-8.84a1.91,1.91,0,0,1,2.69,0l5.13,5.13.47-.47a1.51,1.51,0,0,1,2.12,0l.11.12a1.49,1.49,0,0,1,0,2.12l-.26.26L33.1,21.54l-.27.26a1.5,1.5,0,0,1-2.12,0l-.11-.11a1.52,1.52,0,0,1,0-2.13l.26-.26h0l.58-.58-4.35-4.34L17.42,24l2.38,2.37c.4-1.44.76-2.7.95-3.3.61-1.91,2.12-1.84,2.84-.68.57.89.13,2.93-.16,5.23-.06.45-.21,1.2-.39,2l9.63,9.63,9.66-9.66-.71-.72-.85.84a1.49,1.49,0,0,1-2.12,0l-.12-.12a1.51,1.51,0,0,1,0-2.12l.27-.26,1.71-1.71.26-.27a1.52,1.52,0,0,1,2.13,0l.11.12a1.49,1.49,0,0,1,0,2.12l-.26.26h0l-.2.21,1.85,1.86A1.9,1.9,0,0,1,44.41,32.51ZM19.68,19.79a.24.24,0,0,0,.33,0L22.84,17a.23.23,0,0,0-.33-.33l-2.83,2.83A.24.24,0,0,0,19.68,19.79ZM39.31,34.92a.95.95,0,1,0,0,1.34A.95.95,0,0,0,39.31,34.92Z" transform="translate(-0.95 0.06)"></path></svg>