<svg id="Layer_1" data-name="Layer 1" xmlns="http://www.w3.org/2000/svg" viewBox="0 0 37.87 27.45"><defs><style>.cls-1{fill:#ba5328;}</style></defs><title>save_yard</title><path class="cls-1" d="M28.64,12.75a1.64,1.64,0,0,0-.37.05l-1.41.39L25.39,9.62a3.18,3.18,0,0,0-2.74-1.84H8.92A3.18,3.18,0,0,0,6.18,9.62L4.71,13.19l-1.4-.39a1.57,1.57,0,0,0-.37-.05A1.14,1.14,0,0,0,1.79,14v.84a1.49,1.49,0,0,0,1.49,1.49h.16l-.24.57a11.09,11.09,0,0,0-.7,3.55v7.11A1.49,1.49,0,0,0,4,29H5.93a1.49,1.49,0,0,0,1.49-1.49V25.74H24.15v1.78A1.49,1.49,0,0,0,25.63,29h1.95a1.49,1.49,0,0,0,1.49-1.49V20.41a11.37,11.37,0,0,0-.7-3.55l-.24-.57h.18A1.49,1.49,0,0,0,29.8,14.8V14A1.15,1.15,0,0,0,28.64,12.75ZM5.78,15.48,8,10.07A1.92,1.92,0,0,1,9.64,9H21.93a1.92,1.92,0,0,1,1.64,1.1l2.22,5.41a.74.74,0,0,1-.74,1.1H6.52A.74.74,0,0,1,5.78,15.48Zm5,6.84a.59.59,0,0,1-.59.59H5.92a.59.59,0,0,1-.6-.59v-2a.6.6,0,0,1,.6-.59h4.22a.6.6,0,0,1,.59.59Zm15.47,0a.59.59,0,0,1-.59.59H21.39a.59.59,0,0,1-.6-.59v-2a.6.6,0,0,1,.6-.59h4.22a.6.6,0,0,1,.59.59Z" transform="translate(-1.79 -1.55)"/><path class="cls-1" d="M37.8,1.55h-7a1.87,1.87,0,0,0-1.86,1.87v7.05a1.86,1.86,0,0,0,1.86,1.86h2.83V28.15a.7.7,0,1,0,1.39,0V12.33H37.8a1.87,1.87,0,0,0,1.86-1.86v-7A1.87,1.87,0,0,0,37.8,1.55ZM36.2,7.4A2.59,2.59,0,0,1,34.43,8h-1a.22.22,0,0,0-.22.22V9.89a.34.34,0,0,1-.34.34h-.77a.34.34,0,0,1-.34-.34V4a.34.34,0,0,1,.34-.34h2a3,3,0,0,1,2.17.53,2,2,0,0,1,.62,1.61A2.06,2.06,0,0,1,36.2,7.4Z" transform="translate(-1.79 -1.55)"/><path class="cls-1" d="M35.1,5.08a1.68,1.68,0,0,0-1-.22h-.7a.22.22,0,0,0-.22.22V6.5a.22.22,0,0,0,.22.22h.42a5.12,5.12,0,0,0,.56,0,2,2,0,0,0,.72-.18.86.86,0,0,0,.27-.72A.84.84,0,0,0,35.1,5.08Z" transform="translate(-1.79 -1.55)"/></svg>