<?xml version="1.0" encoding="utf-8"?>
<!-- Generator: Adobe Illustrator 22.1.0, SVG Export Plug-In . SVG Version: 6.00 Build 0)  -->
<svg version="1.1" id="Layer_1" xmlns="http://www.w3.org/2000/svg" xmlns:xlink="http://www.w3.org/1999/xlink" x="0px" y="0px"
	 viewBox="0 0 203.1 123" style="enable-background:new 0 0 203.1 123;" xml:space="preserve">
<style type="text/css">
	.st0{fill:#67696B;}
	.st1{fill:#00AEA0;}
</style>
<g>
	<g>
		<g>
			<path class="st0" d="M115.9,73.2H24.2l14.7-12h65V47.8h12V73.2z M35.4,69.2h76.4V51.8h-4v13.4H40.3L35.4,69.2z"/>
		</g>
	</g>
	<g>
		<path class="st0" d="M160.5,55.1h-32.1V25.9H141c4.6,0,8.8,2.8,10.6,7L160.5,55.1z M132.4,51.1h22.2l-6.7-16.7
			c-1.2-2.7-3.9-4.5-6.9-4.5h-8.6V51.1z"/>
	</g>
	<g>
		<rect x="63.1" y="86.3" class="st0" width="73.4" height="4"/>
	</g>
	<path class="st0" d="M174.6,51.1h-5.2l-10.4-23c-3.3-7.3-10.5-12.1-18.4-12.1H119v60H22.8v14.4h16v-4h-12V80H123V20h17.6
		c6.3,0,12.1,3.8,14.7,9.7l11.4,25.4h7.8c2.3,0,4.2,1.9,4.2,4.2v27H161v4h21.8v-31C182.8,54.8,179.1,51.1,174.6,51.1z"/>
	<g>
		<path class="st1" d="M50.9,79.6c-6.7,0-12.1,5.4-12.1,12.1s5.4,12.1,12.1,12.1S63,98.4,63,91.7S57.5,79.6,50.9,79.6z M50.9,99.5
			c-4.3,0-7.8-3.5-7.8-7.8s3.5-7.8,7.8-7.8s7.8,3.5,7.8,7.8S55.2,99.5,50.9,99.5z"/>
		<g>
			<path class="st0" d="M50.9,79.6C57.6,79.6,63,85,63,91.7s-5.4,12.1-12.1,12.1s-12.1-5.4-12.1-12.1S44.2,79.6,50.9,79.6
				 M50.9,75.6c-8.9,0-16.1,7.2-16.1,16.1s7.2,16.1,16.1,16.1S67,100.6,67,91.7S59.7,75.6,50.9,75.6L50.9,75.6z"/>
		</g>
		<g>
			<path class="st0" d="M50.9,99.5c-4.3,0-7.8-3.5-7.8-7.8s3.5-7.8,7.8-7.8s7.8,3.5,7.8,7.8S55.2,99.5,50.9,99.5z M50.9,87.9
				c-2.1,0-3.8,1.7-3.8,3.8s1.7,3.8,3.8,3.8s3.8-1.7,3.8-3.8S53,87.9,50.9,87.9z"/>
		</g>
	</g>
	<g>
		<path class="st1" d="M148.6,79.6c-6.7,0-12.1,5.4-12.1,12.1s5.4,12.1,12.1,12.1c6.7,0,12.1-5.4,12.1-12.1S155.3,79.6,148.6,79.6z
			 M148.6,99.5c-4.3,0-7.8-3.5-7.8-7.8s3.5-7.8,7.8-7.8s7.8,3.5,7.8,7.8S152.9,99.5,148.6,99.5z"/>
		<g>
			<path class="st0" d="M148.6,79.6c6.7,0,12.1,5.4,12.1,12.1s-5.4,12.1-12.1,12.1s-12.1-5.4-12.1-12.1S142,79.6,148.6,79.6
				 M148.6,75.6c-8.9,0-16.1,7.2-16.1,16.1s7.2,16.1,16.1,16.1s16.1-7.2,16.1-16.1S157.5,75.6,148.6,75.6L148.6,75.6z"/>
		</g>
		<g>
			<path class="st0" d="M148.6,99.5c-4.3,0-7.8-3.5-7.8-7.8s3.5-7.8,7.8-7.8s7.8,3.5,7.8,7.8S152.9,99.5,148.6,99.5z M148.6,87.9
				c-2.1,0-3.8,1.7-3.8,3.8s1.7,3.8,3.8,3.8s3.8-1.7,3.8-3.8S150.7,87.9,148.6,87.9z"/>
		</g>
	</g>
</g>
</svg>
